Comic Neue Light Oblique.ufo
<glyph name="exclam" format="1">
  <advance width="186"/>
  <unicode hex="0021"/>
  <outline>
    <contour>
      <point x="110" y="178" type="line" smooth="yes"/>
      <point x="108" y="168"/>
      <point x="116" y="158"/>
      <point x="126" y="158" type="curve" smooth="yes"/>
      <point x="137" y="158"/>
      <point x="148" y="168"/>
      <point x="150" y="178" type="curve" smooth="yes"/>
      <point x="257" y="680" type="line"/>
      <point x="260" y="692"/>
      <point x="253" y="701"/>
      <point x="242" y="701" type="curve" smooth="yes"/>
      <point x="232" y="701"/>
      <point x="220" y="692"/>
      <point x="217" y="680" type="curve"/>
    </contour>
    <contour>
      <point x="126" y="53"/>
      <point x="120" y="66"/>
      <point x="106" y="66" type="curve" smooth="yes"/>
      <point x="89" y="66"/>
      <point x="71" y="48"/>
      <point x="66" y="28" type="curve"/>
      <point x="63" y="13"/>
      <point x="70" y="0"/>
      <point x="84" y="0" type="curve" smooth="yes"/>
      <point x="99" y="0"/>
      <point x="118" y="17"/>
      <point x="123" y="39" type="curve" smooth="yes"/>
    </contour>
  </outline>
</glyph>
<glyph name="quotedbl" format="1">
  <advance width="303"/>
  <unicode hex="0022"/>
  <outline>
    <contour>
      <point x="213" y="521"/>
      <point x="224" y="529"/>
      <point x="226" y="540" type="curve" smooth="yes"/>
      <point x="256" y="679" type="line" smooth="yes"/>
      <point x="258" y="690"/>
      <point x="251" y="698"/>
      <point x="241" y="698" type="curve" smooth="yes"/>
      <point x="230" y="698"/>
      <point x="220" y="690"/>
      <point x="218" y="679" type="curve" smooth="yes"/>
      <point x="188" y="540" type="line" smooth="yes"/>
      <point x="186" y="529"/>
      <point x="192" y="521"/>
      <point x="203" y="521" type="curve" smooth="yes"/>
    </contour>
    <contour>
      <point x="337" y="521"/>
      <point x="348" y="529"/>
      <point x="350" y="540" type="curve" smooth="yes"/>
      <point x="380" y="679" type="line" smooth="yes"/>
      <point x="382" y="690"/>
      <point x="375" y="698"/>
      <point x="365" y="698" type="curve" smooth="yes"/>
      <point x="354" y="698"/>
      <point x="344" y="690"/>
      <point x="342" y="679" type="curve" smooth="yes"/>
      <point x="312" y="540" type="line" smooth="yes"/>
      <point x="310" y="529"/>
      <point x="316" y="521"/>
      <point x="327" y="521" type="curve" smooth="yes"/>
    </contour>
  </outline>
</glyph>
<glyph name="ampersand" format="1">
  <advance width="650"/>
  <unicode hex="0026"/>
  <outline>
    <contour>
      <point x="539" y="243"/>
      <point x="528" y="219"/>
      <point x="501" y="183" type="curve"/>
      <point x="375" y="385" type="line"/>
      <point x="485" y="438"/>
      <point x="541" y="485"/>
      <point x="557" y="564" type="curve" smooth="yes"/>
      <point x="572" y="633"/>
      <point x="518" y="698"/>
      <point x="444" y="698" type="curve" smooth="yes"/>
      <point x="370" y="698"/>
      <point x="287" y="634"/>
      <point x="272" y="561" type="curve" smooth="yes"/>
      <point x="258" y="498"/>
      <point x="296" y="431"/>
      <point x="321" y="393" type="curve"/>
      <point x="223" y="345"/>
      <point x="124" y="292"/>
      <point x="99" y="178" type="curve" smooth="yes"/>
      <point x="76" y="66"/>
      <point x="166" y="-4"/>
      <point x="262" y="-4" type="curve" smooth="yes"/>
      <point x="287" y="-4"/>
      <point x="384" y="3"/>
      <point x="493" y="121" type="curve"/>
      <point x="566" y="6" type="line"/>
      <point x="569" y="2"/>
      <point x="574" y="0"/>
      <point x="579" y="0" type="curve" smooth="yes"/>
      <point x="588" y="0"/>
      <point x="598" y="8"/>
      <point x="600" y="18" type="curve"/>
      <point x="601" y="22"/>
      <point x="600" y="25"/>
      <point x="598" y="29" type="curve"/>
      <point x="520" y="154" type="line"/>
      <point x="544" y="185"/>
      <point x="567" y="223"/>
      <point x="586" y="262" type="curve"/>
      <point x="592" y="273"/>
      <point x="594" y="278"/>
      <point x="594" y="279" type="curve"/>
      <point x="596" y="289"/>
      <point x="590" y="296"/>
      <point x="581" y="296" type="curve" smooth="yes"/>
      <point x="568" y="296"/>
      <point x="564" y="290"/>
      <point x="554" y="270" type="curve"/>
    </contour>
    <contour>
      <point x="319" y="619"/>
      <point x="386" y="663"/>
      <point x="436" y="663" type="curve" smooth="yes"/>
      <point x="491" y="663"/>
      <point x="534" y="612"/>
      <point x="523" y="562" type="curve" smooth="yes"/>
      <point x="514" y="522"/>
      <point x="504" y="477"/>
      <point x="358" y="412" type="curve"/>
      <point x="332" y="444"/>
      <point x="295" y="507"/>
      <point x="307" y="561" type="curve" smooth="yes"/>
    </contour>
    <contour>
      <point x="203" y="31"/>
      <point x="114" y="77"/>
      <point x="135" y="178" type="curve" smooth="yes"/>
      <point x="157" y="278"/>
      <point x="237" y="319"/>
      <point x="341" y="368" type="curve"/>
      <point x="476" y="150" type="line"/>
      <point x="380" y="39"/>
      <point x="292" y="31"/>
      <point x="269" y="31" type="curve" smooth="yes"/>
    </contour>
  </outline>
</glyph>
<glyph name="parenright" format="1">
  <advance width="359"/>
  <unicode hex="0029"/>
  <outline>
    <contour>
      <point x="140" y="-62"/>
      <point x="320" y="109"/>
      <point x="372" y="355" type="curve" smooth="yes"/>
      <point x="407" y="522"/>
      <point x="361" y="687"/>
      <point x="273" y="798" type="curve" smooth="yes"/>
      <point x="270" y="802"/>
      <point x="264" y="808"/>
      <point x="258" y="808" type="curve" smooth="yes"/>
      <point x="248" y="808"/>
      <point x="238" y="799"/>
      <point x="236" y="789" type="curve" smooth="yes"/>
      <point x="235" y="784"/>
      <point x="236" y="779"/>
      <point x="239" y="775" type="curve" smooth="yes"/>
      <point x="242" y="771"/>
      <point x="389" y="612"/>
      <point x="334" y="355" type="curve" smooth="yes"/>
      <point x="279" y="97"/>
      <point x="75" y="-77"/>
      <point x="71" y="-80" type="curve"/>
      <point x="67" y="-84"/>
      <point x="63" y="-90"/>
      <point x="62" y="-95" type="curve" smooth="yes"/>
      <point x="60" y="-104"/>
      <point x="67" y="-113"/>
      <point x="76" y="-113" type="curve" smooth="yes"/>
      <point x="83" y="-113"/>
      <point x="92" y="-108"/>
      <point x="96" y="-104" type="curve" smooth="yes"/>
    </contour>
  </outline>
</glyph>
<glyph name="plus" format="1">
  <advance width="433"/>
  <unicode hex="002B"/>
  <outline>
    <contour>
      <point x="417" y="233" type="line" smooth="yes"/>
      <point x="426" y="233"/>
      <point x="436" y="242"/>
      <point x="438" y="251" type="curve" smooth="yes"/>
      <point x="440" y="261"/>
      <point x="434" y="269"/>
      <point x="425" y="269" type="curve" smooth="yes"/>
      <point x="295" y="269" type="line"/>
      <point x="320" y="386" type="line"/>
      <point x="321" y="395"/>
      <point x="315" y="403"/>
      <point x="306" y="403" type="curve" smooth="yes"/>
      <point x="296" y="403"/>
      <point x="286" y="395"/>
      <point x="285" y="386" type="curve"/>
      <point x="260" y="269" type="line"/>
      <point x="132" y="269" type="line" smooth="yes"/>
      <point x="122" y="269"/>
      <point x="112" y="261"/>
      <point x="110" y="251" type="curve" smooth="yes"/>
      <point x="108" y="242"/>
      <point x="114" y="233"/>
      <point x="124" y="233" type="curve" smooth="yes"/>
      <point x="252" y="233" type="line"/>
      <point x="225" y="106" type="line" smooth="yes"/>
      <point x="223" y="97"/>
      <point x="229" y="89"/>
      <point x="239" y="89" type="curve" smooth="yes"/>
      <point x="248" y="89"/>
      <point x="258" y="97"/>
      <point x="260" y="106" type="curve" smooth="yes"/>
      <point x="287" y="233" type="line"/>
    </contour>
  </outline>
</glyph>
<glyph name="comma" format="1">
  <advance width="251"/>
  <unicode hex="002C"/>
  <outline>
    <contour>
      <point x="81" y="-76" type="line" smooth="yes"/>
      <point x="78" y="-81"/>
      <point x="78" y="-83"/>
      <point x="77" y="-86" type="curve"/>
      <point x="76" y="-91"/>
      <point x="81" y="-96"/>
      <point x="88" y="-96" type="curve" smooth="yes"/>
      <point x="99" y="-96"/>
      <point x="116" y="-67"/>
      <point x="141" y="-27" type="curve" smooth="yes"/>
      <point x="164" y="11"/>
      <point x="168" y="18"/>
      <point x="172" y="36" type="curve"/>
      <point x="174" y="47"/>
      <point x="167" y="59"/>
      <point x="154" y="59" type="curve" smooth="yes"/>
      <point x="138" y="59"/>
      <point x="120" y="43"/>
      <point x="115" y="23" type="curve" smooth="yes"/>
      <point x="113" y="14"/>
      <point x="116" y="3"/>
      <point x="123" y="-5" type="curve"/>
    </contour>
  </outline>
</glyph>
<glyph name="hyphen" format="1">
  <advance width="431"/>
  <unicode hex="002D"/>
  <outline>
    <contour>
      <point x="399" y="232" type="line" smooth="yes"/>
      <point x="408" y="232"/>
      <point x="419" y="241"/>
      <point x="421" y="250" type="curve" smooth="yes"/>
      <point x="423" y="259"/>
      <point x="415" y="268"/>
      <point x="406" y="268" type="curve" smooth="yes"/>
      <point x="148" y="268" type="line" smooth="yes"/>
      <point x="139" y="268"/>
      <point x="130" y="259"/>
      <point x="128" y="250" type="curve" smooth="yes"/>
      <point x="126" y="241"/>
      <point x="132" y="232"/>
      <point x="141" y="232" type="curve" smooth="yes"/>
    </contour>
  </outline>
</glyph>
<glyph name="period" format="1">
  <advance width="204"/>
  <unicode hex="002E"/>
  <outline>
    <contour>
      <point x="116" y="0"/>
      <point x="133" y="18"/>
      <point x="138" y="39" type="curve" smooth="yes"/>
      <point x="141" y="53"/>
      <point x="134" y="66"/>
      <point x="121" y="66" type="curve" smooth="yes"/>
      <point x="105" y="66"/>
      <point x="86" y="48"/>
      <point x="82" y="29" type="curve"/>
      <point x="78" y="14"/>
      <point x="86" y="0"/>
      <point x="99" y="0" type="curve" smooth="yes"/>
    </contour>
  </outline>
</glyph>
<glyph name="slash" format="1">
  <advance width="535"/>
  <unicode hex="002F"/>
  <outline>
    <contour>
      <point x="616" y="672" type="line"/>
      <point x="618" y="674"/>
      <point x="619" y="677"/>
      <point x="620" y="680" type="curve"/>
      <point x="623" y="692"/>
      <point x="617" y="700"/>
      <point x="605" y="700" type="curve" smooth="yes"/>
      <point x="599" y="700"/>
      <point x="593" y="698"/>
      <point x="589" y="692" type="curve"/>
      <point x="81" y="29" type="line" smooth="yes"/>
      <point x="77" y="24"/>
      <point x="75" y="19"/>
      <point x="74" y="17" type="curve"/>
      <point x="72" y="6"/>
      <point x="80" y="-2"/>
      <point x="89" y="-2" type="curve" smooth="yes"/>
      <point x="95" y="-2"/>
      <point x="100" y="-1"/>
      <point x="106" y="6" type="curve"/>
    </contour>
  </outline>
</glyph>
<glyph name="one" format="1">
  <advance width="394"/>
  <unicode hex="0031"/>
  <outline>
    <contour>
      <point x="235" y="38" type="line"/>
      <point x="379" y="669" type="line"/>
      <point x="380" y="677"/>
      <point x="374" y="688"/>
      <point x="363" y="688" type="curve" smooth="yes"/>
      <point x="359" y="688"/>
      <point x="352" y="686"/>
      <point x="347" y="681" type="curve"/>
      <point x="184" y="537" type="line"/>
      <point x="180" y="534"/>
      <point x="177" y="528"/>
      <point x="176" y="524" type="curve"/>
      <point x="174" y="514"/>
      <point x="180" y="505"/>
      <point x="191" y="505" type="curve" smooth="yes"/>
      <point x="196" y="505"/>
      <point x="201" y="507"/>
      <point x="206" y="512" type="curve"/>
      <point x="329" y="620" type="line"/>
      <point x="198" y="38" type="line"/>
      <point x="95" y="38" type="line" smooth="yes"/>
      <point x="84" y="38"/>
      <point x="74" y="29"/>
      <point x="72" y="19" type="curve"/>
      <point x="69" y="8"/>
      <point x="76" y="0"/>
      <point x="87" y="0" type="curve" smooth="yes"/>
      <point x="314" y="0" type="line" smooth="yes"/>
      <point x="324" y="0"/>
      <point x="334" y="8"/>
      <point x="337" y="19" type="curve"/>
      <point x="339" y="29"/>
      <point x="333" y="38"/>
      <point x="320" y="38" type="curve" smooth="yes"/>
    </contour>
  </outline>
</glyph>
<glyph name="three" format="1">
  <advance width="533"/>
  <unicode hex="0033"/>
  <outline>
    <contour>
      <point x="344" y="-6"/>
      <point x="482" y="47"/>
      <point x="515" y="198" type="curve" smooth="yes"/>
      <point x="532" y="278"/>
      <point x="500" y="351"/>
      <point x="420" y="388" type="curve"/>
      <point x="498" y="425"/>
      <point x="558" y="482"/>
      <point x="571" y="544" type="curve" smooth="yes"/>
      <point x="589" y="627"/>
      <point x="520" y="692"/>
      <point x="413" y="692" type="curve" smooth="yes"/>
      <point x="356" y="692"/>
      <point x="301" y="672"/>
      <point x="269" y="654" type="curve" smooth="yes"/>
      <point x="244" y="640"/>
      <point x="234" y="629"/>
      <point x="233" y="622" type="curve"/>
      <point x="231" y="614"/>
      <point x="235" y="603"/>
      <point x="248" y="603" type="curve" smooth="yes"/>
      <point x="252" y="603"/>
      <point x="257" y="606"/>
      <point x="267" y="613" type="curve"/>
      <point x="288" y="626"/>
      <point x="331" y="654"/>
      <point x="405" y="654" type="curve" smooth="yes"/>
      <point x="503" y="654"/>
      <point x="545" y="597"/>
      <point x="534" y="544" type="curve" smooth="yes"/>
      <point x="518" y="469"/>
      <point x="415" y="405"/>
      <point x="335" y="405" type="curve" smooth="yes"/>
      <point x="324" y="405"/>
      <point x="314" y="397"/>
      <point x="312" y="387" type="curve"/>
      <point x="309" y="376"/>
      <point x="316" y="368"/>
      <point x="326" y="368" type="curve" smooth="yes"/>
      <point x="379" y="368"/>
      <point x="506" y="338"/>
      <point x="477" y="198" type="curve" smooth="yes"/>
      <point x="452" y="83"/>
      <point x="351" y="31"/>
      <point x="271" y="31" type="curve" smooth="yes"/>
      <point x="175" y="31"/>
      <point x="140" y="97"/>
      <point x="131" y="123" type="curve"/>
      <point x="128" y="129"/>
      <point x="124" y="133"/>
      <point x="116" y="133" type="curve" smooth="yes"/>
      <point x="107" y="133"/>
      <point x="96" y="126"/>
      <point x="94" y="117" type="curve"/>
      <point x="94" y="114"/>
      <point x="93" y="109"/>
      <point x="94" y="102" type="curve"/>
      <point x="96" y="93"/>
      <point x="130" y="-6"/>
      <point x="266" y="-6" type="curve" smooth="yes"/>
    </contour>
  </outline>
</glyph>
<glyph name="five" format="1">
  <advance width="549"/>
  <unicode hex="0035"/>
  <outline>
    <contour>
      <point x="128" y="129"/>
      <point x="125" y="133"/>
      <point x="116" y="133" type="curve" smooth="yes"/>
      <point x="106" y="133"/>
      <point x="95" y="125"/>
      <point x="93" y="115" type="curve" smooth="yes"/>
      <point x="92" y="110"/>
      <point x="92" y="107"/>
      <point x="93" y="104" type="curve"/>
      <point x="101" y="74"/>
      <point x="154" y="-3"/>
      <point x="266" y="-3" type="curve" smooth="yes"/>
      <point x="385" y="-3"/>
      <point x="518" y="113"/>
      <point x="547" y="253" type="curve" smooth="yes"/>
      <point x="577" y="391"/>
      <point x="508" y="482"/>
      <point x="390" y="482" type="curve" smooth="yes"/>
      <point x="335" y="482"/>
      <point x="277" y="457"/>
      <point x="231" y="433" type="curve"/>
      <point x="296" y="643" type="line"/>
      <point x="583" y="643" type="line" smooth="yes"/>
      <point x="593" y="643"/>
      <point x="603" y="651"/>
      <point x="605" y="662" type="curve" smooth="yes"/>
      <point x="607" y="672"/>
      <point x="601" y="680"/>
      <point x="591" y="680" type="curve" smooth="yes"/>
      <point x="287" y="680" type="line" smooth="yes"/>
      <point x="278" y="680"/>
      <point x="269" y="673"/>
      <point x="266" y="664" type="curve" smooth="yes"/>
      <point x="178" y="390" type="line"/>
      <point x="175" y="378"/>
      <point x="181" y="367"/>
      <point x="194" y="367" type="curve" smooth="yes"/>
      <point x="199" y="367"/>
      <point x="204" y="369"/>
      <point x="211" y="375" type="curve" smooth="yes"/>
      <point x="224" y="386"/>
      <point x="291" y="445"/>
      <point x="382" y="445" type="curve" smooth="yes"/>
      <point x="499" y="445"/>
      <point x="530" y="348"/>
      <point x="510" y="253" type="curve" smooth="yes"/>
      <point x="485" y="135"/>
      <point x="374" y="34"/>
      <point x="274" y="34" type="curve" smooth="yes"/>
      <point x="200" y="34"/>
      <point x="159" y="66"/>
      <point x="131" y="122" type="curve"/>
    </contour>
  </outline>
</glyph>
<glyph name="eight" format="1">
  <advance width="537"/>
  <unicode hex="0038"/>
  <outline>
    <contour>
      <point x="389" y="-3"/>
      <point x="493" y="78"/>
      <point x="516" y="187" type="curve" smooth="yes"/>
      <point x="533" y="265"/>
      <point x="493" y="334"/>
      <point x="412" y="380" type="curve"/>
      <point x="484" y="413"/>
      <point x="556" y="461"/>
      <point x="573" y="538" type="curve" smooth="yes"/>
      <point x="592" y="629"/>
      <point x="533" y="694"/>
      <point x="431" y="694" type="curve" smooth="yes"/>
      <point x="333" y="694"/>
      <point x="236" y="629"/>
      <point x="213" y="521" type="curve" smooth="yes"/>
      <point x="198" y="447"/>
      <point x="246" y="402"/>
      <point x="306" y="373" type="curve"/>
      <point x="224" y="337"/>
      <point x="131" y="280"/>
      <point x="105" y="176" type="curve" smooth="yes"/>
      <point x="83" y="73"/>
      <point x="153" y="-3"/>
      <point x="272" y="-3" type="curve" smooth="yes"/>
    </contour>
    <contour>
      <point x="433" y="333"/>
      <point x="500" y="277"/>
      <point x="480" y="183" type="curve" smooth="yes"/>
      <point x="459" y="80"/>
      <point x="359" y="33"/>
      <point x="280" y="33" type="curve" smooth="yes"/>
      <point x="186" y="33"/>
      <point x="124" y="90"/>
      <point x="141" y="170" type="curve" smooth="yes"/>
      <point x="165" y="286"/>
      <point x="271" y="322"/>
      <point x="361" y="357" type="curve"/>
    </contour>
    <contour>
      <point x="501" y="656"/>
      <point x="553" y="614"/>
      <point x="538" y="544" type="curve" smooth="yes"/>
      <point x="527" y="490"/>
      <point x="491" y="442"/>
      <point x="363" y="396" type="curve"/>
      <point x="269" y="424"/>
      <point x="236" y="462"/>
      <point x="249" y="525" type="curve" smooth="yes"/>
      <point x="270" y="624"/>
      <point x="364" y="656"/>
      <point x="424" y="656" type="curve" smooth="yes"/>
    </contour>
  </outline>
</glyph>
<glyph name="less" format="1">
  <advance width="530"/>
  <unicode hex="003C"/>
  <outline>
    <contour>
      <point x="415" y="13" type="line"/>
      <point x="421" y="9"/>
      <point x="424" y="8"/>
      <point x="427" y="8" type="curve" smooth="yes"/>
      <point x="437" y="8"/>
      <point x="448" y="17"/>
      <point x="450" y="27" type="curve"/>
      <point x="452" y="33"/>
      <point x="449" y="40"/>
      <point x="444" y="44" type="curve" smooth="yes"/>
      <point x="180" y="247" type="line"/>
      <point x="552" y="456" type="line" smooth="yes"/>
      <point x="559" y="460"/>
      <point x="564" y="466"/>
      <point x="565" y="472" type="curve" smooth="yes"/>
      <point x="567" y="482"/>
      <point x="560" y="492"/>
      <point x="550" y="492" type="curve" smooth="yes"/>
      <point x="548" y="492"/>
      <point x="544" y="492"/>
      <point x="538" y="489" type="curve"/>
      <point x="139" y="264" type="line" smooth="yes"/>
      <point x="132" y="260"/>
      <point x="126" y="254"/>
      <point x="125" y="248" type="curve"/>
      <point x="124" y="240"/>
      <point x="125" y="235"/>
      <point x="131" y="231" type="curve"/>
    </contour>
  </outline>
</glyph>
<glyph name="equal" format="1">
  <advance width="483"/>
  <unicode hex="003D"/>
  <outline>
    <contour>
      <point x="462" y="312" type="line" smooth="yes"/>
      <point x="473" y="312"/>
      <point x="483" y="320"/>
      <point x="484" y="329" type="curve"/>
      <point x="487" y="340"/>
      <point x="480" y="348"/>
      <point x="469" y="348" type="curve" smooth="yes"/>
      <point x="171" y="348" type="line" smooth="yes"/>
      <point x="162" y="348"/>
      <point x="152" y="340"/>
      <point x="149" y="329" type="curve"/>
      <point x="148" y="320"/>
      <point x="155" y="312"/>
      <point x="164" y="312" type="curve" smooth="yes"/>
    </contour>
    <contour>
      <point x="428" y="151" type="line" smooth="yes"/>
      <point x="439" y="151"/>
      <point x="448" y="159"/>
      <point x="450" y="169" type="curve"/>
      <point x="453" y="179"/>
      <point x="446" y="188"/>
      <point x="435" y="188" type="curve" smooth="yes"/>
      <point x="137" y="188" type="line" smooth="yes"/>
      <point x="128" y="188"/>
      <point x="118" y="179"/>
      <point x="115" y="169" type="curve"/>
      <point x="113" y="159"/>
      <point x="121" y="151"/>
      <point x="130" y="151" type="curve" smooth="yes"/>
    </contour>
  </outline>
</glyph>
<glyph name="question" format="1">
  <advance width="523"/>
  <unicode hex="003F"/>
  <outline>
    <contour>
      <point x="390" y="296" type="line" smooth="yes"/>
      <point x="452" y="342"/>
      <point x="551" y="405"/>
      <point x="574" y="516" type="curve" smooth="yes"/>
      <point x="600" y="638"/>
      <point x="529" y="720"/>
      <point x="398" y="720" type="curve" smooth="yes"/>
      <point x="322" y="720"/>
      <point x="257" y="680"/>
      <point x="218" y="645" type="curve" smooth="yes"/>
      <point x="205" y="634"/>
      <point x="194" y="623"/>
      <point x="192" y="614" type="curve" smooth="yes"/>
      <point x="190" y="606"/>
      <point x="197" y="598"/>
      <point x="207" y="598" type="curve" smooth="yes"/>
      <point x="213" y="598"/>
      <point x="217" y="601"/>
      <point x="220" y="603" type="curve"/>
      <point x="260" y="640"/>
      <point x="316" y="685"/>
      <point x="390" y="685" type="curve" smooth="yes"/>
      <point x="526" y="685"/>
      <point x="556" y="597"/>
      <point x="539" y="516" type="curve" smooth="yes"/>
      <point x="522" y="437"/>
      <point x="453" y="383"/>
      <point x="377" y="326" type="curve" smooth="yes"/>
      <point x="227" y="213" type="line" smooth="yes"/>
      <point x="222" y="209"/>
      <point x="219" y="205"/>
      <point x="218" y="200" type="curve" smooth="yes"/>
      <point x="216" y="191"/>
      <point x="222" y="182"/>
      <point x="232" y="182" type="curve" smooth="yes"/>
      <point x="236" y="182"/>
      <point x="241" y="185"/>
      <point x="245" y="188" type="curve" smooth="yes"/>
    </contour>
    <contour>
      <point x="175" y="0"/>
      <point x="193" y="18"/>
      <point x="198" y="39" type="curve" smooth="yes"/>
      <point x="201" y="53"/>
      <point x="193" y="66"/>
      <point x="181" y="66" type="curve" smooth="yes"/>
      <point x="164" y="66"/>
      <point x="145" y="48"/>
      <point x="141" y="29" type="curve"/>
      <point x="137" y="14"/>
      <point x="145" y="0"/>
      <point x="158" y="0" type="curve" smooth="yes"/>
    </contour>
  </outline>
</glyph>
<glyph name="B" format="1">
  <advance width="593"/>
  <unicode hex="0042"/>
  <outline>
    <contour>
      <point x="402" y="-2"/>
      <point x="565" y="72"/>
      <point x="592" y="200" type="curve" smooth="yes"/>
      <point x="609" y="279"/>
      <point x="569" y="335"/>
      <point x="484" y="368" type="curve"/>
      <point x="531" y="398"/>
      <point x="583" y="446"/>
      <point x="599" y="518" type="curve" smooth="yes"/>
      <point x="605" y="547"/>
      <point x="611" y="681"/>
      <point x="418" y="681" type="curve" smooth="yes"/>
      <point x="230" y="681" type="line" smooth="yes"/>
      <point x="220" y="681"/>
      <point x="211" y="673"/>
      <point x="208" y="662" type="curve"/>
      <point x="72" y="23" type="line" smooth="yes"/>
      <point x="68" y="2"/>
      <point x="79" y="-2"/>
      <point x="96" y="-2" type="curve" smooth="yes"/>
    </contour>
    <contour>
      <point x="178" y="340" type="line"/>
      <point x="400" y="340" type="line" smooth="yes"/>
      <point x="483" y="340"/>
      <point x="576" y="300"/>
      <point x="555" y="200" type="curve" smooth="yes"/>
      <point x="530" y="84"/>
      <point x="333" y="35"/>
      <point x="113" y="35" type="curve"/>
    </contour>
    <contour>
      <point x="242" y="643" type="line"/>
      <point x="410" y="643" type="line" smooth="yes"/>
      <point x="576" y="643"/>
      <point x="565" y="536"/>
      <point x="561" y="515" type="curve" smooth="yes"/>
      <point x="546" y="446"/>
      <point x="475" y="378"/>
      <point x="398" y="378" type="curve" smooth="yes"/>
      <point x="186" y="378" type="line"/>
    </contour>
  </outline>
</glyph>
<glyph name="F" format="1">
  <advance width="535"/>
  <unicode hex="0046"/>
  <outline>
    <contour>
      <point x="171" y="333" type="line"/>
      <point x="501" y="333" type="line" smooth="yes"/>
      <point x="512" y="333"/>
      <point x="522" y="341"/>
      <point x="524" y="351" type="curve" smooth="yes"/>
      <point x="526" y="362"/>
      <point x="520" y="371"/>
      <point x="509" y="371" type="curve" smooth="yes"/>
      <point x="179" y="371" type="line"/>
      <point x="237" y="643" type="line"/>
      <point x="659" y="643" type="line" smooth="yes"/>
      <point x="669" y="643"/>
      <point x="680" y="651"/>
      <point x="682" y="661" type="curve" smooth="yes"/>
      <point x="684" y="672"/>
      <point x="677" y="681"/>
      <point x="667" y="681" type="curve" smooth="yes"/>
      <point x="226" y="681" type="line" smooth="yes"/>
      <point x="216" y="681"/>
      <point x="205" y="672"/>
      <point x="203" y="661" type="curve" smooth="yes"/>
      <point x="67" y="19" type="line"/>
      <point x="64" y="8"/>
      <point x="71" y="-1"/>
      <point x="81" y="-1" type="curve" smooth="yes"/>
      <point x="91" y="-1"/>
      <point x="102" y="8"/>
      <point x="105" y="19" type="curve"/>
    </contour>
  </outline>
</glyph>
<glyph name="G" format="1">
  <advance width="741"/>
  <unicode hex="0047"/>
  <outline>
    <contour>
      <point x="727" y="271"/>
      <point x="691" y="284"/>
      <point x="628" y="284" type="curve" smooth="yes"/>
      <point x="555" y="284"/>
      <point x="488" y="266"/>
      <point x="485" y="265" type="curve" smooth="yes"/>
      <point x="476" y="262"/>
      <point x="469" y="254"/>
      <point x="468" y="247" type="curve"/>
      <point x="465" y="235"/>
      <point x="473" y="228"/>
      <point x="482" y="228" type="curve" smooth="yes"/>
      <point x="488" y="228"/>
      <point x="493" y="230"/>
      <point x="504" y="232" type="curve" smooth="yes"/>
      <point x="527" y="237"/>
      <point x="564" y="246"/>
      <point x="621" y="246" type="curve" smooth="yes"/>
      <point x="634" y="246"/>
      <point x="645" y="246"/>
      <point x="663" y="244" type="curve"/>
      <point x="604" y="116"/>
      <point x="493" y="37"/>
      <point x="368" y="37" type="curve" smooth="yes"/>
      <point x="190" y="37"/>
      <point x="143" y="204"/>
      <point x="170" y="331" type="curve" smooth="yes"/>
      <point x="190" y="428"/>
      <point x="309" y="645"/>
      <point x="515" y="645" type="curve" smooth="yes"/>
      <point x="651" y="645"/>
      <point x="696" y="568"/>
      <point x="707" y="498" type="curve"/>
      <point x="708" y="488"/>
      <point x="714" y="483"/>
      <point x="723" y="483" type="curve" smooth="yes"/>
      <point x="733" y="483"/>
      <point x="743" y="490"/>
      <point x="745" y="500" type="curve" smooth="yes"/>
      <point x="753" y="540"/>
      <point x="710" y="683"/>
      <point x="523" y="683" type="curve" smooth="yes"/>
      <point x="328" y="683"/>
      <point x="166" y="498"/>
      <point x="131" y="331" type="curve" smooth="yes"/>
      <point x="95" y="162"/>
      <point x="175" y="-1"/>
      <point x="360" y="-1" type="curve" smooth="yes"/>
      <point x="515" y="-1"/>
      <point x="638" y="104"/>
      <point x="698" y="237" type="curve"/>
      <point x="710" y="234"/>
      <point x="717" y="231"/>
      <point x="723" y="231" type="curve" smooth="yes"/>
      <point x="733" y="231"/>
      <point x="741" y="239"/>
      <point x="744" y="250" type="curve"/>
      <point x="746" y="260"/>
      <point x="742" y="265"/>
      <point x="735" y="268" type="curve"/>
    </contour>
  </outline>
</glyph>
<glyph name="H" format="1">
  <advance width="675"/>
  <unicode hex="0048"/>
  <outline>
    <contour>
      <point x="733" y="681"/>
      <point x="723" y="673"/>
      <point x="720" y="662" type="curve"/>
      <point x="665" y="400" type="line"/>
      <point x="176" y="335" type="line"/>
      <point x="245" y="662" type="line"/>
      <point x="248" y="673"/>
      <point x="240" y="681"/>
      <point x="230" y="681" type="curve" smooth="yes"/>
      <point x="219" y="681"/>
      <point x="210" y="673"/>
      <point x="207" y="662" type="curve"/>
      <point x="71" y="19" type="line"/>
      <point x="68" y="8"/>
      <point x="75" y="0"/>
      <point x="86" y="0" type="curve" smooth="yes"/>
      <point x="96" y="0"/>
      <point x="106" y="8"/>
      <point x="109" y="19" type="curve"/>
      <point x="167" y="296" type="line"/>
      <point x="656" y="361" type="line"/>
      <point x="584" y="19" type="line"/>
      <point x="581" y="8"/>
      <point x="589" y="0"/>
      <point x="600" y="0" type="curve" smooth="yes"/>
      <point x="610" y="0"/>
      <point x="619" y="8"/>
      <point x="622" y="19" type="curve"/>
      <point x="758" y="662" type="line"/>
      <point x="761" y="673"/>
      <point x="754" y="681"/>
      <point x="744" y="681" type="curve" smooth="yes"/>
    </contour>
  </outline>
</glyph>
<glyph name="I" format="1">
  <advance width="423"/>
  <unicode hex="0049"/>
  <outline>
    <contour>
      <point x="242" y="37" type="line"/>
      <point x="371" y="643" type="line"/>
      <point x="483" y="643" type="line" smooth="yes"/>
      <point x="493" y="643"/>
      <point x="504" y="652"/>
      <point x="506" y="662" type="curve"/>
      <point x="509" y="673"/>
      <point x="501" y="681"/>
      <point x="491" y="681" type="curve" smooth="yes"/>
      <point x="227" y="681" type="line" smooth="yes"/>
      <point x="217" y="681"/>
      <point x="207" y="673"/>
      <point x="204" y="662" type="curve"/>
      <point x="202" y="652"/>
      <point x="209" y="643"/>
      <point x="219" y="643" type="curve" smooth="yes"/>
      <point x="333" y="643" type="line"/>
      <point x="204" y="37" type="line"/>
      <point x="90" y="37" type="line" smooth="yes"/>
      <point x="80" y="37"/>
      <point x="70" y="29"/>
      <point x="68" y="19" type="curve"/>
      <point x="65" y="8"/>
      <point x="72" y="-1"/>
      <point x="82" y="-1" type="curve" smooth="yes"/>
      <point x="346" y="-1" type="line" smooth="yes"/>
      <point x="356" y="-1"/>
      <point x="367" y="8"/>
      <point x="370" y="19" type="curve"/>
      <point x="372" y="29"/>
      <point x="366" y="37"/>
      <point x="354" y="37" type="curve" smooth="yes"/>
    </contour>
  </outline>
</glyph>
<glyph name="J" format="1">
  <advance width="462"/>
  <unicode hex="004A"/>
  <outline>
    <contour>
      <point x="360" y="677" type="line" smooth="yes"/>
      <point x="350" y="677"/>
      <point x="339" y="669"/>
      <point x="336" y="658" type="curve"/>
      <point x="334" y="648"/>
      <point x="342" y="639"/>
      <point x="352" y="639" type="curve" smooth="yes"/>
      <point x="489" y="639" type="line"/>
      <point x="386" y="154" type="line" smooth="yes"/>
      <point x="379" y="118"/>
      <point x="349" y="38"/>
      <point x="234" y="38" type="curve" smooth="yes"/>
      <point x="104" y="38"/>
      <point x="121" y="142"/>
      <point x="126" y="166" type="curve" smooth="yes"/>
      <point x="128" y="176"/>
      <point x="122" y="185"/>
      <point x="112" y="185" type="curve" smooth="yes"/>
      <point x="99" y="185"/>
      <point x="90" y="176"/>
      <point x="87" y="164" type="curve"/>
      <point x="79" y="124"/>
      <point x="74" y="0"/>
      <point x="226" y="0" type="curve" smooth="yes"/>
      <point x="349" y="0"/>
      <point x="409" y="83"/>
      <point x="424" y="154" type="curve" smooth="yes"/>
      <point x="527" y="639" type="line"/>
      <point x="563" y="639" type="line" smooth="yes"/>
      <point x="573" y="639"/>
      <point x="584" y="648"/>
      <point x="586" y="658" type="curve"/>
      <point x="589" y="669"/>
      <point x="581" y="677"/>
      <point x="571" y="677" type="curve" smooth="yes"/>
    </contour>
  </outline>
</glyph>
<glyph name="K" format="1">
  <advance width="560"/>
  <unicode hex="004B"/>
  <outline>
    <contour>
      <point x="182" y="367" type="line"/>
      <point x="245" y="664" type="line" smooth="yes"/>
      <point x="247" y="673"/>
      <point x="240" y="681"/>
      <point x="229" y="681" type="curve" smooth="yes"/>
      <point x="220" y="681"/>
      <point x="211" y="673"/>
      <point x="209" y="664" type="curve" smooth="yes"/>
      <point x="72" y="19" type="line"/>
      <point x="69" y="8"/>
      <point x="76" y="0"/>
      <point x="85" y="0" type="curve" smooth="yes"/>
      <point x="96" y="0"/>
      <point x="105" y="8"/>
      <point x="108" y="19" type="curve"/>
      <point x="167" y="301" type="line"/>
      <point x="486" y="3" type="line" smooth="yes"/>
      <point x="489" y="0"/>
      <point x="492" y="-1"/>
      <point x="496" y="-1" type="curve" smooth="yes"/>
      <point x="506" y="-1"/>
      <point x="517" y="6"/>
      <point x="519" y="17" type="curve" smooth="yes"/>
      <point x="520" y="22"/>
      <point x="520" y="27"/>
      <point x="515" y="32" type="curve"/>
      <point x="190" y="335" type="line"/>
      <point x="627" y="650" type="line" smooth="yes"/>
      <point x="631" y="653"/>
      <point x="635" y="658"/>
      <point x="637" y="664" type="curve"/>
      <point x="639" y="673"/>
      <point x="632" y="682"/>
      <point x="623" y="682" type="curve" smooth="yes"/>
      <point x="618" y="682"/>
      <point x="614" y="680"/>
      <point x="609" y="677" type="curve"/>
    </contour>
  </outline>
</glyph>
<glyph name="L" format="1">
  <advance width="467"/>
  <unicode hex="004C"/>
  <outline>
    <contour>
      <point x="448" y="25" type="line" smooth="yes"/>
      <point x="459" y="26"/>
      <point x="468" y="34"/>
      <point x="470" y="43" type="curve"/>
      <point x="472" y="54"/>
      <point x="465" y="63"/>
      <point x="454" y="62" type="curve" smooth="yes"/>
      <point x="113" y="38" type="line"/>
      <point x="245" y="662" type="line"/>
      <point x="248" y="673"/>
      <point x="241" y="681"/>
      <point x="231" y="681" type="curve" smooth="yes"/>
      <point x="220" y="681"/>
      <point x="211" y="673"/>
      <point x="208" y="662" type="curve"/>
      <point x="72" y="19" type="line"/>
      <point x="69" y="7"/>
      <point x="76" y="-1"/>
      <point x="87" y="0" type="curve" smooth="yes"/>
    </contour>
  </outline>
</glyph>
<glyph name="M" format="1">
  <advance width="847"/>
  <unicode hex="004D"/>
  <outline>
    <contour>
      <point x="370" y="669" type="line"/>
      <point x="369" y="676"/>
      <point x="363" y="681"/>
      <point x="355" y="681" type="curve" smooth="yes"/>
      <point x="346" y="681"/>
      <point x="338" y="676"/>
      <point x="334" y="667" type="curve" smooth="yes"/>
      <point x="62" y="38" type="line"/>
      <point x="58" y="30"/>
      <point x="54" y="20"/>
      <point x="53" y="15" type="curve"/>
      <point x="51" y="7"/>
      <point x="57" y="0"/>
      <point x="68" y="0" type="curve" smooth="yes"/>
      <point x="76" y="0"/>
      <point x="85" y="5"/>
      <point x="88" y="14" type="curve"/>
      <point x="340" y="595" type="line"/>
      <point x="400" y="12" type="line" smooth="yes"/>
      <point x="401" y="3"/>
      <point x="408" y="0"/>
      <point x="415" y="0" type="curve" smooth="yes"/>
      <point x="424" y="0"/>
      <point x="430" y="3"/>
      <point x="435" y="11" type="curve"/>
      <point x="770" y="596" type="line"/>
      <point x="775" y="14" type="line" smooth="yes"/>
      <point x="775" y="4"/>
      <point x="782" y="0"/>
      <point x="791" y="0" type="curve" smooth="yes"/>
      <point x="804" y="0"/>
      <point x="810" y="8"/>
      <point x="811" y="14" type="curve"/>
      <point x="813" y="21"/>
      <point x="814" y="29"/>
      <point x="813" y="41" type="curve"/>
      <point x="805" y="670" type="line"/>
      <point x="805" y="676"/>
      <point x="800" y="681"/>
      <point x="791" y="681" type="curve" smooth="yes"/>
      <point x="782" y="681"/>
      <point x="776" y="678"/>
      <point x="771" y="670" type="curve"/>
      <point x="431" y="76" type="line"/>
    </contour>
  </outline>
</glyph>
<glyph name="O" format="1">
  <advance width="650"/>
  <unicode hex="004F"/>
  <outline>
    <contour>
      <point x="463" y="-2"/>
      <point x="633" y="167"/>
      <point x="676" y="368" type="curve" smooth="yes"/>
      <point x="712" y="540"/>
      <point x="638" y="682"/>
      <point x="496" y="682" type="curve" smooth="yes"/>
      <point x="340" y="682"/>
      <point x="171" y="513"/>
      <point x="128" y="312" type="curve" smooth="yes"/>
      <point x="92" y="142"/>
      <point x="164" y="-2"/>
      <point x="307" y="-2" type="curve" smooth="yes"/>
    </contour>
    <contour>
      <point x="610" y="649"/>
      <point x="671" y="508"/>
      <point x="641" y="364" type="curve" smooth="yes"/>
      <point x="602" y="183"/>
      <point x="446" y="31"/>
      <point x="314" y="31" type="curve" smooth="yes"/>
      <point x="191" y="31"/>
      <point x="129" y="159"/>
      <point x="162" y="312" type="curve" smooth="yes"/>
      <point x="202" y="500"/>
      <point x="350" y="649"/>
      <point x="481" y="649" type="curve" smooth="yes"/>
    </contour>
  </outline>
</glyph>
<glyph name="Q" format="1">
  <advance width="704"/>
  <unicode hex="0051"/>
  <outline>
    <contour>
      <point x="557" y="83" type="line"/>
      <point x="647" y="158"/>
      <point x="716" y="261"/>
      <point x="739" y="367" type="curve" smooth="yes"/>
      <point x="775" y="537"/>
      <point x="687" y="680"/>
      <point x="525" y="680" type="curve" smooth="yes"/>
      <point x="349" y="680"/>
      <point x="160" y="512"/>
      <point x="117" y="310" type="curve" smooth="yes"/>
      <point x="81" y="141"/>
      <point x="169" y="-2"/>
      <point x="332" y="-2" type="curve" smooth="yes"/>
      <point x="392" y="-2"/>
      <point x="459" y="21"/>
      <point x="522" y="60" type="curve"/>
      <point x="628" y="-22" type="line" smooth="yes"/>
      <point x="632" y="-25"/>
      <point x="635" y="-25"/>
      <point x="638" y="-25" type="curve" smooth="yes"/>
      <point x="647" y="-25"/>
      <point x="658" y="-19"/>
      <point x="661" y="-7" type="curve"/>
      <point x="662" y="-1"/>
      <point x="662" y="5"/>
      <point x="656" y="9" type="curve"/>
    </contour>
    <contour>
      <point x="201" y="33"/>
      <point x="127" y="157"/>
      <point x="160" y="314" type="curve" smooth="yes"/>
      <point x="199" y="498"/>
      <point x="364" y="645"/>
      <point x="510" y="645" type="curve" smooth="yes"/>
      <point x="653" y="645"/>
      <point x="726" y="507"/>
      <point x="696" y="364" type="curve" smooth="yes"/>
      <point x="675" y="264"/>
      <point x="608" y="169"/>
      <point x="530" y="105" type="curve"/>
      <point x="440" y="174" type="line"/>
      <point x="438" y="176"/>
      <point x="433" y="177"/>
      <point x="429" y="177" type="curve" smooth="yes"/>
      <point x="420" y="177"/>
      <point x="410" y="169"/>
      <point x="408" y="159" type="curve"/>
      <point x="407" y="152"/>
      <point x="409" y="146"/>
      <point x="413" y="143" type="curve" smooth="yes"/>
      <point x="494" y="81" type="line"/>
      <point x="437" y="50"/>
      <point x="385" y="33"/>
      <point x="340" y="33" type="curve" smooth="yes"/>
    </contour>
  </outline>
</glyph>
<glyph name="W" format="1">
  <advance width="857"/>
  <unicode hex="0057"/>
  <outline>
    <contour>
      <point x="186" y="668" type="line"/>
      <point x="186" y="676"/>
      <point x="181" y="681"/>
      <point x="172" y="681" type="curve" smooth="yes"/>
      <point x="162" y="681"/>
      <point x="153" y="674"/>
      <point x="151" y="664" type="curve"/>
      <point x="150" y="661"/>
      <point x="150" y="657"/>
      <point x="151" y="644" type="curve" smooth="yes"/>
      <point x="209" y="12" type="line"/>
      <point x="209" y="4"/>
      <point x="216" y="0"/>
      <point x="223" y="0" type="curve" smooth="yes"/>
      <point x="232" y="0"/>
      <point x="238" y="3"/>
      <point x="243" y="12" type="curve" smooth="yes"/>
      <point x="557" y="601" type="line"/>
      <point x="594" y="12" type="line"/>
      <point x="594" y="4"/>
      <point x="600" y="0"/>
      <point x="610" y="0" type="curve" smooth="yes"/>
      <point x="619" y="0"/>
      <point x="626" y="5"/>
      <point x="629" y="11" type="curve"/>
      <point x="996" y="653" type="line"/>
      <point x="998" y="656"/>
      <point x="1000" y="660"/>
      <point x="1001" y="665" type="curve"/>
      <point x="1002" y="672"/>
      <point x="998" y="681"/>
      <point x="986" y="681" type="curve" smooth="yes"/>
      <point x="977" y="681"/>
      <point x="970" y="677"/>
      <point x="964" y="667" type="curve" smooth="yes"/>
      <point x="627" y="79" type="line"/>
      <point x="590" y="668" type="line"/>
      <point x="590" y="676"/>
      <point x="585" y="681"/>
      <point x="577" y="681" type="curve" smooth="yes"/>
      <point x="569" y="681"/>
      <point x="561" y="677"/>
      <point x="557" y="669" type="curve" smooth="yes"/>
      <point x="240" y="78" type="line"/>
    </contour>
  </outline>
</glyph>
<glyph name="X" format="1">
  <advance width="671"/>
  <unicode hex="0058"/>
  <outline>
    <contour>
      <point x="593" y="6" type="line" smooth="yes"/>
      <point x="596" y="1"/>
      <point x="601" y="0"/>
      <point x="606" y="0" type="curve" smooth="yes"/>
      <point x="615" y="0"/>
      <point x="624" y="8"/>
      <point x="627" y="19" type="curve"/>
      <point x="627" y="23"/>
      <point x="627" y="27"/>
      <point x="626" y="30" type="curve"/>
      <point x="442" y="345" type="line"/>
      <point x="763" y="650" type="line" smooth="yes"/>
      <point x="768" y="655"/>
      <point x="770" y="659"/>
      <point x="771" y="664" type="curve" smooth="yes"/>
      <point x="773" y="673"/>
      <point x="765" y="681"/>
      <point x="755" y="681" type="curve" smooth="yes"/>
      <point x="750" y="681"/>
      <point x="745" y="680"/>
      <point x="740" y="675" type="curve" smooth="yes"/>
      <point x="424" y="375" type="line"/>
      <point x="250" y="675" type="line" smooth="yes"/>
      <point x="247" y="680"/>
      <point x="242" y="681"/>
      <point x="237" y="681" type="curve" smooth="yes"/>
      <point x="227" y="681"/>
      <point x="216" y="673"/>
      <point x="214" y="664" type="curve" smooth="yes"/>
      <point x="213" y="659"/>
      <point x="215" y="654"/>
      <point x="216" y="651" type="curve"/>
      <point x="395" y="346" type="line"/>
      <point x="63" y="31" type="line"/>
      <point x="59" y="28"/>
      <point x="56" y="23"/>
      <point x="56" y="19" type="curve"/>
      <point x="53" y="9"/>
      <point x="60" y="0"/>
      <point x="71" y="0" type="curve" smooth="yes"/>
      <point x="76" y="0"/>
      <point x="82" y="2"/>
      <point x="86" y="6" type="curve" smooth="yes"/>
      <point x="411" y="316" type="line"/>
    </contour>
  </outline>
</glyph>
<glyph name="Y" format="1">
  <advance width="583"/>
  <unicode hex="0059"/>
  <outline>
    <contour>
      <point x="709" y="681"/>
      <point x="703" y="678"/>
      <point x="698" y="672" type="curve" smooth="yes"/>
      <point x="356" y="246" type="line"/>
      <point x="197" y="672" type="line"/>
      <point x="196" y="678"/>
      <point x="190" y="681"/>
      <point x="185" y="681" type="curve" smooth="yes"/>
      <point x="175" y="681"/>
      <point x="164" y="675"/>
      <point x="162" y="664" type="curve" smooth="yes"/>
      <point x="161" y="659"/>
      <point x="162" y="653"/>
      <point x="163" y="649" type="curve"/>
      <point x="326" y="210" type="line"/>
      <point x="182" y="32" type="line" smooth="yes"/>
      <point x="178" y="27"/>
      <point x="175" y="23"/>
      <point x="174" y="17" type="curve"/>
      <point x="172" y="9"/>
      <point x="179" y="0"/>
      <point x="191" y="0" type="curve" smooth="yes"/>
      <point x="196" y="0"/>
      <point x="201" y="2"/>
      <point x="206" y="9" type="curve"/>
      <point x="720" y="646" type="line" smooth="yes"/>
      <point x="728" y="656"/>
      <point x="730" y="660"/>
      <point x="731" y="664" type="curve"/>
      <point x="733" y="674"/>
      <point x="725" y="681"/>
      <point x="715" y="681" type="curve" smooth="yes"/>
    </contour>
  </outline>
</glyph>
<glyph name="backslash" format="1">
  <advance width="535"/>
  <unicode hex="005C"/>
  <outline>
    <contour>
      <point x="443" y="6" type="line"/>
      <point x="445" y="-1"/>
      <point x="450" y="-2"/>
      <point x="456" y="-2" type="curve" smooth="yes"/>
      <point x="465" y="-2"/>
      <point x="477" y="6"/>
      <point x="479" y="17" type="curve"/>
      <point x="480" y="19"/>
      <point x="480" y="24"/>
      <point x="478" y="29" type="curve"/>
      <point x="252" y="692" type="line" smooth="yes"/>
      <point x="250" y="698"/>
      <point x="244" y="700"/>
      <point x="238" y="700" type="curve" smooth="yes"/>
      <point x="226" y="700"/>
      <point x="218" y="692"/>
      <point x="215" y="680" type="curve"/>
      <point x="214" y="677"/>
      <point x="215" y="674"/>
      <point x="215" y="672" type="curve"/>
    </contour>
  </outline>
</glyph>
<glyph name="f" format="1">
  <advance width="361"/>
  <unicode hex="0066"/>
  <outline>
    <contour>
      <point x="143" y="501" type="line" smooth="yes"/>
      <point x="136" y="501"/>
      <point x="127" y="494"/>
      <point x="125" y="485" type="curve"/>
      <point x="122" y="475"/>
      <point x="129" y="468"/>
      <point x="138" y="468" type="curve" smooth="yes"/>
      <point x="227" y="468" type="line"/>
      <point x="131" y="17" type="line" smooth="yes"/>
      <point x="129" y="7"/>
      <point x="136" y="0"/>
      <point x="146" y="0" type="curve" smooth="yes"/>
      <point x="157" y="0"/>
      <point x="166" y="7"/>
      <point x="168" y="17" type="curve" smooth="yes"/>
      <point x="264" y="468" type="line"/>
      <point x="418" y="468" type="line" smooth="yes"/>
      <point x="427" y="468"/>
      <point x="435" y="475"/>
      <point x="438" y="485" type="curve"/>
      <point x="439" y="493"/>
      <point x="433" y="500"/>
      <point x="425" y="500" type="curve" smooth="yes"/>
      <point x="271" y="501" type="line"/>
      <point x="302" y="646"/>
      <point x="347" y="665"/>
      <point x="480" y="665" type="curve" smooth="yes"/>
      <point x="492" y="665"/>
      <point x="500" y="673"/>
      <point x="502" y="683" type="curve"/>
      <point x="504" y="696"/>
      <point x="491" y="699"/>
      <point x="475" y="699" type="curve" smooth="yes"/>
      <point x="335" y="699"/>
      <point x="266" y="650"/>
      <point x="234" y="501" type="curve"/>
    </contour>
  </outline>
</glyph>
<glyph name="g" format="1">
  <advance width="511"/>
  <unicode hex="0067"/>
  <outline>
    <contour>
      <point x="106" y="-184"/>
      <point x="150" y="-193"/>
      <point x="198" y="-193" type="curve" smooth="yes"/>
      <point x="313" y="-193"/>
      <point x="412" y="-130"/>
      <point x="444" y="9" type="curve" smooth="yes"/>
      <point x="558" y="492" type="line" smooth="yes"/>
      <point x="561" y="507"/>
      <point x="553" y="512"/>
      <point x="547" y="512" type="curve" smooth="yes"/>
      <point x="526" y="512"/>
      <point x="521" y="494"/>
      <point x="513" y="458" type="curve"/>
      <point x="486" y="481"/>
      <point x="442" y="500"/>
      <point x="396" y="500" type="curve" smooth="yes"/>
      <point x="261" y="500"/>
      <point x="132" y="374"/>
      <point x="104" y="241" type="curve" smooth="yes"/>
      <point x="75" y="105"/>
      <point x="131" y="-1"/>
      <point x="248" y="-1" type="curve" smooth="yes"/>
      <point x="312" y="-1"/>
      <point x="390" y="51"/>
      <point x="429" y="102" type="curve"/>
      <point x="407" y="14" type="line" smooth="yes"/>
      <point x="382" y="-89"/>
      <point x="328" y="-155"/>
      <point x="206" y="-155" type="curve" smooth="yes"/>
      <point x="153" y="-155"/>
      <point x="124" y="-149"/>
      <point x="108" y="-145" type="curve" smooth="yes"/>
      <point x="100" y="-143"/>
      <point x="91" y="-141"/>
      <point x="88" y="-141" type="curve" smooth="yes"/>
      <point x="77" y="-141"/>
      <point x="67" y="-149"/>
      <point x="65" y="-159" type="curve" smooth="yes"/>
      <point x="63" y="-168"/>
      <point x="67" y="-175"/>
      <point x="76" y="-177" type="curve" smooth="yes"/>
    </contour>
    <contour>
      <point x="468" y="268" type="line" smooth="yes"/>
      <point x="430" y="88"/>
      <point x="324" y="33"/>
      <point x="248" y="33" type="curve" smooth="yes"/>
      <point x="135" y="33"/>
      <point x="118" y="157"/>
      <point x="135" y="237" type="curve" smooth="yes"/>
      <point x="163" y="367"/>
      <point x="277" y="464"/>
      <point x="392" y="464" type="curve" smooth="yes"/>
      <point x="435" y="464"/>
      <point x="481" y="447"/>
      <point x="502" y="424" type="curve"/>
    </contour>
  </outline>
</glyph>
<glyph name="h" format="1">
  <advance width="493"/>
  <unicode hex="0068"/>
  <outline>
    <contour>
      <point x="249" y="678" type="line" smooth="yes"/>
      <point x="251" y="689"/>
      <point x="246" y="698"/>
      <point x="234" y="698" type="curve" smooth="yes"/>
      <point x="224" y="698"/>
      <point x="214" y="689"/>
      <point x="212" y="678" type="curve" smooth="yes"/>
      <point x="71" y="18" type="line" smooth="yes"/>
      <point x="69" y="7"/>
      <point x="75" y="-1"/>
      <point x="85" y="-1" type="curve" smooth="yes"/>
      <point x="96" y="-1"/>
      <point x="106" y="6"/>
      <point x="109" y="20" type="curve" smooth="yes"/>
      <point x="145" y="191" type="line" smooth="yes"/>
      <point x="152" y="225"/>
      <point x="165" y="261"/>
      <point x="183" y="288" type="curve" smooth="yes"/>
      <point x="209" y="326"/>
      <point x="324" y="466"/>
      <point x="418" y="466" type="curve" smooth="yes"/>
      <point x="460" y="466"/>
      <point x="506" y="431"/>
      <point x="446" y="150" type="curve" smooth="yes"/>
      <point x="437" y="108"/>
      <point x="429" y="70"/>
      <point x="423" y="45" type="curve" smooth="yes"/>
      <point x="421" y="36"/>
      <point x="417" y="22"/>
      <point x="416" y="18" type="curve"/>
      <point x="414" y="8"/>
      <point x="422" y="0"/>
      <point x="430" y="0" type="curve" smooth="yes"/>
      <point x="441" y="0"/>
      <point x="448" y="8"/>
      <point x="452" y="19" type="curve"/>
      <point x="461" y="50"/>
      <point x="470" y="91"/>
      <point x="484" y="158" type="curve" smooth="yes"/>
      <point x="533" y="387"/>
      <point x="525" y="502"/>
      <point x="430" y="502" type="curve" smooth="yes"/>
      <point x="348" y="502"/>
      <point x="225" y="394"/>
      <point x="171" y="311" type="curve"/>
    </contour>
  </outline>
</glyph>
<glyph name="i" format="1">
  <advance width="184"/>
  <unicode hex="0069"/>
  <outline>
    <contour>
      <point x="218" y="476" type="line"/>
      <point x="220" y="487"/>
      <point x="213" y="496"/>
      <point x="202" y="496" type="curve" smooth="yes"/>
      <point x="192" y="496"/>
      <point x="180" y="487"/>
      <point x="178" y="476" type="curve"/>
      <point x="75" y="20" type="line"/>
      <point x="72" y="9"/>
      <point x="80" y="0"/>
      <point x="91" y="0" type="curve" smooth="yes"/>
      <point x="101" y="0"/>
      <point x="112" y="9"/>
      <point x="115" y="20" type="curve"/>
    </contour>
    <contour>
      <point x="236" y="610"/>
      <point x="246" y="616"/>
      <point x="249" y="627" type="curve"/>
      <point x="259" y="670" type="line" smooth="yes"/>
      <point x="261" y="679"/>
      <point x="255" y="689"/>
      <point x="245" y="689" type="curve" smooth="yes"/>
      <point x="235" y="689"/>
      <point x="224" y="680"/>
      <point x="222" y="671" type="curve" smooth="yes"/>
      <point x="212" y="628" type="line" smooth="yes"/>
      <point x="210" y="618"/>
      <point x="217" y="610"/>
      <point x="226" y="610" type="curve" smooth="yes"/>
    </contour>
  </outline>
</glyph>
<glyph name="j" format="1">
  <advance width="323"/>
  <unicode hex="006A"/>
  <outline>
    <contour>
      <point x="355" y="483" type="line" smooth="yes"/>
      <point x="358" y="497"/>
      <point x="349" y="502"/>
      <point x="339" y="502" type="curve" smooth="yes"/>
      <point x="327" y="502"/>
      <point x="317" y="493"/>
      <point x="315" y="482" type="curve" smooth="yes"/>
      <point x="216" y="-18" type="line" smooth="yes"/>
      <point x="211" y="-42"/>
      <point x="183" y="-156"/>
      <point x="108" y="-156" type="curve" smooth="yes"/>
      <point x="53" y="-156"/>
      <point x="31" y="-87"/>
      <point x="22" y="-36" type="curve"/>
      <point x="19" y="-24"/>
      <point x="14" y="-21"/>
      <point x="6" y="-21" type="curve" smooth="yes"/>
      <point x="-4" y="-21"/>
      <point x="-14" y="-28"/>
      <point x="-17" y="-38" type="curve"/>
      <point x="-17" y="-42"/>
      <point x="-17" y="-44"/>
      <point x="-16" y="-47" type="curve"/>
      <point x="-11" y="-73"/>
      <point x="10" y="-189"/>
      <point x="101" y="-189" type="curve" smooth="yes"/>
      <point x="197" y="-189"/>
      <point x="243" y="-75"/>
      <point x="255" y="-13" type="curve" smooth="yes"/>
    </contour>
    <contour>
      <point x="382" y="698"/>
      <point x="372" y="695"/>
      <point x="369" y="685" type="curve"/>
      <point x="352" y="635" type="line"/>
      <point x="350" y="627"/>
      <point x="355" y="618"/>
      <point x="366" y="618" type="curve" smooth="yes"/>
      <point x="376" y="618"/>
      <point x="386" y="623"/>
      <point x="389" y="633" type="curve" smooth="yes"/>
      <point x="403" y="676" type="line" smooth="yes"/>
      <point x="408" y="690"/>
      <point x="403" y="698"/>
      <point x="389" y="698" type="curve" smooth="yes"/>
    </contour>
  </outline>
</glyph>
<glyph name="k" format="1">
  <advance width="484"/>
  <unicode hex="006B"/>
  <outline>
    <contour>
      <point x="363" y="344"/>
      <point x="469" y="432"/>
      <point x="527" y="491" type="curve" smooth="yes"/>
      <point x="529" y="493"/>
      <point x="532" y="497"/>
      <point x="533" y="501" type="curve"/>
      <point x="535" y="511"/>
      <point x="529" y="519"/>
      <point x="519" y="519" type="curve" smooth="yes"/>
      <point x="513" y="519"/>
      <point x="506" y="516"/>
      <point x="502" y="511" type="curve"/>
      <point x="400" y="405"/>
      <point x="233" y="279"/>
      <point x="155" y="235" type="curve"/>
      <point x="249" y="678" type="line" smooth="yes"/>
      <point x="251" y="689"/>
      <point x="246" y="698"/>
      <point x="234" y="698" type="curve" smooth="yes"/>
      <point x="224" y="698"/>
      <point x="214" y="690"/>
      <point x="212" y="680" type="curve" smooth="yes"/>
      <point x="74" y="19" type="line"/>
      <point x="71" y="8"/>
      <point x="78" y="0"/>
      <point x="88" y="0" type="curve" smooth="yes"/>
      <point x="99" y="0"/>
      <point x="108" y="8"/>
      <point x="111" y="19" type="curve"/>
      <point x="149" y="202" type="line"/>
      <point x="180" y="218"/>
      <point x="225" y="247"/>
      <point x="275" y="281" type="curve"/>
      <point x="300" y="241"/>
      <point x="382" y="96"/>
      <point x="429" y="9" type="curve"/>
      <point x="432" y="4"/>
      <point x="436" y="2"/>
      <point x="443" y="2" type="curve" smooth="yes"/>
      <point x="454" y="2"/>
      <point x="463" y="12"/>
      <point x="465" y="20" type="curve"/>
      <point x="466" y="27"/>
      <point x="464" y="31"/>
      <point x="462" y="35" type="curve"/>
      <point x="433" y="88"/>
      <point x="380" y="177"/>
      <point x="306" y="301" type="curve"/>
    </contour>
  </outline>
</glyph>
<glyph name="l" format="1">
  <advance width="216"/>
  <unicode hex="006C"/>
  <outline>
    <contour>
      <point x="273" y="680" type="line" smooth="yes"/>
      <point x="275" y="690"/>
      <point x="268" y="698"/>
      <point x="258" y="698" type="curve" smooth="yes"/>
      <point x="248" y="698"/>
      <point x="237" y="690"/>
      <point x="235" y="680" type="curve" smooth="yes"/>
      <point x="94" y="16" type="line" smooth="yes"/>
      <point x="92" y="7"/>
      <point x="101" y="0"/>
      <point x="110" y="0" type="curve" smooth="yes"/>
      <point x="119" y="0"/>
      <point x="130" y="7"/>
      <point x="132" y="16" type="curve" smooth="yes"/>
    </contour>
  </outline>
</glyph>
<glyph name="m" format="1">
  <advance width="803"/>
  <unicode hex="006D"/>
  <outline>
    <contour>
      <point x="679" y="512"/>
      <point x="579" y="467"/>
      <point x="519" y="382" type="curve"/>
      <point x="525" y="491"/>
      <point x="468" y="512"/>
      <point x="421" y="512" type="curve" smooth="yes"/>
      <point x="353" y="512"/>
      <point x="224" y="416"/>
      <point x="174" y="339" type="curve"/>
      <point x="204" y="480" type="line" smooth="yes"/>
      <point x="206" y="491"/>
      <point x="200" y="499"/>
      <point x="189" y="499" type="curve" smooth="yes"/>
      <point x="179" y="499"/>
      <point x="169" y="491"/>
      <point x="167" y="480" type="curve" smooth="yes"/>
      <point x="68" y="18" type="line" smooth="yes"/>
      <point x="66" y="8"/>
      <point x="73" y="0"/>
      <point x="83" y="0" type="curve" smooth="yes"/>
      <point x="94" y="0"/>
      <point x="103" y="8"/>
      <point x="105" y="18" type="curve" smooth="yes"/>
      <point x="156" y="256" type="line" smooth="yes"/>
      <point x="161" y="278"/>
      <point x="171" y="298"/>
      <point x="181" y="310" type="curve" smooth="yes"/>
      <point x="277" y="425"/>
      <point x="367" y="481"/>
      <point x="414" y="481" type="curve" smooth="yes"/>
      <point x="453" y="481"/>
      <point x="503" y="467"/>
      <point x="475" y="338" type="curve" smooth="yes"/>
      <point x="407" y="18" type="line" smooth="yes"/>
      <point x="405" y="8"/>
      <point x="413" y="0"/>
      <point x="423" y="0" type="curve" smooth="yes"/>
      <point x="433" y="0"/>
      <point x="443" y="8"/>
      <point x="445" y="18" type="curve" smooth="yes"/>
      <point x="502" y="284" type="line" smooth="yes"/>
      <point x="528" y="408"/>
      <point x="666" y="481"/>
      <point x="726" y="481" type="curve" smooth="yes"/>
      <point x="766" y="481"/>
      <point x="817" y="467"/>
      <point x="789" y="338" type="curve" smooth="yes"/>
      <point x="721" y="18" type="line" smooth="yes"/>
      <point x="719" y="8"/>
      <point x="726" y="0"/>
      <point x="737" y="0" type="curve" smooth="yes"/>
      <point x="747" y="0"/>
      <point x="756" y="8"/>
      <point x="758" y="18" type="curve" smooth="yes"/>
      <point x="825" y="330" type="line" smooth="yes"/>
      <point x="857" y="480"/>
      <point x="792" y="512"/>
      <point x="732" y="512" type="curve" smooth="yes"/>
    </contour>
  </outline>
</glyph>
<glyph name="o" format="1">
  <advance width="525"/>
  <unicode hex="006F"/>
  <outline>
    <contour>
      <point x="378" y="0"/>
      <point x="510" y="123"/>
      <point x="541" y="271" type="curve" smooth="yes"/>
      <point x="567" y="395"/>
      <point x="503" y="500"/>
      <point x="390" y="500" type="curve" smooth="yes"/>
      <point x="264" y="500"/>
      <point x="131" y="376"/>
      <point x="100" y="229" type="curve" smooth="yes"/>
      <point x="73" y="103"/>
      <point x="138" y="0"/>
      <point x="252" y="0" type="curve" smooth="yes"/>
    </contour>
    <contour>
      <point x="472" y="471"/>
      <point x="524" y="375"/>
      <point x="501" y="266" type="curve" smooth="yes"/>
      <point x="474" y="140"/>
      <point x="358" y="29"/>
      <point x="258" y="29" type="curve" smooth="yes"/>
      <point x="161" y="29"/>
      <point x="116" y="123"/>
      <point x="139" y="231" type="curve" smooth="yes"/>
      <point x="166" y="358"/>
      <point x="277" y="471"/>
      <point x="379" y="471" type="curve" smooth="yes"/>
    </contour>
  </outline>
</glyph>
<glyph name="p" format="1">
  <advance width="510"/>
  <unicode hex="0070"/>
  <outline>
    <contour>
      <point x="328" y="500"/>
      <point x="254" y="462"/>
      <point x="193" y="415" type="curve"/>
      <point x="207" y="480" type="line" smooth="yes"/>
      <point x="209" y="491"/>
      <point x="203" y="500"/>
      <point x="192" y="500" type="curve" smooth="yes"/>
      <point x="182" y="500"/>
      <point x="172" y="491"/>
      <point x="170" y="480" type="curve" smooth="yes"/>
      <point x="28" y="-184" type="line" smooth="yes"/>
      <point x="26" y="-195"/>
      <point x="32" y="-203"/>
      <point x="42" y="-203" type="curve" smooth="yes"/>
      <point x="53" y="-203"/>
      <point x="63" y="-195"/>
      <point x="65" y="-184" type="curve" smooth="yes"/>
      <point x="113" y="42" type="line"/>
      <point x="148" y="27"/>
      <point x="199" y="8"/>
      <point x="252" y="8" type="curve" smooth="yes"/>
      <point x="427" y="8"/>
      <point x="503" y="163"/>
      <point x="527" y="277" type="curve" smooth="yes"/>
      <point x="549" y="381"/>
      <point x="525" y="495"/>
      <point x="417" y="500" type="curve"/>
    </contour>
    <contour>
      <point x="203" y="47"/>
      <point x="143" y="76"/>
      <point x="123" y="86" type="curve"/>
      <point x="183" y="371" type="line"/>
      <point x="208" y="399"/>
      <point x="288" y="470"/>
      <point x="402" y="470" type="curve" smooth="yes"/>
      <point x="508" y="470"/>
      <point x="510" y="346"/>
      <point x="495" y="277" type="curve" smooth="yes"/>
      <point x="468" y="146"/>
      <point x="401" y="47"/>
      <point x="266" y="47" type="curve" smooth="yes"/>
    </contour>
  </outline>
</glyph>
<glyph name="q" format="1">
  <advance width="504"/>
  <unicode hex="0071"/>
  <outline>
    <contour>
      <point x="350" y="-176" type="line" smooth="yes"/>
      <point x="346" y="-191"/>
      <point x="352" y="-197"/>
      <point x="363" y="-197" type="curve" smooth="yes"/>
      <point x="372" y="-197"/>
      <point x="382" y="-190"/>
      <point x="385" y="-177" type="curve" smooth="yes"/>
      <point x="553" y="501" type="line"/>
      <point x="555" y="511"/>
      <point x="549" y="519"/>
      <point x="539" y="519" type="curve" smooth="yes"/>
      <point x="530" y="519"/>
      <point x="520" y="511"/>
      <point x="518" y="501" type="curve" smooth="yes"/>
      <point x="513" y="479" type="line"/>
      <point x="478" y="486"/>
      <point x="450" y="489"/>
      <point x="427" y="489" type="curve" smooth="yes"/>
      <point x="265" y="489"/>
      <point x="132" y="380"/>
      <point x="96" y="209" type="curve" smooth="yes"/>
      <point x="70" y="88"/>
      <point x="134" y="-6"/>
      <point x="259" y="-6" type="curve" smooth="yes"/>
      <point x="350" y="-6"/>
      <point x="407" y="56"/>
      <point x="407" y="56" type="curve"/>
    </contour>
    <contour>
      <point x="165" y="25"/>
      <point x="105" y="100"/>
      <point x="127" y="207" type="curve" smooth="yes"/>
      <point x="162" y="367"/>
      <point x="280" y="457"/>
      <point x="421" y="457" type="curve" smooth="yes"/>
      <point x="446" y="457"/>
      <point x="473" y="455"/>
      <point x="505" y="450" type="curve"/>
      <point x="434" y="159" type="line" smooth="yes"/>
      <point x="413" y="73"/>
      <point x="345" y="25"/>
      <point x="256" y="25" type="curve" smooth="yes"/>
    </contour>
  </outline>
</glyph>
<glyph name="t" format="1">
  <advance width="377"/>
  <unicode hex="0074"/>
  <outline>
    <contour>
      <point x="317" y="500" type="line"/>
      <point x="351" y="660" type="line" smooth="yes"/>
      <point x="353" y="670"/>
      <point x="348" y="679"/>
      <point x="336" y="679" type="curve" smooth="yes"/>
      <point x="326" y="679"/>
      <point x="315" y="670"/>
      <point x="313" y="660" type="curve" smooth="yes"/>
      <point x="279" y="500" type="line"/>
      <point x="149" y="500" type="line" smooth="yes"/>
      <point x="138" y="500"/>
      <point x="126" y="493"/>
      <point x="124" y="481" type="curve" smooth="yes"/>
      <point x="122" y="471"/>
      <point x="129" y="463"/>
      <point x="139" y="463" type="curve" smooth="yes"/>
      <point x="271" y="463" type="line"/>
      <point x="176" y="17" type="line" smooth="yes"/>
      <point x="174" y="7"/>
      <point x="181" y="-1"/>
      <point x="191" y="-1" type="curve" smooth="yes"/>
      <point x="201" y="-1"/>
      <point x="212" y="7"/>
      <point x="214" y="17" type="curve" smooth="yes"/>
      <point x="309" y="463" type="line"/>
      <point x="442" y="463" type="line" smooth="yes"/>
      <point x="453" y="463"/>
      <point x="463" y="471"/>
      <point x="465" y="481" type="curve" smooth="yes"/>
      <point x="467" y="492"/>
      <point x="461" y="500"/>
      <point x="450" y="500" type="curve" smooth="yes"/>
    </contour>
  </outline>
</glyph>
<glyph name="u" format="1">
  <advance width="502"/>
  <unicode hex="0075"/>
  <outline>
    <contour>
      <point x="386" y="89"/>
      <point x="318" y="27"/>
      <point x="221" y="27" type="curve" smooth="yes"/>
      <point x="107" y="27"/>
      <point x="137" y="162"/>
      <point x="165" y="294" type="curve" smooth="yes"/>
      <point x="181" y="370"/>
      <point x="202" y="427"/>
      <point x="214" y="462" type="curve" smooth="yes"/>
      <point x="217" y="471"/>
      <point x="219" y="479"/>
      <point x="220" y="483" type="curve"/>
      <point x="223" y="493"/>
      <point x="216" y="500"/>
      <point x="206" y="500" type="curve" smooth="yes"/>
      <point x="197" y="500"/>
      <point x="189" y="496"/>
      <point x="181" y="474" type="curve" smooth="yes"/>
      <point x="168" y="435"/>
      <point x="146" y="372"/>
      <point x="130" y="293" type="curve" smooth="yes"/>
      <point x="99" y="144"/>
      <point x="67" y="-3"/>
      <point x="215" y="-3" type="curve" smooth="yes"/>
      <point x="292" y="-3"/>
      <point x="376" y="34"/>
      <point x="419" y="82" type="curve"/>
      <point x="407" y="24" type="line" smooth="yes"/>
      <point x="404" y="10"/>
      <point x="411" y="0"/>
      <point x="424" y="0" type="curve" smooth="yes"/>
      <point x="436" y="0"/>
      <point x="446" y="8"/>
      <point x="449" y="19" type="curve"/>
      <point x="547" y="483" type="line" smooth="yes"/>
      <point x="549" y="492"/>
      <point x="542" y="500"/>
      <point x="532" y="500" type="curve" smooth="yes"/>
      <point x="523" y="500"/>
      <point x="512" y="492"/>
      <point x="510" y="483" type="curve" smooth="yes"/>
      <point x="441" y="167" type="line" smooth="yes"/>
      <point x="436" y="143"/>
      <point x="428" y="127"/>
      <point x="415" y="115" type="curve" smooth="yes"/>
    </contour>
  </outline>
</glyph>
<glyph name="w" format="1">
  <advance width="584"/>
  <unicode hex="0077"/>
  <outline>
    <contour>
      <point x="141" y="61" type="line"/>
      <point x="148" y="483" type="line"/>
      <point x="149" y="494"/>
      <point x="143" y="500"/>
      <point x="133" y="500" type="curve" smooth="yes"/>
      <point x="124" y="500"/>
      <point x="114" y="492"/>
      <point x="112" y="481" type="curve"/>
      <point x="111" y="479"/>
      <point x="111" y="473"/>
      <point x="111" y="469" type="curve" smooth="yes"/>
      <point x="111" y="17" type="line"/>
      <point x="112" y="5"/>
      <point x="118" y="0"/>
      <point x="127" y="0" type="curve" smooth="yes"/>
      <point x="136" y="0"/>
      <point x="143" y="6"/>
      <point x="148" y="15" type="curve" smooth="yes"/>
      <point x="387" y="433" type="line"/>
      <point x="405" y="15" type="line"/>
      <point x="405" y="6"/>
      <point x="411" y="0"/>
      <point x="420" y="0" type="curve" smooth="yes"/>
      <point x="428" y="0"/>
      <point x="436" y="6"/>
      <point x="441" y="16" type="curve" smooth="yes"/>
      <point x="685" y="474" type="line"/>
      <point x="687" y="477"/>
      <point x="689" y="480"/>
      <point x="689" y="484" type="curve"/>
      <point x="691" y="493"/>
      <point x="685" y="499"/>
      <point x="674" y="499" type="curve" smooth="yes"/>
      <point x="666" y="499"/>
      <point x="657" y="493"/>
      <point x="652" y="483" type="curve" smooth="yes"/>
      <point x="433" y="61" type="line"/>
      <point x="420" y="481" type="line"/>
      <point x="420" y="495"/>
      <point x="414" y="500"/>
      <point x="404" y="500" type="curve" smooth="yes"/>
      <point x="393" y="500"/>
      <point x="385" y="494"/>
      <point x="380" y="486" type="curve"/>
    </contour>
  </outline>
</glyph>
<glyph name="x" format="1">
  <advance width="500"/>
  <unicode hex="0078"/>
  <outline>
    <contour>
      <point x="593" y="467" type="line"/>
      <point x="596" y="470"/>
      <point x="599" y="475"/>
      <point x="600" y="479" type="curve" smooth="yes"/>
      <point x="603" y="490"/>
      <point x="596" y="498"/>
      <point x="585" y="498" type="curve" smooth="yes"/>
      <point x="581" y="498"/>
      <point x="576" y="497"/>
      <point x="571" y="493" type="curve" smooth="yes"/>
      <point x="321" y="279" type="line"/>
      <point x="190" y="495" type="line"/>
      <point x="187" y="499"/>
      <point x="184" y="500"/>
      <point x="178" y="500" type="curve" smooth="yes"/>
      <point x="169" y="500"/>
      <point x="158" y="492"/>
      <point x="156" y="481" type="curve" smooth="yes"/>
      <point x="155" y="476"/>
      <point x="157" y="471"/>
      <point x="159" y="467" type="curve"/>
      <point x="290" y="258" type="line"/>
      <point x="24" y="33" type="line" smooth="yes"/>
      <point x="19" y="29"/>
      <point x="17" y="25"/>
      <point x="16" y="20" type="curve"/>
      <point x="13" y="9"/>
      <point x="20" y="1"/>
      <point x="29" y="1" type="curve" smooth="yes"/>
      <point x="34" y="1"/>
      <point x="39" y="2"/>
      <point x="44" y="6" type="curve" smooth="yes"/>
      <point x="310" y="234" type="line"/>
      <point x="447" y="6" type="line"/>
      <point x="449" y="2"/>
      <point x="454" y="0"/>
      <point x="461" y="0" type="curve" smooth="yes"/>
      <point x="471" y="0"/>
      <point x="480" y="8"/>
      <point x="483" y="19" type="curve"/>
      <point x="483" y="23"/>
      <point x="483" y="26"/>
      <point x="481" y="30" type="curve"/>
      <point x="342" y="255" type="line"/>
    </contour>
  </outline>
</glyph>
<glyph name="braceleft" format="1">
  <advance width="366"/>
  <unicode hex="007B"/>
  <outline>
    <contour>
      <point x="229" y="225" type="line" smooth="yes"/>
      <point x="241" y="280"/>
      <point x="221" y="326"/>
      <point x="189" y="354" type="curve"/>
      <point x="237" y="387"/>
      <point x="273" y="430"/>
      <point x="284" y="483" type="curve" smooth="yes"/>
      <point x="326" y="679" type="line" smooth="yes"/>
      <point x="342" y="754"/>
      <point x="416" y="778"/>
      <point x="457" y="786" type="curve"/>
      <point x="470" y="788"/>
      <point x="477" y="793"/>
      <point x="479" y="804" type="curve"/>
      <point x="482" y="816"/>
      <point x="473" y="823"/>
      <point x="462" y="821" type="curve" smooth="yes"/>
      <point x="400" y="810"/>
      <point x="309" y="769"/>
      <point x="290" y="679" type="curve" smooth="yes"/>
      <point x="248" y="482" type="line" smooth="yes"/>
      <point x="238" y="436"/>
      <point x="216" y="400"/>
      <point x="147" y="370" type="curve" smooth="yes"/>
      <point x="138" y="366"/>
      <point x="134" y="362"/>
      <point x="133" y="354" type="curve"/>
      <point x="131" y="347"/>
      <point x="133" y="342"/>
      <point x="141" y="338" type="curve"/>
      <point x="180" y="322"/>
      <point x="206" y="283"/>
      <point x="194" y="226" type="curve" smooth="yes"/>
      <point x="148" y="13" type="line" smooth="yes"/>
      <point x="129" y="-77"/>
      <point x="202" y="-118"/>
      <point x="260" y="-129" type="curve" smooth="yes"/>
      <point x="271" y="-131"/>
      <point x="282" y="-124"/>
      <point x="285" y="-112" type="curve"/>
      <point x="287" y="-101"/>
      <point x="282" y="-96"/>
      <point x="270" y="-94" type="curve"/>
      <point x="232" y="-86"/>
      <point x="168" y="-62"/>
      <point x="184" y="13" type="curve" smooth="yes"/>
    </contour>
  </outline>
</glyph>
<glyph name="braceright" format="1">
  <advance width="366"/>
  <unicode hex="007D"/>
  <outline>
    <contour>
      <point x="284" y="467" type="line" smooth="yes"/>
      <point x="272" y="412"/>
      <point x="292" y="366"/>
      <point x="324" y="338" type="curve"/>
      <point x="276" y="305"/>
      <point x="240" y="262"/>
      <point x="229" y="209" type="curve" smooth="yes"/>
      <point x="187" y="13" type="line" smooth="yes"/>
      <point x="171" y="-62"/>
      <point x="97" y="-86"/>
      <point x="57" y="-94" type="curve"/>
      <point x="43" y="-96"/>
      <point x="36" y="-101"/>
      <point x="34" y="-112" type="curve"/>
      <point x="31" y="-124"/>
      <point x="40" y="-131"/>
      <point x="51" y="-129" type="curve" smooth="yes"/>
      <point x="113" y="-118"/>
      <point x="204" y="-77"/>
      <point x="223" y="13" type="curve" smooth="yes"/>
      <point x="265" y="210" type="line" smooth="yes"/>
      <point x="275" y="256"/>
      <point x="298" y="292"/>
      <point x="366" y="322" type="curve" smooth="yes"/>
      <point x="375" y="326"/>
      <point x="379" y="330"/>
      <point x="380" y="338" type="curve"/>
      <point x="382" y="345"/>
      <point x="380" y="350"/>
      <point x="372" y="354" type="curve"/>
      <point x="333" y="370"/>
      <point x="307" y="409"/>
      <point x="320" y="466" type="curve" smooth="yes"/>
      <point x="365" y="679" type="line" smooth="yes"/>
      <point x="384" y="769"/>
      <point x="311" y="810"/>
      <point x="253" y="821" type="curve" smooth="yes"/>
      <point x="242" y="823"/>
      <point x="231" y="816"/>
      <point x="228" y="804" type="curve"/>
      <point x="226" y="793"/>
      <point x="231" y="788"/>
      <point x="244" y="786" type="curve"/>
      <point x="281" y="778"/>
      <point x="345" y="754"/>
      <point x="329" y="679" type="curve" smooth="yes"/>
    </contour>
  </outline>
</glyph>
<glyph name="asciitilde" format="1">
  <advance width="630"/>
  <unicode hex="007E"/>
  <outline>
    <contour>
      <point x="638" y="302"/>
      <point x="638" y="305"/>
      <point x="639" y="309" type="curve"/>
      <point x="641" y="319"/>
      <point x="636" y="326"/>
      <point x="627" y="326" type="curve" smooth="yes"/>
      <point x="619" y="326"/>
      <point x="611" y="320"/>
      <point x="602" y="306" type="curve" smooth="yes"/>
      <point x="578" y="266"/>
      <point x="525" y="192"/>
      <point x="464" y="192" type="curve" smooth="yes"/>
      <point x="425" y="192"/>
      <point x="409" y="219"/>
      <point x="386" y="262" type="curve" smooth="yes"/>
      <point x="365" y="301"/>
      <point x="343" y="346"/>
      <point x="283" y="346" type="curve" smooth="yes"/>
      <point x="212" y="346"/>
      <point x="154" y="286"/>
      <point x="115" y="220" type="curve"/>
      <point x="114" y="217"/>
      <point x="111" y="213"/>
      <point x="109" y="207" type="curve"/>
      <point x="108" y="199"/>
      <point x="114" y="192"/>
      <point x="124" y="192" type="curve" smooth="yes"/>
      <point x="134" y="192"/>
      <point x="140" y="197"/>
      <point x="144" y="205" type="curve" smooth="yes"/>
      <point x="165" y="248"/>
      <point x="216" y="311"/>
      <point x="276" y="311" type="curve" smooth="yes"/>
      <point x="315" y="311"/>
      <point x="332" y="284"/>
      <point x="353" y="242" type="curve" smooth="yes"/>
      <point x="374" y="201"/>
      <point x="397" y="156"/>
      <point x="457" y="156" type="curve" smooth="yes"/>
      <point x="544" y="156"/>
      <point x="607" y="248"/>
      <point x="634" y="296" type="curve"/>
    </contour>
  </outline>
</glyph>
<glyph name="cent" format="1">
  <advance width="546"/>
  <unicode hex="00A2"/>
  <outline>
    <contour>
      <point x="504" y="227"/>
      <point x="496" y="219"/>
      <point x="491" y="214" type="curve" smooth="yes"/>
      <point x="447" y="169"/>
      <point x="387" y="139"/>
      <point x="319" y="135" type="curve"/>
      <point x="423" y="572" type="line"/>
      <point x="471" y="568"/>
      <point x="507" y="547"/>
      <point x="529" y="510" type="curve" smooth="yes"/>
      <point x="532" y="505"/>
      <point x="536" y="504"/>
      <point x="541" y="504" type="curve" smooth="yes"/>
      <point x="550" y="504"/>
      <point x="559" y="512"/>
      <point x="561" y="521" type="curve" smooth="yes"/>
      <point x="568" y="553"/>
      <point x="489" y="604"/>
      <point x="431" y="602" type="curve"/>
      <point x="451" y="683" type="line" smooth="yes"/>
      <point x="453" y="692"/>
      <point x="448" y="699"/>
      <point x="439" y="699" type="curve" smooth="yes"/>
      <point x="431" y="699"/>
      <point x="422" y="694"/>
      <point x="420" y="684" type="curve"/>
      <point x="400" y="601" type="line"/>
      <point x="268" y="563"/>
      <point x="170" y="440"/>
      <point x="144" y="317" type="curve" smooth="yes"/>
      <point x="130" y="252"/>
      <point x="139" y="142"/>
      <point x="280" y="105" type="curve"/>
      <point x="259" y="17" type="line"/>
      <point x="257" y="7"/>
      <point x="263" y="0"/>
      <point x="272" y="0" type="curve" smooth="yes"/>
      <point x="280" y="0"/>
      <point x="288" y="6"/>
      <point x="290" y="15" type="curve" smooth="yes"/>
      <point x="311" y="104" type="line"/>
      <point x="391" y="104"/>
      <point x="468" y="143"/>
      <point x="517" y="196" type="curve"/>
      <point x="521" y="200"/>
      <point x="524" y="204"/>
      <point x="525" y="208" type="curve"/>
      <point x="527" y="219"/>
      <point x="521" y="227"/>
      <point x="511" y="227" type="curve" smooth="yes"/>
    </contour>
    <contour>
      <point x="193" y="387"/>
      <point x="265" y="529"/>
      <point x="391" y="568" type="curve"/>
      <point x="289" y="138" type="line"/>
      <point x="208" y="158"/>
      <point x="159" y="228"/>
      <point x="178" y="319" type="curve" smooth="yes"/>
    </contour>
  </outline>
</glyph>
<glyph name="currency" format="1">
  <advance width="507"/>
  <unicode hex="00A4"/>
  <outline>
    <contour>
      <point x="414" y="154" type="line"/>
      <point x="442" y="184"/>
      <point x="462" y="218"/>
      <point x="469" y="251" type="curve" smooth="yes"/>
      <point x="476" y="284"/>
      <point x="470" y="320"/>
      <point x="454" y="350" type="curve"/>
      <point x="553" y="432" type="line" smooth="yes"/>
      <point x="558" y="436"/>
      <point x="559" y="440"/>
      <point x="560" y="444" type="curve" smooth="yes"/>
      <point x="562" y="452"/>
      <point x="555" y="460"/>
      <point x="547" y="460" type="curve" smooth="yes"/>
      <point x="543" y="460"/>
      <point x="539" y="458"/>
      <point x="535" y="455" type="curve"/>
      <point x="436" y="373" type="line"/>
      <point x="410" y="395"/>
      <point x="380" y="406"/>
      <point x="345" y="406" type="curve" smooth="yes"/>
      <point x="312" y="406"/>
      <point x="276" y="395"/>
      <point x="242" y="373" type="curve"/>
      <point x="176" y="455" type="line"/>
      <point x="174" y="458"/>
      <point x="170" y="460"/>
      <point x="166" y="460" type="curve" smooth="yes"/>
      <point x="156" y="460"/>
      <point x="148" y="452"/>
      <point x="146" y="444" type="curve" smooth="yes"/>
      <point x="145" y="440"/>
      <point x="145" y="436"/>
      <point x="148" y="432" type="curve" smooth="yes"/>
      <point x="214" y="350" type="line"/>
      <point x="185" y="320"/>
      <point x="164" y="286"/>
      <point x="157" y="251" type="curve" smooth="yes"/>
      <point x="150" y="218"/>
      <point x="156" y="184"/>
      <point x="170" y="154" type="curve"/>
      <point x="72" y="74" type="line"/>
      <point x="69" y="71"/>
      <point x="66" y="67"/>
      <point x="65" y="63" type="curve"/>
      <point x="63" y="53"/>
      <point x="69" y="46"/>
      <point x="78" y="46" type="curve" smooth="yes"/>
      <point x="82" y="46"/>
      <point x="85" y="47"/>
      <point x="89" y="50" type="curve"/>
      <point x="187" y="130" type="line"/>
      <point x="213" y="108"/>
      <point x="246" y="95"/>
      <point x="279" y="95" type="curve" smooth="yes"/>
      <point x="315" y="95"/>
      <point x="351" y="108"/>
      <point x="386" y="130" type="curve"/>
      <point x="449" y="51" type="line"/>
      <point x="452" y="48"/>
      <point x="455" y="46"/>
      <point x="459" y="46" type="curve" smooth="yes"/>
      <point x="469" y="46"/>
      <point x="477" y="54"/>
      <point x="479" y="63" type="curve" smooth="yes"/>
      <point x="480" y="67"/>
      <point x="480" y="71"/>
      <point x="477" y="74" type="curve"/>
    </contour>
    <contour>
      <point x="205" y="320"/>
      <point x="272" y="374"/>
      <point x="338" y="374" type="curve" smooth="yes"/>
      <point x="407" y="374"/>
      <point x="451" y="320"/>
      <point x="436" y="251" type="curve" smooth="yes"/>
      <point x="421" y="182"/>
      <point x="354" y="127"/>
      <point x="285" y="127" type="curve" smooth="yes"/>
      <point x="219" y="127"/>
      <point x="175" y="182"/>
      <point x="190" y="251" type="curve" smooth="yes"/>
    </contour>
  </outline>
</glyph>
<glyph name="yen" format="1">
  <advance width="563"/>
  <unicode hex="00A5"/>
  <outline>
    <contour>
      <point x="638" y="674" type="line" smooth="yes"/>
      <point x="641" y="678"/>
      <point x="642" y="681"/>
      <point x="643" y="685" type="curve"/>
      <point x="645" y="695"/>
      <point x="637" y="702"/>
      <point x="627" y="702" type="curve" smooth="yes"/>
      <point x="621" y="702"/>
      <point x="614" y="699"/>
      <point x="609" y="692" type="curve" smooth="yes"/>
      <point x="351" y="350" type="line"/>
      <point x="253" y="691" type="line"/>
      <point x="252" y="697"/>
      <point x="245" y="700"/>
      <point x="239" y="700" type="curve" smooth="yes"/>
      <point x="228" y="700"/>
      <point x="217" y="691"/>
      <point x="215" y="681" type="curve"/>
      <point x="215" y="678"/>
      <point x="215" y="676"/>
      <point x="216" y="673" type="curve"/>
      <point x="312" y="336" type="line"/>
      <point x="197" y="336" type="line" smooth="yes"/>
      <point x="187" y="336"/>
      <point x="177" y="327"/>
      <point x="175" y="318" type="curve" smooth="yes"/>
      <point x="173" y="308"/>
      <point x="179" y="300"/>
      <point x="189" y="300" type="curve" smooth="yes"/>
      <point x="320" y="300" type="line"/>
      <point x="294" y="175" type="line"/>
      <point x="163" y="175" type="line" smooth="yes"/>
      <point x="153" y="175"/>
      <point x="143" y="167"/>
      <point x="141" y="157" type="curve" smooth="yes"/>
      <point x="139" y="148"/>
      <point x="145" y="140"/>
      <point x="155" y="140" type="curve" smooth="yes"/>
      <point x="286" y="140" type="line"/>
      <point x="261" y="19" type="line"/>
      <point x="258" y="8"/>
      <point x="265" y="0"/>
      <point x="276" y="0" type="curve" smooth="yes"/>
      <point x="286" y="0"/>
      <point x="295" y="8"/>
      <point x="298" y="19" type="curve"/>
      <point x="323" y="140" type="line"/>
      <point x="456" y="140" type="line" smooth="yes"/>
      <point x="465" y="140"/>
      <point x="475" y="148"/>
      <point x="477" y="157" type="curve" smooth="yes"/>
      <point x="479" y="167"/>
      <point x="473" y="175"/>
      <point x="464" y="175" type="curve" smooth="yes"/>
      <point x="331" y="175" type="line"/>
      <point x="357" y="300" type="line"/>
      <point x="490" y="300" type="line" smooth="yes"/>
      <point x="499" y="300"/>
      <point x="509" y="308"/>
      <point x="511" y="318" type="curve" smooth="yes"/>
      <point x="513" y="327"/>
      <point x="507" y="336"/>
      <point x="498" y="336" type="curve" smooth="yes"/>
      <point x="382" y="336" type="line"/>
    </contour>
  </outline>
</glyph>
<glyph name="ordfeminine" format="1">
  <advance width="240"/>
  <unicode hex="00AA"/>
  <outline>
    <contour>
      <point x="310" y="356"/>
      <point x="318" y="362"/>
      <point x="321" y="372" type="curve"/>
      <point x="379" y="650" type="line"/>
      <point x="365" y="662"/>
      <point x="328" y="675"/>
      <point x="289" y="675" type="curve" smooth="yes"/>
      <point x="196" y="675"/>
      <point x="125" y="577"/>
      <point x="107" y="493" type="curve" smooth="yes"/>
      <point x="91" y="418"/>
      <point x="127" y="362"/>
      <point x="191" y="362" type="curve" smooth="yes"/>
      <point x="224" y="362"/>
      <point x="253" y="372"/>
      <point x="292" y="395" type="curve"/>
      <point x="285" y="361"/>
      <point x="293" y="356"/>
      <point x="302" y="356" type="curve" smooth="yes"/>
    </contour>
    <contour>
      <point x="304" y="644"/>
      <point x="333" y="638"/>
      <point x="344" y="630" type="curve"/>
      <point x="298" y="428" type="line"/>
      <point x="284" y="419"/>
      <point x="238" y="392"/>
      <point x="199" y="392" type="curve" smooth="yes"/>
      <point x="141" y="392"/>
      <point x="129" y="449"/>
      <point x="139" y="495" type="curve" smooth="yes"/>
      <point x="152" y="556"/>
      <point x="203" y="644"/>
      <point x="286" y="644" type="curve" smooth="yes"/>
    </contour>
  </outline>
</glyph>
<glyph name="logicalnot" format="1">
  <advance width="470"/>
  <unicode hex="00AC"/>
  <outline>
    <contour>
      <point x="436" y="130"/>
      <point x="445" y="138"/>
      <point x="447" y="146" type="curve" smooth="yes"/>
      <point x="481" y="305" type="line"/>
      <point x="484" y="316"/>
      <point x="477" y="322"/>
      <point x="469" y="322" type="curve" smooth="yes"/>
      <point x="126" y="322" type="line" smooth="yes"/>
      <point x="118" y="322"/>
      <point x="108" y="315"/>
      <point x="106" y="305" type="curve"/>
      <point x="105" y="297"/>
      <point x="111" y="290"/>
      <point x="119" y="290" type="curve" smooth="yes"/>
      <point x="446" y="290" type="line"/>
      <point x="415" y="146" type="line" smooth="yes"/>
      <point x="413" y="138"/>
      <point x="418" y="130"/>
      <point x="428" y="130" type="curve" smooth="yes"/>
    </contour>
  </outline>
</glyph>
<glyph name="macron" format="1">
  <advance width="490"/>
  <unicode hex="00AF"/>
  <outline>
    <contour>
      <point x="491" y="625" type="line" smooth="yes"/>
      <point x="499" y="625"/>
      <point x="508" y="633"/>
      <point x="510" y="642" type="curve" smooth="yes"/>
      <point x="512" y="650"/>
      <point x="506" y="658"/>
      <point x="498" y="658" type="curve" smooth="yes"/>
      <point x="280" y="658" type="line" smooth="yes"/>
      <point x="272" y="658"/>
      <point x="263" y="650"/>
      <point x="261" y="642" type="curve" smooth="yes"/>
      <point x="259" y="633"/>
      <point x="265" y="625"/>
      <point x="273" y="625" type="curve" smooth="yes"/>
    </contour>
  </outline>
</glyph>
<glyph name="plusminus" format="1">
  <advance width="431"/>
  <unicode hex="00B1"/>
  <outline>
    <contour>
      <point x="261" y="281" type="line"/>
      <point x="235" y="158" type="line"/>
      <point x="233" y="150"/>
      <point x="240" y="142"/>
      <point x="250" y="142" type="curve" smooth="yes"/>
      <point x="258" y="142"/>
      <point x="267" y="149"/>
      <point x="269" y="158" type="curve" smooth="yes"/>
      <point x="295" y="281" type="line"/>
      <point x="420" y="281" type="line" smooth="yes"/>
      <point x="429" y="281"/>
      <point x="439" y="289"/>
      <point x="441" y="298" type="curve" smooth="yes"/>
      <point x="443" y="307"/>
      <point x="437" y="316"/>
      <point x="428" y="316" type="curve" smooth="yes"/>
      <point x="303" y="316" type="line"/>
      <point x="326" y="428" type="line" smooth="yes"/>
      <point x="328" y="437"/>
      <point x="323" y="445"/>
      <point x="314" y="445" type="curve" smooth="yes"/>
      <point x="302" y="445"/>
      <point x="294" y="437"/>
      <point x="292" y="428" type="curve" smooth="yes"/>
      <point x="269" y="316" type="line"/>
      <point x="145" y="316" type="line" smooth="yes"/>
      <point x="136" y="316"/>
      <point x="126" y="307"/>
      <point x="124" y="298" type="curve" smooth="yes"/>
      <point x="122" y="289"/>
      <point x="128" y="281"/>
      <point x="137" y="281" type="curve" smooth="yes"/>
    </contour>
    <contour>
      <point x="79" y="5"/>
      <point x="85" y="-1"/>
      <point x="94" y="-1" type="curve" smooth="yes"/>
      <point x="343" y="-1" type="line" smooth="yes"/>
      <point x="352" y="-1"/>
      <point x="361" y="6"/>
      <point x="363" y="17" type="curve"/>
      <point x="365" y="26"/>
      <point x="360" y="33"/>
      <point x="351" y="33" type="curve" smooth="yes"/>
      <point x="102" y="33" type="line" smooth="yes"/>
      <point x="93" y="33"/>
      <point x="83" y="26"/>
      <point x="81" y="17" type="curve"/>
    </contour>
  </outline>
</glyph>
<glyph name="twosuperior" format="1">
  <advance width="230"/>
  <unicode hex="00B2"/>
  <outline>
    <contour>
      <point x="311" y="462" type="line" smooth="yes"/>
      <point x="318" y="462"/>
      <point x="326" y="468"/>
      <point x="327" y="475" type="curve"/>
      <point x="330" y="485"/>
      <point x="324" y="490"/>
      <point x="317" y="490" type="curve" smooth="yes"/>
      <point x="139" y="490" type="line"/>
      <point x="153" y="557"/>
      <point x="216" y="602"/>
      <point x="268" y="630" type="curve" smooth="yes"/>
      <point x="317" y="655"/>
      <point x="368" y="688"/>
      <point x="380" y="747" type="curve" smooth="yes"/>
      <point x="393" y="807"/>
      <point x="349" y="840"/>
      <point x="295" y="840" type="curve" smooth="yes"/>
      <point x="242" y="840"/>
      <point x="196" y="805"/>
      <point x="175" y="786" type="curve"/>
      <point x="170" y="782"/>
      <point x="168" y="779"/>
      <point x="167" y="775" type="curve"/>
      <point x="166" y="767"/>
      <point x="171" y="761"/>
      <point x="178" y="761" type="curve" smooth="yes"/>
      <point x="184" y="761"/>
      <point x="188" y="766"/>
      <point x="201" y="776" type="curve" smooth="yes"/>
      <point x="218" y="789"/>
      <point x="255" y="813"/>
      <point x="290" y="813" type="curve" smooth="yes"/>
      <point x="336" y="813"/>
      <point x="360" y="782"/>
      <point x="352" y="747" type="curve" smooth="yes"/>
      <point x="345" y="713"/>
      <point x="321" y="690"/>
      <point x="290" y="672" type="curve" smooth="yes"/>
      <point x="184" y="613"/>
      <point x="127" y="572"/>
      <point x="106" y="475" type="curve"/>
      <point x="104" y="462" type="line"/>
    </contour>
  </outline>
</glyph>
<glyph name="threesuperior" format="1">
  <advance width="226"/>
  <unicode hex="00B3"/>
  <outline>
    <contour>
      <point x="227" y="804"/>
      <point x="245" y="816"/>
      <point x="285" y="816" type="curve" smooth="yes"/>
      <point x="316" y="816"/>
      <point x="362" y="800"/>
      <point x="353" y="761" type="curve" smooth="yes"/>
      <point x="343" y="715"/>
      <point x="287" y="692"/>
      <point x="249" y="690" type="curve"/>
      <point x="241" y="689"/>
      <point x="234" y="686"/>
      <point x="232" y="675" type="curve"/>
      <point x="230" y="667"/>
      <point x="235" y="663"/>
      <point x="243" y="662" type="curve"/>
      <point x="314" y="656"/>
      <point x="331" y="619"/>
      <point x="321" y="573" type="curve" smooth="yes"/>
      <point x="308" y="509"/>
      <point x="250" y="486"/>
      <point x="216" y="486" type="curve" smooth="yes"/>
      <point x="181" y="486"/>
      <point x="155" y="503"/>
      <point x="142" y="537" type="curve"/>
      <point x="140" y="541"/>
      <point x="137" y="543"/>
      <point x="132" y="543" type="curve" smooth="yes"/>
      <point x="123" y="543"/>
      <point x="117" y="537"/>
      <point x="115" y="529" type="curve" smooth="yes"/>
      <point x="114" y="525"/>
      <point x="114" y="522"/>
      <point x="116" y="518" type="curve"/>
      <point x="125" y="493"/>
      <point x="151" y="458"/>
      <point x="210" y="458" type="curve" smooth="yes"/>
      <point x="271" y="458"/>
      <point x="335" y="504"/>
      <point x="349" y="573" type="curve" smooth="yes"/>
      <point x="359" y="617"/>
      <point x="347" y="655"/>
      <point x="300" y="677" type="curve"/>
      <point x="342" y="696"/>
      <point x="373" y="728"/>
      <point x="380" y="761" type="curve" smooth="yes"/>
      <point x="392" y="814"/>
      <point x="346" y="844"/>
      <point x="293" y="844" type="curve" smooth="yes"/>
      <point x="242" y="844"/>
      <point x="194" y="821"/>
      <point x="190" y="802" type="curve"/>
      <point x="188" y="794"/>
      <point x="194" y="789"/>
      <point x="200" y="789" type="curve" smooth="yes"/>
      <point x="203" y="789"/>
      <point x="207" y="790"/>
      <point x="213" y="794" type="curve" smooth="yes"/>
    </contour>
  </outline>
</glyph>
<glyph name="mu" format="1">
  <advance width="490"/>
  <unicode hex="00B5"/>
  <outline>
    <contour>
      <point x="131" y="27"/>
      <point x="123" y="92"/>
      <point x="166" y="294" type="curve" smooth="yes"/>
      <point x="182" y="370"/>
      <point x="200" y="427"/>
      <point x="212" y="462" type="curve" smooth="yes"/>
      <point x="215" y="471"/>
      <point x="217" y="479"/>
      <point x="218" y="483" type="curve" smooth="yes"/>
      <point x="221" y="494"/>
      <point x="214" y="500"/>
      <point x="206" y="500" type="curve" smooth="yes"/>
      <point x="195" y="500"/>
      <point x="187" y="496"/>
      <point x="179" y="474" type="curve" smooth="yes"/>
      <point x="166" y="435"/>
      <point x="137" y="336"/>
      <point x="120" y="256" type="curve" smooth="yes"/>
      <point x="88" y="104"/>
      <point x="73" y="-35"/>
      <point x="64" y="-176" type="curve"/>
      <point x="63" y="-185"/>
      <point x="70" y="-189"/>
      <point x="78" y="-189" type="curve" smooth="yes"/>
      <point x="93" y="-189"/>
      <point x="101" y="-177"/>
      <point x="101" y="-168" type="curve"/>
      <point x="103" y="-120"/>
      <point x="110" y="-35"/>
      <point x="120" y="28" type="curve"/>
      <point x="143" y="7"/>
      <point x="184" y="-3"/>
      <point x="212" y="-3" type="curve" smooth="yes"/>
      <point x="289" y="-3"/>
      <point x="373" y="34"/>
      <point x="416" y="82" type="curve"/>
      <point x="404" y="24" type="line" smooth="yes"/>
      <point x="401" y="10"/>
      <point x="408" y="0"/>
      <point x="421" y="0" type="curve" smooth="yes"/>
      <point x="433" y="0"/>
      <point x="443" y="8"/>
      <point x="446" y="19" type="curve"/>
      <point x="544" y="483" type="line" smooth="yes"/>
      <point x="546" y="492"/>
      <point x="539" y="500"/>
      <point x="529" y="500" type="curve" smooth="yes"/>
      <point x="520" y="500"/>
      <point x="509" y="492"/>
      <point x="507" y="483" type="curve" smooth="yes"/>
      <point x="438" y="167" type="line" smooth="yes"/>
      <point x="433" y="143"/>
      <point x="425" y="127"/>
      <point x="412" y="115" type="curve" smooth="yes"/>
      <point x="383" y="89"/>
      <point x="317" y="27"/>
      <point x="220" y="27" type="curve" smooth="yes"/>
    </contour>
  </outline>
</glyph>
<glyph name="paragraph" format="1">
  <advance width="549"/>
  <unicode hex="00B6"/>
  <outline>
    <contour>
      <point x="483" y="152"/>
      <point x="567" y="402"/>
      <point x="620" y="650" type="curve" smooth="yes"/>
      <point x="625" y="677"/>
      <point x="632" y="705"/>
      <point x="637" y="734" type="curve"/>
      <point x="637" y="743"/>
      <point x="631" y="751"/>
      <point x="621" y="751" type="curve" smooth="yes"/>
      <point x="611" y="751"/>
      <point x="601" y="742"/>
      <point x="599" y="731" type="curve" smooth="yes"/>
      <point x="594" y="704"/>
      <point x="588" y="677"/>
      <point x="583" y="650" type="curve" smooth="yes"/>
      <point x="525" y="377"/>
      <point x="440" y="139"/>
      <point x="361" y="-61" type="curve"/>
      <point x="356" y="-71"/>
      <point x="357" y="-84"/>
      <point x="372" y="-84" type="curve" smooth="yes"/>
      <point x="381" y="-84"/>
      <point x="390" y="-79"/>
      <point x="394" y="-68" type="curve"/>
    </contour>
    <contour>
      <point x="552" y="763" type="line" smooth="yes"/>
      <point x="565" y="766"/>
      <point x="569" y="774"/>
      <point x="571" y="782" type="curve"/>
      <point x="573" y="793"/>
      <point x="567" y="800"/>
      <point x="557" y="798" type="curve" smooth="yes"/>
      <point x="390" y="768"/>
      <point x="217" y="683"/>
      <point x="186" y="538" type="curve" smooth="yes"/>
      <point x="159" y="413"/>
      <point x="252" y="364"/>
      <point x="361" y="364" type="curve" smooth="yes"/>
      <point x="392" y="364" type="line"/>
      <point x="369" y="278"/>
      <point x="282" y="22"/>
      <point x="243" y="-61" type="curve"/>
      <point x="237" y="-71"/>
      <point x="240" y="-84"/>
      <point x="255" y="-84" type="curve" smooth="yes"/>
      <point x="264" y="-84"/>
      <point x="272" y="-80"/>
      <point x="277" y="-69" type="curve"/>
      <point x="359" y="138"/>
      <point x="447" y="394"/>
      <point x="499" y="639" type="curve" smooth="yes"/>
      <point x="507" y="675"/>
      <point x="516" y="720"/>
      <point x="522" y="756" type="curve"/>
    </contour>
  </outline>
</glyph>
<glyph name="periodcentered" format="1">
  <advance width="162"/>
  <unicode hex="00B7"/>
  <outline>
    <contour>
      <point x="141" y="219"/>
      <point x="160" y="237"/>
      <point x="164" y="257" type="curve" smooth="yes"/>
      <point x="167" y="272"/>
      <point x="159" y="284"/>
      <point x="147" y="284" type="curve" smooth="yes"/>
      <point x="130" y="284"/>
      <point x="112" y="267"/>
      <point x="108" y="248" type="curve" smooth="yes"/>
      <point x="105" y="232"/>
      <point x="111" y="219"/>
      <point x="125" y="219" type="curve" smooth="yes"/>
    </contour>
  </outline>
</glyph>
<glyph name="cedilla" format="1">
  <advance width="490"/>
  <unicode hex="00B8"/>
  <outline>
    <contour>
      <point x="199" y="-18"/>
      <point x="174" y="-65"/>
      <point x="173" y="-69" type="curve"/>
      <point x="172" y="-75"/>
      <point x="176" y="-79"/>
      <point x="182" y="-79" type="curve" smooth="yes"/>
      <point x="184" y="-79"/>
      <point x="187" y="-78"/>
      <point x="192" y="-75" type="curve" smooth="yes"/>
      <point x="200" y="-70"/>
      <point x="212" y="-64"/>
      <point x="230" y="-64" type="curve" smooth="yes"/>
      <point x="264" y="-64"/>
      <point x="285" y="-91"/>
      <point x="278" y="-125" type="curve" smooth="yes"/>
      <point x="271" y="-159"/>
      <point x="238" y="-187"/>
      <point x="204" y="-187" type="curve" smooth="yes"/>
      <point x="175" y="-187"/>
      <point x="166" y="-174"/>
      <point x="159" y="-164" type="curve"/>
      <point x="156" y="-159"/>
      <point x="154" y="-154"/>
      <point x="149" y="-154" type="curve" smooth="yes"/>
      <point x="144" y="-154"/>
      <point x="138" y="-157"/>
      <point x="137" y="-163" type="curve"/>
      <point x="131" y="-189"/>
      <point x="168" y="-209"/>
      <point x="199" y="-209" type="curve" smooth="yes"/>
      <point x="246" y="-209"/>
      <point x="291" y="-170"/>
      <point x="301" y="-123" type="curve" smooth="yes"/>
      <point x="311" y="-78"/>
      <point x="284" y="-41"/>
      <point x="213" y="-41" type="curve"/>
      <point x="226" y="13" type="line" smooth="yes"/>
      <point x="228" y="21"/>
      <point x="227" y="23"/>
      <point x="225" y="23" type="curve" smooth="yes"/>
      <point x="222" y="23"/>
      <point x="219" y="17"/>
      <point x="204" y="-9" type="curve" smooth="yes"/>
    </contour>
  </outline>
</glyph>
<glyph name="onesuperior" format="1">
  <advance width="156"/>
  <unicode hex="00B9"/>
  <outline>
    <contour>
      <point x="169" y="761" type="line"/>
      <point x="166" y="758"/>
      <point x="164" y="754"/>
      <point x="163" y="750" type="curve" smooth="yes"/>
      <point x="161" y="742"/>
      <point x="167" y="737"/>
      <point x="172" y="737" type="curve" smooth="yes"/>
      <point x="176" y="737"/>
      <point x="181" y="737"/>
      <point x="187" y="743" type="curve"/>
      <point x="244" y="793" type="line"/>
      <point x="175" y="490" type="line"/>
      <point x="123" y="490" type="line" smooth="yes"/>
      <point x="116" y="490"/>
      <point x="109" y="485"/>
      <point x="107" y="476" type="curve"/>
      <point x="105" y="469"/>
      <point x="108" y="463"/>
      <point x="117" y="463" type="curve" smooth="yes"/>
      <point x="240" y="463" type="line" smooth="yes"/>
      <point x="247" y="463"/>
      <point x="255" y="468"/>
      <point x="257" y="476" type="curve"/>
      <point x="258" y="483"/>
      <point x="254" y="490"/>
      <point x="246" y="490" type="curve" smooth="yes"/>
      <point x="202" y="490" type="line"/>
      <point x="279" y="828" type="line"/>
      <point x="282" y="838"/>
      <point x="277" y="843"/>
      <point x="269" y="843" type="curve" smooth="yes"/>
      <point x="266" y="843"/>
      <point x="261" y="842"/>
      <point x="257" y="838" type="curve"/>
    </contour>
  </outline>
</glyph>
<glyph name="questiondown" format="1">
  <advance width="523"/>
  <unicode hex="00BF"/>
  <outline>
    <contour>
      <point x="247" y="229" type="line" smooth="yes"/>
      <point x="185" y="183"/>
      <point x="87" y="120"/>
      <point x="63" y="9" type="curve" smooth="yes"/>
      <point x="37" y="-113"/>
      <point x="109" y="-195"/>
      <point x="240" y="-195" type="curve" smooth="yes"/>
      <point x="316" y="-195"/>
      <point x="381" y="-155"/>
      <point x="420" y="-120" type="curve" smooth="yes"/>
      <point x="432" y="-109"/>
      <point x="444" y="-98"/>
      <point x="446" y="-89" type="curve"/>
      <point x="447" y="-81"/>
      <point x="441" y="-73"/>
      <point x="431" y="-73" type="curve" smooth="yes"/>
      <point x="425" y="-73"/>
      <point x="420" y="-76"/>
      <point x="418" y="-78" type="curve"/>
      <point x="378" y="-115"/>
      <point x="321" y="-160"/>
      <point x="247" y="-160" type="curve" smooth="yes"/>
      <point x="111" y="-160"/>
      <point x="81" y="-72"/>
      <point x="98" y="9" type="curve" smooth="yes"/>
      <point x="115" y="88"/>
      <point x="185" y="142"/>
      <point x="261" y="199" type="curve" smooth="yes"/>
      <point x="411" y="312" type="line" smooth="yes"/>
      <point x="416" y="316"/>
      <point x="419" y="320"/>
      <point x="420" y="325" type="curve"/>
      <point x="421" y="334"/>
      <point x="415" y="343"/>
      <point x="405" y="343" type="curve" smooth="yes"/>
      <point x="401" y="343"/>
      <point x="397" y="340"/>
      <point x="392" y="337" type="curve"/>
    </contour>
    <contour>
      <point x="452" y="501"/>
      <point x="433" y="483"/>
      <point x="429" y="462" type="curve" smooth="yes"/>
      <point x="426" y="448"/>
      <point x="434" y="435"/>
      <point x="446" y="435" type="curve" smooth="yes"/>
      <point x="463" y="435"/>
      <point x="482" y="453"/>
      <point x="486" y="472" type="curve" smooth="yes"/>
      <point x="489" y="487"/>
      <point x="482" y="501"/>
      <point x="469" y="501" type="curve" smooth="yes"/>
    </contour>
  </outline>
</glyph>
<glyph name="Acircumflex" format="1">
  <advance width="614"/>
  <unicode hex="00C2"/>
  <outline>
    <contour>
      <point x="523" y="902"/>
      <point x="518" y="900"/>
      <point x="513" y="897" type="curve"/>
      <point x="354" y="784" type="line" smooth="yes"/>
      <point x="350" y="781"/>
      <point x="345" y="776"/>
      <point x="344" y="771" type="curve" smooth="yes"/>
      <point x="342" y="762"/>
      <point x="349" y="753"/>
      <point x="359" y="753" type="curve" smooth="yes"/>
      <point x="363" y="753"/>
      <point x="367" y="755"/>
      <point x="370" y="757" type="curve" smooth="yes"/>
      <point x="515" y="853" type="line"/>
      <point x="600" y="758" type="line"/>
      <point x="603" y="755"/>
      <point x="607" y="753"/>
      <point x="612" y="753" type="curve" smooth="yes"/>
      <point x="621" y="753"/>
      <point x="630" y="762"/>
      <point x="632" y="771" type="curve" smooth="yes"/>
      <point x="633" y="776"/>
      <point x="632" y="779"/>
      <point x="629" y="783" type="curve" smooth="yes"/>
      <point x="541" y="896" type="line" smooth="yes"/>
      <point x="538" y="900"/>
      <point x="532" y="902"/>
      <point x="527" y="902" type="curve" smooth="yes"/>
    </contour>
    <contour>
      <point x="58" y="27" type="line"/>
      <point x="57" y="25"/>
      <point x="55" y="21"/>
      <point x="54" y="18" type="curve"/>
      <point x="52" y="8"/>
      <point x="60" y="0"/>
      <point x="72" y="0" type="curve" smooth="yes"/>
      <point x="80" y="0"/>
      <point x="86" y="4"/>
      <point x="91" y="11" type="curve"/>
      <point x="211" y="211" type="line"/>
      <point x="501" y="272" type="line"/>
      <point x="535" y="11" type="line" smooth="yes"/>
      <point x="536" y="3"/>
      <point x="541" y="-1"/>
      <point x="549" y="-1" type="curve" smooth="yes"/>
      <point x="560" y="-1"/>
      <point x="571" y="4"/>
      <point x="574" y="15" type="curve"/>
      <point x="574" y="18"/>
      <point x="575" y="23"/>
      <point x="574" y="32" type="curve" smooth="yes"/>
      <point x="489" y="677" type="line"/>
      <point x="489" y="683"/>
      <point x="484" y="689"/>
      <point x="474" y="689" type="curve" smooth="yes"/>
      <point x="465" y="689"/>
      <point x="457" y="684"/>
      <point x="452" y="677" type="curve"/>
      <point x="190" y="244" type="line"/>
      <point x="129" y="231" type="line" smooth="yes"/>
      <point x="120" y="229"/>
      <point x="112" y="222"/>
      <point x="110" y="212" type="curve"/>
      <point x="107" y="202"/>
      <point x="113" y="192"/>
      <point x="126" y="194" type="curve"/>
      <point x="165" y="203" type="line"/>
    </contour>
    <contour>
      <point x="237" y="253" type="line"/>
      <point x="455" y="614" type="line"/>
      <point x="496" y="307" type="line"/>
    </contour>
  </outline>
</glyph>
<glyph name="Ccedilla" format="1">
  <advance width="622"/>
  <unicode hex="00C7"/>
  <outline>
    <contour>
      <point x="282" y="-8"/>
      <point x="252" y="-64"/>
      <point x="251" y="-70" type="curve"/>
      <point x="250" y="-74"/>
      <point x="252" y="-79"/>
      <point x="259" y="-79" type="curve" smooth="yes"/>
      <point x="262" y="-79"/>
      <point x="265" y="-78"/>
      <point x="270" y="-75" type="curve" smooth="yes"/>
      <point x="278" y="-70"/>
      <point x="290" y="-64"/>
      <point x="308" y="-64" type="curve" smooth="yes"/>
      <point x="342" y="-64"/>
      <point x="363" y="-91"/>
      <point x="356" y="-125" type="curve" smooth="yes"/>
      <point x="349" y="-159"/>
      <point x="316" y="-187"/>
      <point x="282" y="-187" type="curve" smooth="yes"/>
      <point x="253" y="-187"/>
      <point x="244" y="-174"/>
      <point x="237" y="-164" type="curve"/>
      <point x="234" y="-159"/>
      <point x="232" y="-154"/>
      <point x="227" y="-154" type="curve" smooth="yes"/>
      <point x="222" y="-154"/>
      <point x="216" y="-157"/>
      <point x="215" y="-163" type="curve"/>
      <point x="209" y="-189"/>
      <point x="246" y="-209"/>
      <point x="277" y="-209" type="curve" smooth="yes"/>
      <point x="324" y="-209"/>
      <point x="369" y="-170"/>
      <point x="379" y="-123" type="curve" smooth="yes"/>
      <point x="389" y="-78"/>
      <point x="362" y="-41"/>
      <point x="291" y="-41" type="curve"/>
      <point x="301" y="0" type="line"/>
      <point x="312" y="-1"/>
      <point x="324" y="-2"/>
      <point x="337" y="-2" type="curve" smooth="yes"/>
      <point x="433" y="-2"/>
      <point x="527" y="40"/>
      <point x="599" y="115" type="curve" smooth="yes"/>
      <point x="602" y="118"/>
      <point x="605" y="123"/>
      <point x="605" y="127" type="curve"/>
      <point x="608" y="139"/>
      <point x="599" y="145"/>
      <point x="589" y="145" type="curve" smooth="yes"/>
      <point x="584" y="145"/>
      <point x="579" y="142"/>
      <point x="574" y="138" type="curve"/>
      <point x="503" y="68"/>
      <point x="421" y="36"/>
      <point x="345" y="36" type="curve" smooth="yes"/>
      <point x="249" y="36"/>
      <point x="113" y="110"/>
      <point x="152" y="295" type="curve" smooth="yes"/>
      <point x="189" y="469"/>
      <point x="363" y="646"/>
      <point x="484" y="646" type="curve" smooth="yes"/>
      <point x="575" y="646"/>
      <point x="610" y="607"/>
      <point x="626" y="583" type="curve"/>
      <point x="625" y="574" type="line"/>
      <point x="622" y="564"/>
      <point x="629" y="554"/>
      <point x="639" y="554" type="curve" smooth="yes"/>
      <point x="649" y="554"/>
      <point x="660" y="564"/>
      <point x="663" y="574" type="curve"/>
      <point x="677" y="640" type="line" smooth="yes"/>
      <point x="679" y="650"/>
      <point x="672" y="658"/>
      <point x="662" y="658" type="curve" smooth="yes"/>
      <point x="654" y="658"/>
      <point x="644" y="650"/>
      <point x="636" y="639" type="curve"/>
      <point x="606" y="661"/>
      <point x="561" y="684"/>
      <point x="492" y="684" type="curve" smooth="yes"/>
      <point x="355" y="684"/>
      <point x="158" y="500"/>
      <point x="114" y="295" type="curve" smooth="yes"/>
      <point x="82" y="144"/>
      <point x="160" y="26"/>
      <point x="288" y="2" type="curve"/>
    </contour>
  </outline>
</glyph>
<glyph name="Eacute" format="1">
  <advance width="600"/>
  <unicode hex="00C9"/>
  <outline>
    <contour>
      <point x="114" y="38" type="line"/>
      <point x="176" y="334" type="line"/>
      <point x="548" y="334" type="line" smooth="yes"/>
      <point x="558" y="334"/>
      <point x="568" y="343"/>
      <point x="571" y="353" type="curve"/>
      <point x="573" y="364"/>
      <point x="567" y="372"/>
      <point x="557" y="372" type="curve" smooth="yes"/>
      <point x="185" y="372" type="line"/>
      <point x="242" y="644" type="line"/>
      <point x="664" y="644" type="line" smooth="yes"/>
      <point x="674" y="644"/>
      <point x="685" y="653"/>
      <point x="688" y="664" type="curve"/>
      <point x="690" y="674"/>
      <point x="682" y="682"/>
      <point x="672" y="682" type="curve" smooth="yes"/>
      <point x="231" y="682" type="line" smooth="yes"/>
      <point x="221" y="682"/>
      <point x="211" y="674"/>
      <point x="209" y="664" type="curve" smooth="yes"/>
      <point x="72" y="20" type="line"/>
      <point x="69" y="9"/>
      <point x="77" y="0"/>
      <point x="87" y="0" type="curve" smooth="yes"/>
      <point x="526" y="0" type="line" smooth="yes"/>
      <point x="536" y="0"/>
      <point x="546" y="9"/>
      <point x="549" y="20" type="curve"/>
      <point x="551" y="30"/>
      <point x="544" y="38"/>
      <point x="534" y="38" type="curve" smooth="yes"/>
    </contour>
    <contour>
      <point x="576" y="857" type="line" smooth="yes"/>
      <point x="584" y="862"/>
      <point x="586" y="866"/>
      <point x="587" y="873" type="curve"/>
      <point x="590" y="887"/>
      <point x="580" y="900"/>
      <point x="569" y="900" type="curve" smooth="yes"/>
      <point x="559" y="900"/>
      <point x="550" y="893"/>
      <point x="540" y="886" type="curve" smooth="yes"/>
      <point x="390" y="782" type="line" smooth="yes"/>
      <point x="383" y="777"/>
      <point x="382" y="772"/>
      <point x="381" y="769" type="curve"/>
      <point x="379" y="760"/>
      <point x="385" y="752"/>
      <point x="394" y="752" type="curve" smooth="yes"/>
      <point x="398" y="752"/>
      <point x="404" y="754"/>
      <point x="412" y="759" type="curve" smooth="yes"/>
    </contour>
  </outline>
</glyph>
<glyph name="Igrave" format="1">
  <advance width="423"/>
  <unicode hex="00CC"/>
  <outline>
    <contour>
      <point x="242" y="37" type="line"/>
      <point x="371" y="643" type="line"/>
      <point x="483" y="643" type="line" smooth="yes"/>
      <point x="493" y="643"/>
      <point x="504" y="652"/>
      <point x="506" y="662" type="curve"/>
      <point x="509" y="673"/>
      <point x="501" y="681"/>
      <point x="491" y="681" type="curve" smooth="yes"/>
      <point x="227" y="681" type="line" smooth="yes"/>
      <point x="217" y="681"/>
      <point x="207" y="673"/>
      <point x="204" y="662" type="curve"/>
      <point x="202" y="652"/>
      <point x="209" y="643"/>
      <point x="219" y="643" type="curve" smooth="yes"/>
      <point x="333" y="643" type="line"/>
      <point x="204" y="37" type="line"/>
      <point x="90" y="37" type="line" smooth="yes"/>
      <point x="80" y="37"/>
      <point x="70" y="29"/>
      <point x="68" y="19" type="curve"/>
      <point x="65" y="8"/>
      <point x="72" y="-1"/>
      <point x="82" y="-1" type="curve" smooth="yes"/>
      <point x="346" y="-1" type="line" smooth="yes"/>
      <point x="356" y="-1"/>
      <point x="367" y="8"/>
      <point x="370" y="19" type="curve"/>
      <point x="372" y="29"/>
      <point x="366" y="37"/>
      <point x="354" y="37" type="curve" smooth="yes"/>
    </contour>
    <contour>
      <point x="366" y="901" type="line"/>
      <point x="362" y="909"/>
      <point x="355" y="912"/>
      <point x="347" y="912" type="curve" smooth="yes"/>
      <point x="333" y="912"/>
      <point x="318" y="901"/>
      <point x="315" y="887" type="curve"/>
      <point x="314" y="880"/>
      <point x="315" y="874"/>
      <point x="319" y="868" type="curve"/>
      <point x="415" y="742" type="line" smooth="yes"/>
      <point x="418" y="738"/>
      <point x="423" y="736"/>
      <point x="427" y="736" type="curve" smooth="yes"/>
      <point x="436" y="736"/>
      <point x="447" y="742"/>
      <point x="449" y="752" type="curve"/>
      <point x="450" y="756"/>
      <point x="449" y="760"/>
      <point x="446" y="765" type="curve" smooth="yes"/>
    </contour>
  </outline>
</glyph>
<glyph name="Idieresis" format="1">
  <advance width="423"/>
  <unicode hex="00CF"/>
  <outline>
    <contour>
      <point x="348" y="807"/>
      <point x="334" y="820"/>
      <point x="315" y="820" type="curve" smooth="yes"/>
      <point x="291" y="820"/>
      <point x="269" y="804"/>
      <point x="265" y="785" type="curve" smooth="yes"/>
      <point x="262" y="768"/>
      <point x="275" y="755"/>
      <point x="295" y="755" type="curve" smooth="yes"/>
      <point x="319" y="755"/>
      <point x="340" y="771"/>
      <point x="344" y="790" type="curve" smooth="yes"/>
    </contour>
    <contour>
      <point x="512" y="807"/>
      <point x="497" y="820"/>
      <point x="479" y="820" type="curve" smooth="yes"/>
      <point x="455" y="820"/>
      <point x="433" y="804"/>
      <point x="429" y="785" type="curve" smooth="yes"/>
      <point x="426" y="768"/>
      <point x="439" y="755"/>
      <point x="459" y="755" type="curve" smooth="yes"/>
      <point x="482" y="755"/>
      <point x="504" y="771"/>
      <point x="508" y="790" type="curve" smooth="yes"/>
    </contour>
    <contour>
      <point x="242" y="37" type="line"/>
      <point x="371" y="643" type="line"/>
      <point x="483" y="643" type="line" smooth="yes"/>
      <point x="493" y="643"/>
      <point x="504" y="652"/>
      <point x="506" y="662" type="curve"/>
      <point x="509" y="673"/>
      <point x="501" y="681"/>
      <point x="491" y="681" type="curve" smooth="yes"/>
      <point x="227" y="681" type="line" smooth="yes"/>
      <point x="217" y="681"/>
      <point x="207" y="673"/>
      <point x="204" y="662" type="curve"/>
      <point x="202" y="652"/>
      <point x="209" y="643"/>
      <point x="219" y="643" type="curve" smooth="yes"/>
      <point x="333" y="643" type="line"/>
      <point x="204" y="37" type="line"/>
      <point x="90" y="37" type="line" smooth="yes"/>
      <point x="80" y="37"/>
      <point x="70" y="29"/>
      <point x="68" y="19" type="curve"/>
      <point x="65" y="8"/>
      <point x="72" y="-1"/>
      <point x="82" y="-1" type="curve" smooth="yes"/>
      <point x="346" y="-1" type="line" smooth="yes"/>
      <point x="356" y="-1"/>
      <point x="367" y="8"/>
      <point x="370" y="19" type="curve"/>
      <point x="372" y="29"/>
      <point x="366" y="37"/>
      <point x="354" y="37" type="curve" smooth="yes"/>
    </contour>
  </outline>
</glyph>
<glyph name="Eth" format="1">
  <advance width="645"/>
  <unicode hex="00D0"/>
  <outline>
    <contour>
      <point x="457" y="-21"/>
      <point x="618" y="76"/>
      <point x="665" y="299" type="curve" smooth="yes"/>
      <point x="734" y="625"/>
      <point x="458" y="681"/>
      <point x="294" y="681" type="curve" smooth="yes"/>
      <point x="284" y="681"/>
      <point x="273" y="673"/>
      <point x="270" y="662" type="curve"/>
      <point x="199" y="328" type="line"/>
      <point x="124" y="328" type="line" smooth="yes"/>
      <point x="114" y="328"/>
      <point x="104" y="318"/>
      <point x="102" y="308" type="curve" smooth="yes"/>
      <point x="100" y="298"/>
      <point x="106" y="290"/>
      <point x="116" y="290" type="curve" smooth="yes"/>
      <point x="191" y="290" type="line"/>
      <point x="133" y="15" type="line"/>
      <point x="131" y="7"/>
      <point x="135" y="-1"/>
      <point x="144" y="-3" type="curve"/>
      <point x="151" y="-5"/>
      <point x="206" y="-21"/>
      <point x="264" y="-21" type="curve" smooth="yes"/>
    </contour>
    <contour>
      <point x="226" y="290" type="line"/>
      <point x="344" y="290" type="line" smooth="yes"/>
      <point x="354" y="290"/>
      <point x="364" y="298"/>
      <point x="366" y="308" type="curve" smooth="yes"/>
      <point x="368" y="318"/>
      <point x="362" y="328"/>
      <point x="352" y="328" type="curve" smooth="yes"/>
      <point x="234" y="328" type="line"/>
      <point x="301" y="643" type="line"/>
      <point x="520" y="634"/>
      <point x="681" y="545"/>
      <point x="629" y="299" type="curve" smooth="yes"/>
      <point x="589" y="109"/>
      <point x="462" y="18"/>
      <point x="272" y="18" type="curve" smooth="yes"/>
      <point x="238" y="18"/>
      <point x="197" y="25"/>
      <point x="171" y="31" type="curve"/>
    </contour>
  </outline>
</glyph>
<glyph name="Ograve" format="1">
  <advance width="650"/>
  <unicode hex="00D2"/>
  <outline>
    <contour>
      <point x="463" y="-2"/>
      <point x="633" y="167"/>
      <point x="676" y="368" type="curve" smooth="yes"/>
      <point x="712" y="540"/>
      <point x="638" y="682"/>
      <point x="496" y="682" type="curve" smooth="yes"/>
      <point x="340" y="682"/>
      <point x="171" y="513"/>
      <point x="128" y="312" type="curve" smooth="yes"/>
      <point x="92" y="142"/>
      <point x="164" y="-2"/>
      <point x="307" y="-2" type="curve" smooth="yes"/>
    </contour>
    <contour>
      <point x="610" y="649"/>
      <point x="671" y="508"/>
      <point x="641" y="364" type="curve" smooth="yes"/>
      <point x="602" y="183"/>
      <point x="446" y="31"/>
      <point x="314" y="31" type="curve" smooth="yes"/>
      <point x="191" y="31"/>
      <point x="129" y="159"/>
      <point x="162" y="312" type="curve" smooth="yes"/>
      <point x="202" y="500"/>
      <point x="350" y="649"/>
      <point x="481" y="649" type="curve" smooth="yes"/>
    </contour>
    <contour>
      <point x="506" y="901" type="line"/>
      <point x="502" y="909"/>
      <point x="495" y="912"/>
      <point x="487" y="912" type="curve" smooth="yes"/>
      <point x="473" y="912"/>
      <point x="458" y="901"/>
      <point x="455" y="887" type="curve"/>
      <point x="454" y="880"/>
      <point x="455" y="874"/>
      <point x="459" y="868" type="curve"/>
      <point x="555" y="742" type="line" smooth="yes"/>
      <point x="558" y="738"/>
      <point x="563" y="736"/>
      <point x="567" y="736" type="curve" smooth="yes"/>
      <point x="576" y="736"/>
      <point x="587" y="742"/>
      <point x="589" y="752" type="curve"/>
      <point x="590" y="756"/>
      <point x="589" y="760"/>
      <point x="586" y="765" type="curve" smooth="yes"/>
    </contour>
  </outline>
</glyph>
<glyph name="Oacute" format="1">
  <advance width="650"/>
  <unicode hex="00D3"/>
  <outline>
    <contour>
      <point x="463" y="-2"/>
      <point x="633" y="167"/>
      <point x="676" y="368" type="curve" smooth="yes"/>
      <point x="712" y="540"/>
      <point x="638" y="682"/>
      <point x="496" y="682" type="curve" smooth="yes"/>
      <point x="340" y="682"/>
      <point x="171" y="513"/>
      <point x="128" y="312" type="curve" smooth="yes"/>
      <point x="92" y="142"/>
      <point x="164" y="-2"/>
      <point x="307" y="-2" type="curve" smooth="yes"/>
    </contour>
    <contour>
      <point x="610" y="649"/>
      <point x="671" y="508"/>
      <point x="641" y="364" type="curve" smooth="yes"/>
      <point x="602" y="183"/>
      <point x="446" y="31"/>
      <point x="314" y="31" type="curve" smooth="yes"/>
      <point x="191" y="31"/>
      <point x="129" y="159"/>
      <point x="162" y="312" type="curve" smooth="yes"/>
      <point x="202" y="500"/>
      <point x="350" y="649"/>
      <point x="481" y="649" type="curve" smooth="yes"/>
    </contour>
    <contour>
      <point x="633" y="857" type="line" smooth="yes"/>
      <point x="641" y="862"/>
      <point x="643" y="866"/>
      <point x="644" y="873" type="curve"/>
      <point x="647" y="887"/>
      <point x="637" y="900"/>
      <point x="626" y="900" type="curve" smooth="yes"/>
      <point x="616" y="900"/>
      <point x="607" y="893"/>
      <point x="597" y="886" type="curve" smooth="yes"/>
      <point x="447" y="782" type="line" smooth="yes"/>
      <point x="440" y="777"/>
      <point x="439" y="772"/>
      <point x="438" y="769" type="curve"/>
      <point x="436" y="760"/>
      <point x="442" y="752"/>
      <point x="451" y="752" type="curve" smooth="yes"/>
      <point x="455" y="752"/>
      <point x="461" y="754"/>
      <point x="469" y="759" type="curve" smooth="yes"/>
    </contour>
  </outline>
</glyph>
<glyph name="Otilde" format="1">
  <advance width="650"/>
  <unicode hex="00D5"/>
  <outline>
    <contour>
      <point x="463" y="-2"/>
      <point x="633" y="167"/>
      <point x="676" y="368" type="curve" smooth="yes"/>
      <point x="712" y="540"/>
      <point x="638" y="682"/>
      <point x="496" y="682" type="curve" smooth="yes"/>
      <point x="340" y="682"/>
      <point x="171" y="513"/>
      <point x="128" y="312" type="curve" smooth="yes"/>
      <point x="92" y="142"/>
      <point x="164" y="-2"/>
      <point x="307" y="-2" type="curve" smooth="yes"/>
    </contour>
    <contour>
      <point x="610" y="649"/>
      <point x="671" y="508"/>
      <point x="641" y="364" type="curve" smooth="yes"/>
      <point x="602" y="183"/>
      <point x="446" y="31"/>
      <point x="314" y="31" type="curve" smooth="yes"/>
      <point x="191" y="31"/>
      <point x="129" y="159"/>
      <point x="162" y="312" type="curve" smooth="yes"/>
      <point x="202" y="500"/>
      <point x="350" y="649"/>
      <point x="481" y="649" type="curve" smooth="yes"/>
    </contour>
    <contour>
      <point x="670" y="812"/>
      <point x="638" y="761"/>
      <point x="600" y="761" type="curve" smooth="yes"/>
      <point x="579" y="761"/>
      <point x="564" y="786"/>
      <point x="552" y="811" type="curve" smooth="yes"/>
      <point x="539" y="839"/>
      <point x="524" y="869"/>
      <point x="483" y="869" type="curve" smooth="yes"/>
      <point x="436" y="869"/>
      <point x="371" y="816"/>
      <point x="362" y="774" type="curve" smooth="yes"/>
      <point x="360" y="766"/>
      <point x="362" y="758"/>
      <point x="372" y="758" type="curve" smooth="yes"/>
      <point x="379" y="758"/>
      <point x="384" y="762"/>
      <point x="389" y="771" type="curve" smooth="yes"/>
      <point x="419" y="829"/>
      <point x="461" y="842"/>
      <point x="477" y="842" type="curve" smooth="yes"/>
      <point x="497" y="842"/>
      <point x="506" y="829"/>
      <point x="524" y="792" type="curve" smooth="yes"/>
      <point x="537" y="766"/>
      <point x="552" y="735"/>
      <point x="593" y="735" type="curve" smooth="yes"/>
      <point x="647" y="735"/>
      <point x="710" y="803"/>
      <point x="718" y="841" type="curve"/>
      <point x="720" y="849"/>
      <point x="716" y="855"/>
      <point x="707" y="855" type="curve" smooth="yes"/>
      <point x="698" y="855"/>
      <point x="692" y="850"/>
      <point x="689" y="844" type="curve"/>
    </contour>
  </outline>
</glyph>
<glyph name="Oslash" format="1">
  <advance width="650"/>
  <unicode hex="00D8"/>
  <outline>
    <contour>
      <point x="93" y="-6" type="line"/>
      <point x="91" y="-9"/>
      <point x="89" y="-13"/>
      <point x="88" y="-16" type="curve"/>
      <point x="86" y="-26"/>
      <point x="90" y="-33"/>
      <point x="102" y="-33" type="curve" smooth="yes"/>
      <point x="108" y="-33"/>
      <point x="113" y="-30"/>
      <point x="117" y="-25" type="curve" smooth="yes"/>
      <point x="177" y="53" type="line"/>
      <point x="212" y="18"/>
      <point x="257" y="-2"/>
      <point x="307" y="-2" type="curve" smooth="yes"/>
      <point x="463" y="-2"/>
      <point x="633" y="167"/>
      <point x="676" y="368" type="curve" smooth="yes"/>
      <point x="698" y="474"/>
      <point x="677" y="570"/>
      <point x="622" y="632" type="curve"/>
      <point x="690" y="720" type="line"/>
      <point x="691" y="722"/>
      <point x="693" y="726"/>
      <point x="693" y="729" type="curve"/>
      <point x="696" y="740"/>
      <point x="688" y="745"/>
      <point x="681" y="745" type="curve" smooth="yes"/>
      <point x="674" y="745"/>
      <point x="668" y="742"/>
      <point x="664" y="737" type="curve" smooth="yes"/>
      <point x="599" y="650" type="line"/>
      <point x="566" y="671"/>
      <point x="531" y="682"/>
      <point x="496" y="682" type="curve" smooth="yes"/>
      <point x="340" y="682"/>
      <point x="171" y="513"/>
      <point x="128" y="312" type="curve" smooth="yes"/>
      <point x="109" y="223"/>
      <point x="121" y="139"/>
      <point x="157" y="78" type="curve"/>
    </contour>
    <contour>
      <point x="268" y="31"/>
      <point x="230" y="49"/>
      <point x="200" y="82" type="curve"/>
      <point x="597" y="599" type="line"/>
      <point x="643" y="538"/>
      <point x="659" y="448"/>
      <point x="641" y="364" type="curve" smooth="yes"/>
      <point x="602" y="183"/>
      <point x="446" y="31"/>
      <point x="314" y="31" type="curve" smooth="yes"/>
    </contour>
    <contour>
      <point x="514" y="649"/>
      <point x="545" y="639"/>
      <point x="574" y="619" type="curve"/>
      <point x="182" y="109" type="line"/>
      <point x="154" y="169"/>
      <point x="147" y="240"/>
      <point x="162" y="312" type="curve" smooth="yes"/>
      <point x="202" y="500"/>
      <point x="350" y="649"/>
      <point x="481" y="649" type="curve" smooth="yes"/>
    </contour>
  </outline>
</glyph>
<glyph name="Ugrave" format="1">
  <advance width="673"/>
  <unicode hex="00D9"/>
  <outline>
    <contour>
      <point x="755" y="668"/>
      <point x="755" y="681"/>
      <point x="740" y="681" type="curve" smooth="yes"/>
      <point x="722" y="681"/>
      <point x="718" y="667"/>
      <point x="715" y="651" type="curve" smooth="yes"/>
      <point x="687" y="518"/>
      <point x="667" y="397"/>
      <point x="628" y="277" type="curve" smooth="yes"/>
      <point x="583" y="139"/>
      <point x="496" y="31"/>
      <point x="336" y="31" type="curve" smooth="yes"/>
      <point x="151" y="31"/>
      <point x="160" y="236"/>
      <point x="185" y="381" type="curve" smooth="yes"/>
      <point x="202" y="474"/>
      <point x="224" y="565"/>
      <point x="245" y="654" type="curve"/>
      <point x="248" y="670"/>
      <point x="247" y="681"/>
      <point x="232" y="681" type="curve" smooth="yes"/>
      <point x="218" y="681"/>
      <point x="210" y="671"/>
      <point x="207" y="655" type="curve" smooth="yes"/>
      <point x="188" y="570"/>
      <point x="165" y="474"/>
      <point x="147" y="367" type="curve" smooth="yes"/>
      <point x="104" y="125"/>
      <point x="171" y="0"/>
      <point x="329" y="0" type="curve" smooth="yes"/>
      <point x="502" y="0"/>
      <point x="608" y="110"/>
      <point x="663" y="270" type="curve" smooth="yes"/>
      <point x="708" y="400"/>
      <point x="730" y="527"/>
      <point x="752" y="653" type="curve" smooth="yes"/>
    </contour>
    <contour>
      <point x="484" y="901" type="line"/>
      <point x="480" y="909"/>
      <point x="473" y="912"/>
      <point x="465" y="912" type="curve" smooth="yes"/>
      <point x="451" y="912"/>
      <point x="436" y="901"/>
      <point x="433" y="887" type="curve"/>
      <point x="432" y="880"/>
      <point x="433" y="874"/>
      <point x="437" y="868" type="curve"/>
      <point x="533" y="742" type="line" smooth="yes"/>
      <point x="536" y="738"/>
      <point x="541" y="736"/>
      <point x="545" y="736" type="curve" smooth="yes"/>
      <point x="554" y="736"/>
      <point x="565" y="742"/>
      <point x="567" y="752" type="curve"/>
      <point x="568" y="756"/>
      <point x="567" y="760"/>
      <point x="564" y="765" type="curve" smooth="yes"/>
    </contour>
  </outline>
</glyph>
<glyph name="Yacute" format="1">
  <advance width="583"/>
  <unicode hex="00DD"/>
  <outline>
    <contour>
      <point x="709" y="681"/>
      <point x="703" y="678"/>
      <point x="698" y="672" type="curve" smooth="yes"/>
      <point x="356" y="246" type="line"/>
      <point x="197" y="672" type="line"/>
      <point x="196" y="678"/>
      <point x="190" y="681"/>
      <point x="185" y="681" type="curve" smooth="yes"/>
      <point x="175" y="681"/>
      <point x="164" y="675"/>
      <point x="162" y="664" type="curve" smooth="yes"/>
      <point x="161" y="659"/>
      <point x="162" y="653"/>
      <point x="163" y="649" type="curve"/>
      <point x="326" y="210" type="line"/>
      <point x="182" y="32" type="line" smooth="yes"/>
      <point x="178" y="27"/>
      <point x="175" y="23"/>
      <point x="174" y="17" type="curve"/>
      <point x="172" y="9"/>
      <point x="179" y="0"/>
      <point x="191" y="0" type="curve" smooth="yes"/>
      <point x="196" y="0"/>
      <point x="201" y="2"/>
      <point x="206" y="9" type="curve"/>
      <point x="720" y="646" type="line" smooth="yes"/>
      <point x="728" y="656"/>
      <point x="730" y="660"/>
      <point x="731" y="664" type="curve"/>
      <point x="733" y="674"/>
      <point x="725" y="681"/>
      <point x="715" y="681" type="curve" smooth="yes"/>
    </contour>
    <contour>
      <point x="582" y="857" type="line" smooth="yes"/>
      <point x="590" y="862"/>
      <point x="592" y="866"/>
      <point x="593" y="873" type="curve"/>
      <point x="596" y="887"/>
      <point x="586" y="900"/>
      <point x="575" y="900" type="curve" smooth="yes"/>
      <point x="565" y="900"/>
      <point x="556" y="893"/>
      <point x="546" y="886" type="curve" smooth="yes"/>
      <point x="396" y="782" type="line" smooth="yes"/>
      <point x="389" y="777"/>
      <point x="388" y="772"/>
      <point x="387" y="769" type="curve"/>
      <point x="385" y="760"/>
      <point x="391" y="752"/>
      <point x="400" y="752" type="curve" smooth="yes"/>
      <point x="404" y="752"/>
      <point x="410" y="754"/>
      <point x="418" y="759" type="curve" smooth="yes"/>
    </contour>
  </outline>
</glyph>
<glyph name="Thorn" format="1">
  <advance width="537"/>
  <unicode hex="00DE"/>
  <outline>
    <contour>
      <point x="242" y="664" type="line" smooth="yes"/>
      <point x="244" y="673"/>
      <point x="239" y="680"/>
      <point x="230" y="680" type="curve" smooth="yes"/>
      <point x="221" y="680"/>
      <point x="213" y="673"/>
      <point x="211" y="665" type="curve" smooth="yes"/>
      <point x="71" y="16" type="line" smooth="yes"/>
      <point x="69" y="7"/>
      <point x="75" y="0"/>
      <point x="84" y="0" type="curve" smooth="yes"/>
      <point x="93" y="0"/>
      <point x="101" y="7"/>
      <point x="103" y="15" type="curve"/>
      <point x="131" y="147" type="line"/>
      <point x="277" y="150"/>
      <point x="511" y="202"/>
      <point x="548" y="376" type="curve" smooth="yes"/>
      <point x="585" y="550"/>
      <point x="370" y="569"/>
      <point x="221" y="569" type="curve"/>
    </contour>
    <contour>
      <point x="214" y="533" type="line"/>
      <point x="235" y="535"/>
      <point x="248" y="535"/>
      <point x="263" y="535" type="curve" smooth="yes"/>
      <point x="444" y="535"/>
      <point x="538" y="476"/>
      <point x="516" y="376" type="curve" smooth="yes"/>
      <point x="484" y="225"/>
      <point x="249" y="184"/>
      <point x="139" y="183" type="curve"/>
    </contour>
  </outline>
</glyph>
<glyph name="germandbls" format="1">
  <advance width="515"/>
  <unicode hex="00DF"/>
  <outline>
    <contour>
      <point x="203" y="28"/>
      <point x="200" y="28"/>
      <point x="198" y="28" type="curve" smooth="yes"/>
      <point x="190" y="28"/>
      <point x="182" y="21"/>
      <point x="180" y="11" type="curve" smooth="yes"/>
      <point x="174" y="-15"/>
      <point x="238" y="-26"/>
      <point x="273" y="-26" type="curve" smooth="yes"/>
      <point x="379" y="-26"/>
      <point x="487" y="63"/>
      <point x="509" y="169" type="curve" smooth="yes"/>
      <point x="528" y="257"/>
      <point x="480" y="339"/>
      <point x="397" y="358" type="curve"/>
      <point x="439" y="388"/>
      <point x="479" y="443"/>
      <point x="488" y="486" type="curve" smooth="yes"/>
      <point x="506" y="573"/>
      <point x="451" y="645"/>
      <point x="364" y="645" type="curve" smooth="yes"/>
      <point x="276" y="645"/>
      <point x="188" y="573"/>
      <point x="170" y="486" type="curve" smooth="yes"/>
      <point x="70" y="16" type="line" smooth="yes"/>
      <point x="68" y="6"/>
      <point x="74" y="-1"/>
      <point x="83" y="-1" type="curve" smooth="yes"/>
      <point x="93" y="-1"/>
      <point x="102" y="6"/>
      <point x="104" y="16" type="curve" smooth="yes"/>
      <point x="204" y="486" type="line" smooth="yes"/>
      <point x="218" y="554"/>
      <point x="288" y="612"/>
      <point x="357" y="612" type="curve" smooth="yes"/>
      <point x="427" y="612"/>
      <point x="469" y="554"/>
      <point x="455" y="486" type="curve" smooth="yes"/>
      <point x="441" y="423"/>
      <point x="386" y="367"/>
      <point x="316" y="362" type="curve" smooth="yes"/>
      <point x="301" y="361" type="line" smooth="yes"/>
      <point x="290" y="360"/>
      <point x="284" y="352"/>
      <point x="282" y="343" type="curve" smooth="yes"/>
      <point x="280" y="334"/>
      <point x="286" y="327"/>
      <point x="296" y="327" type="curve" smooth="yes"/>
      <point x="307" y="327"/>
      <point x="316" y="329"/>
      <point x="326" y="330" type="curve" smooth="yes"/>
      <point x="442" y="341"/>
      <point x="495" y="257"/>
      <point x="477" y="170" type="curve" smooth="yes"/>
      <point x="458" y="81"/>
      <point x="366" y="7"/>
      <point x="280" y="7" type="curve" smooth="yes"/>
      <point x="253" y="7"/>
      <point x="230" y="13"/>
      <point x="207" y="26" type="curve"/>
    </contour>
  </outline>
</glyph>
<glyph name="agrave" format="1">
  <advance width="495"/>
  <unicode hex="00E0"/>
  <outline>
    <contour>
      <point x="539" y="476" type="line"/>
      <point x="516" y="489"/>
      <point x="461" y="515"/>
      <point x="400" y="515" type="curve" smooth="yes"/>
      <point x="226" y="515"/>
      <point x="121" y="327"/>
      <point x="99" y="223" type="curve" smooth="yes"/>
      <point x="72" y="95"/>
      <point x="133" y="8"/>
      <point x="239" y="8" type="curve" smooth="yes"/>
      <point x="294" y="8"/>
      <point x="365" y="39"/>
      <point x="414" y="66" type="curve"/>
      <point x="404" y="23" type="line"/>
      <point x="402" y="10"/>
      <point x="407" y="0"/>
      <point x="419" y="0" type="curve" smooth="yes"/>
      <point x="430" y="0"/>
      <point x="439" y="9"/>
      <point x="442" y="21" type="curve"/>
    </contour>
    <contour>
      <point x="421" y="110" type="line"/>
      <point x="391" y="93"/>
      <point x="310" y="45"/>
      <point x="245" y="45" type="curve" smooth="yes"/>
      <point x="138" y="45"/>
      <point x="122" y="148"/>
      <point x="138" y="225" type="curve" smooth="yes"/>
      <point x="158" y="316"/>
      <point x="245" y="478"/>
      <point x="395" y="478" type="curve" smooth="yes"/>
      <point x="432" y="478"/>
      <point x="478" y="463"/>
      <point x="498" y="452" type="curve"/>
    </contour>
    <contour>
      <point x="414" y="747" type="line"/>
      <point x="410" y="755"/>
      <point x="404" y="758"/>
      <point x="396" y="758" type="curve" smooth="yes"/>
      <point x="382" y="758"/>
      <point x="366" y="747"/>
      <point x="363" y="733" type="curve"/>
      <point x="362" y="726"/>
      <point x="364" y="720"/>
      <point x="367" y="714" type="curve"/>
      <point x="463" y="588" type="line"/>
      <point x="467" y="584"/>
      <point x="471" y="582"/>
      <point x="475" y="582" type="curve" smooth="yes"/>
      <point x="484" y="582"/>
      <point x="495" y="588"/>
      <point x="498" y="598" type="curve"/>
      <point x="498" y="602"/>
      <point x="497" y="606"/>
      <point x="494" y="611" type="curve" smooth="yes"/>
    </contour>
  </outline>
</glyph>
<glyph name="atilde" format="1">
  <advance width="495"/>
  <unicode hex="00E3"/>
  <outline>
    <contour>
      <point x="539" y="476" type="line"/>
      <point x="516" y="489"/>
      <point x="461" y="515"/>
      <point x="400" y="515" type="curve" smooth="yes"/>
      <point x="226" y="515"/>
      <point x="121" y="327"/>
      <point x="99" y="223" type="curve" smooth="yes"/>
      <point x="72" y="95"/>
      <point x="133" y="8"/>
      <point x="239" y="8" type="curve" smooth="yes"/>
      <point x="294" y="8"/>
      <point x="365" y="39"/>
      <point x="414" y="66" type="curve"/>
      <point x="404" y="23" type="line"/>
      <point x="402" y="10"/>
      <point x="407" y="0"/>
      <point x="419" y="0" type="curve" smooth="yes"/>
      <point x="430" y="0"/>
      <point x="439" y="9"/>
      <point x="442" y="21" type="curve"/>
    </contour>
    <contour>
      <point x="421" y="110" type="line"/>
      <point x="391" y="93"/>
      <point x="310" y="45"/>
      <point x="245" y="45" type="curve" smooth="yes"/>
      <point x="138" y="45"/>
      <point x="122" y="148"/>
      <point x="138" y="225" type="curve" smooth="yes"/>
      <point x="158" y="316"/>
      <point x="245" y="478"/>
      <point x="395" y="478" type="curve" smooth="yes"/>
      <point x="432" y="478"/>
      <point x="478" y="463"/>
      <point x="498" y="452" type="curve"/>
    </contour>
    <contour>
      <point x="535" y="658"/>
      <point x="504" y="607"/>
      <point x="466" y="607" type="curve" smooth="yes"/>
      <point x="445" y="607"/>
      <point x="429" y="632"/>
      <point x="417" y="657" type="curve" smooth="yes"/>
      <point x="404" y="685"/>
      <point x="389" y="715"/>
      <point x="348" y="715" type="curve" smooth="yes"/>
      <point x="301" y="715"/>
      <point x="236" y="662"/>
      <point x="227" y="620" type="curve"/>
      <point x="226" y="612"/>
      <point x="227" y="604"/>
      <point x="237" y="604" type="curve" smooth="yes"/>
      <point x="244" y="604"/>
      <point x="250" y="608"/>
      <point x="255" y="617" type="curve"/>
      <point x="284" y="675"/>
      <point x="327" y="688"/>
      <point x="343" y="688" type="curve" smooth="yes"/>
      <point x="363" y="688"/>
      <point x="371" y="675"/>
      <point x="389" y="638" type="curve"/>
      <point x="403" y="612"/>
      <point x="417" y="581"/>
      <point x="458" y="581" type="curve" smooth="yes"/>
      <point x="512" y="581"/>
      <point x="575" y="649"/>
      <point x="584" y="687" type="curve"/>
      <point x="585" y="695"/>
      <point x="582" y="701"/>
      <point x="573" y="701" type="curve" smooth="yes"/>
      <point x="564" y="701"/>
      <point x="557" y="696"/>
      <point x="554" y="690" type="curve"/>
    </contour>
  </outline>
</glyph>
<glyph name="aring" format="1">
  <advance width="495"/>
  <unicode hex="00E5"/>
  <outline>
    <contour>
      <point x="483" y="587"/>
      <point x="558" y="631"/>
      <point x="572" y="697" type="curve" smooth="yes"/>
      <point x="583" y="751"/>
      <point x="542" y="794"/>
      <point x="485" y="794" type="curve" smooth="yes"/>
      <point x="419" y="794"/>
      <point x="344" y="747"/>
      <point x="331" y="683" type="curve" smooth="yes"/>
      <point x="319" y="629"/>
      <point x="359" y="587"/>
      <point x="418" y="587" type="curve" smooth="yes"/>
    </contour>
    <contour>
      <point x="526" y="766"/>
      <point x="556" y="730"/>
      <point x="548" y="695" type="curve" smooth="yes"/>
      <point x="538" y="645"/>
      <point x="474" y="614"/>
      <point x="433" y="614" type="curve" smooth="yes"/>
      <point x="379" y="614"/>
      <point x="345" y="640"/>
      <point x="354" y="683" type="curve" smooth="yes"/>
      <point x="361" y="718"/>
      <point x="412" y="766"/>
      <point x="475" y="766" type="curve" smooth="yes"/>
    </contour>
    <contour>
      <point x="539" y="476" type="line"/>
      <point x="516" y="489"/>
      <point x="461" y="515"/>
      <point x="400" y="515" type="curve" smooth="yes"/>
      <point x="226" y="515"/>
      <point x="121" y="327"/>
      <point x="99" y="223" type="curve" smooth="yes"/>
      <point x="72" y="95"/>
      <point x="133" y="8"/>
      <point x="239" y="8" type="curve" smooth="yes"/>
      <point x="294" y="8"/>
      <point x="365" y="39"/>
      <point x="414" y="66" type="curve"/>
      <point x="404" y="23" type="line"/>
      <point x="402" y="10"/>
      <point x="407" y="0"/>
      <point x="419" y="0" type="curve" smooth="yes"/>
      <point x="430" y="0"/>
      <point x="439" y="9"/>
      <point x="442" y="21" type="curve"/>
    </contour>
    <contour>
      <point x="421" y="110" type="line"/>
      <point x="391" y="93"/>
      <point x="310" y="45"/>
      <point x="245" y="45" type="curve" smooth="yes"/>
      <point x="138" y="45"/>
      <point x="122" y="148"/>
      <point x="138" y="225" type="curve" smooth="yes"/>
      <point x="158" y="316"/>
      <point x="245" y="478"/>
      <point x="395" y="478" type="curve" smooth="yes"/>
      <point x="432" y="478"/>
      <point x="478" y="463"/>
      <point x="498" y="452" type="curve"/>
    </contour>
  </outline>
</glyph>
<glyph name="ccedilla" format="1">
  <advance width="499"/>
  <unicode hex="00E7"/>
  <outline>
    <contour>
      <point x="241" y="-9" type="line" smooth="yes"/>
      <point x="236" y="-18"/>
      <point x="211" y="-65"/>
      <point x="210" y="-69" type="curve"/>
      <point x="209" y="-75"/>
      <point x="213" y="-79"/>
      <point x="219" y="-79" type="curve" smooth="yes"/>
      <point x="221" y="-79"/>
      <point x="224" y="-78"/>
      <point x="229" y="-75" type="curve" smooth="yes"/>
      <point x="237" y="-70"/>
      <point x="249" y="-64"/>
      <point x="267" y="-64" type="curve" smooth="yes"/>
      <point x="301" y="-64"/>
      <point x="322" y="-91"/>
      <point x="315" y="-125" type="curve" smooth="yes"/>
      <point x="308" y="-159"/>
      <point x="275" y="-187"/>
      <point x="241" y="-187" type="curve" smooth="yes"/>
      <point x="212" y="-187"/>
      <point x="203" y="-174"/>
      <point x="196" y="-164" type="curve"/>
      <point x="193" y="-159"/>
      <point x="191" y="-154"/>
      <point x="186" y="-154" type="curve" smooth="yes"/>
      <point x="181" y="-154"/>
      <point x="175" y="-157"/>
      <point x="174" y="-163" type="curve"/>
      <point x="168" y="-189"/>
      <point x="205" y="-209"/>
      <point x="236" y="-209" type="curve" smooth="yes"/>
      <point x="283" y="-209"/>
      <point x="328" y="-170"/>
      <point x="338" y="-123" type="curve" smooth="yes"/>
      <point x="348" y="-78"/>
      <point x="321" y="-41"/>
      <point x="250" y="-41" type="curve"/>
      <point x="260" y="0" type="line"/>
      <point x="277" y="0" type="line"/>
      <point x="351" y="3"/>
      <point x="426" y="43"/>
      <point x="470" y="93" type="curve"/>
      <point x="474" y="97"/>
      <point x="479" y="103"/>
      <point x="480" y="108" type="curve" smooth="yes"/>
      <point x="482" y="117"/>
      <point x="475" y="124"/>
      <point x="466" y="124" type="curve" smooth="yes"/>
      <point x="457" y="124"/>
      <point x="449" y="117"/>
      <point x="444" y="111" type="curve"/>
      <point x="406" y="71"/>
      <point x="349" y="33"/>
      <point x="270" y="33" type="curve" smooth="yes"/>
      <point x="221" y="33"/>
      <point x="102" y="75"/>
      <point x="133" y="217" type="curve" smooth="yes"/>
      <point x="139" y="246"/>
      <point x="151" y="281"/>
      <point x="176" y="323" type="curve" smooth="yes"/>
      <point x="215" y="386"/>
      <point x="300" y="467"/>
      <point x="374" y="467" type="curve" smooth="yes"/>
      <point x="431" y="467"/>
      <point x="459" y="441"/>
      <point x="482" y="405" type="curve" smooth="yes"/>
      <point x="484" y="402"/>
      <point x="489" y="400"/>
      <point x="494" y="400" type="curve" smooth="yes"/>
      <point x="503" y="400"/>
      <point x="512" y="408"/>
      <point x="514" y="418" type="curve"/>
      <point x="515" y="422"/>
      <point x="514" y="427"/>
      <point x="512" y="430" type="curve" smooth="yes"/>
      <point x="483" y="474"/>
      <point x="451" y="500"/>
      <point x="379" y="500" type="curve" smooth="yes"/>
      <point x="286" y="500"/>
      <point x="189" y="401"/>
      <point x="146" y="334" type="curve"/>
      <point x="131" y="308"/>
      <point x="107" y="263"/>
      <point x="97" y="215" type="curve" smooth="yes"/>
      <point x="73" y="100"/>
      <point x="145" y="17"/>
      <point x="246" y="0" type="curve"/>
    </contour>
  </outline>
</glyph>
<glyph name="egrave" format="1">
  <advance width="511"/>
  <unicode hex="00E8"/>
  <outline>
    <contour>
      <point x="489" y="93"/>
      <point x="484" y="100"/>
      <point x="474" y="100" type="curve" smooth="yes"/>
      <point x="470" y="100"/>
      <point x="466" y="98"/>
      <point x="463" y="95" type="curve" smooth="yes"/>
      <point x="426" y="60"/>
      <point x="356" y="33"/>
      <point x="308" y="33" type="curve" smooth="yes"/>
      <point x="220" y="33"/>
      <point x="161" y="74"/>
      <point x="134" y="155" type="curve"/>
      <point x="517" y="350" type="line" smooth="yes"/>
      <point x="530" y="357"/>
      <point x="538" y="365"/>
      <point x="539" y="371" type="curve"/>
      <point x="548" y="413"/>
      <point x="509" y="499"/>
      <point x="382" y="499" type="curve" smooth="yes"/>
      <point x="247" y="499"/>
      <point x="132" y="376"/>
      <point x="103" y="238" type="curve" smooth="yes"/>
      <point x="77" y="114"/>
      <point x="149" y="0"/>
      <point x="302" y="0" type="curve" smooth="yes"/>
      <point x="363" y="0"/>
      <point x="436" y="32"/>
      <point x="480" y="72" type="curve"/>
      <point x="483" y="75"/>
      <point x="486" y="79"/>
      <point x="487" y="83" type="curve"/>
    </contour>
    <contour>
      <point x="456" y="465"/>
      <point x="495" y="432"/>
      <point x="506" y="373" type="curve"/>
      <point x="130" y="188" type="line"/>
      <point x="130" y="216"/>
      <point x="132" y="225"/>
      <point x="135" y="237" type="curve"/>
      <point x="162" y="364"/>
      <point x="262" y="465"/>
      <point x="374" y="465" type="curve" smooth="yes"/>
    </contour>
    <contour>
      <point x="400" y="747" type="line"/>
      <point x="396" y="755"/>
      <point x="390" y="758"/>
      <point x="382" y="758" type="curve" smooth="yes"/>
      <point x="368" y="758"/>
      <point x="352" y="747"/>
      <point x="349" y="733" type="curve"/>
      <point x="348" y="726"/>
      <point x="350" y="720"/>
      <point x="353" y="714" type="curve"/>
      <point x="449" y="588" type="line"/>
      <point x="453" y="584"/>
      <point x="457" y="582"/>
      <point x="461" y="582" type="curve" smooth="yes"/>
      <point x="470" y="582"/>
      <point x="481" y="588"/>
      <point x="484" y="598" type="curve"/>
      <point x="484" y="602"/>
      <point x="483" y="606"/>
      <point x="480" y="611" type="curve" smooth="yes"/>
    </contour>
  </outline>
</glyph>
<glyph name="eacute" format="1">
  <advance width="511"/>
  <unicode hex="00E9"/>
  <outline>
    <contour>
      <point x="489" y="93"/>
      <point x="484" y="100"/>
      <point x="474" y="100" type="curve" smooth="yes"/>
      <point x="470" y="100"/>
      <point x="466" y="98"/>
      <point x="463" y="95" type="curve" smooth="yes"/>
      <point x="426" y="60"/>
      <point x="356" y="33"/>
      <point x="308" y="33" type="curve" smooth="yes"/>
      <point x="220" y="33"/>
      <point x="161" y="74"/>
      <point x="134" y="155" type="curve"/>
      <point x="517" y="350" type="line" smooth="yes"/>
      <point x="530" y="357"/>
      <point x="538" y="365"/>
      <point x="539" y="371" type="curve"/>
      <point x="548" y="413"/>
      <point x="509" y="499"/>
      <point x="382" y="499" type="curve" smooth="yes"/>
      <point x="247" y="499"/>
      <point x="132" y="376"/>
      <point x="103" y="238" type="curve" smooth="yes"/>
      <point x="77" y="114"/>
      <point x="149" y="0"/>
      <point x="302" y="0" type="curve" smooth="yes"/>
      <point x="363" y="0"/>
      <point x="436" y="32"/>
      <point x="480" y="72" type="curve"/>
      <point x="483" y="75"/>
      <point x="486" y="79"/>
      <point x="487" y="83" type="curve"/>
    </contour>
    <contour>
      <point x="456" y="465"/>
      <point x="495" y="432"/>
      <point x="506" y="373" type="curve"/>
      <point x="130" y="188" type="line"/>
      <point x="130" y="216"/>
      <point x="132" y="225"/>
      <point x="135" y="237" type="curve"/>
      <point x="162" y="364"/>
      <point x="262" y="465"/>
      <point x="374" y="465" type="curve" smooth="yes"/>
    </contour>
    <contour>
      <point x="538" y="692" type="line" smooth="yes"/>
      <point x="546" y="697"/>
      <point x="548" y="701"/>
      <point x="549" y="708" type="curve"/>
      <point x="552" y="722"/>
      <point x="542" y="735"/>
      <point x="531" y="735" type="curve" smooth="yes"/>
      <point x="521" y="735"/>
      <point x="512" y="728"/>
      <point x="502" y="721" type="curve" smooth="yes"/>
      <point x="352" y="617" type="line" smooth="yes"/>
      <point x="345" y="612"/>
      <point x="344" y="607"/>
      <point x="343" y="604" type="curve"/>
      <point x="341" y="595"/>
      <point x="347" y="587"/>
      <point x="356" y="587" type="curve" smooth="yes"/>
      <point x="360" y="587"/>
      <point x="366" y="589"/>
      <point x="374" y="594" type="curve" smooth="yes"/>
    </contour>
  </outline>
</glyph>
<glyph name="ecircumflex" format="1">
  <advance width="511"/>
  <unicode hex="00EA"/>
  <outline>
    <contour>
      <point x="489" y="93"/>
      <point x="484" y="100"/>
      <point x="474" y="100" type="curve" smooth="yes"/>
      <point x="470" y="100"/>
      <point x="466" y="98"/>
      <point x="463" y="95" type="curve" smooth="yes"/>
      <point x="426" y="60"/>
      <point x="356" y="33"/>
      <point x="308" y="33" type="curve" smooth="yes"/>
      <point x="220" y="33"/>
      <point x="161" y="74"/>
      <point x="134" y="155" type="curve"/>
      <point x="517" y="350" type="line" smooth="yes"/>
      <point x="530" y="357"/>
      <point x="538" y="365"/>
      <point x="539" y="371" type="curve"/>
      <point x="548" y="413"/>
      <point x="509" y="499"/>
      <point x="382" y="499" type="curve" smooth="yes"/>
      <point x="247" y="499"/>
      <point x="132" y="376"/>
      <point x="103" y="238" type="curve" smooth="yes"/>
      <point x="77" y="114"/>
      <point x="149" y="0"/>
      <point x="302" y="0" type="curve" smooth="yes"/>
      <point x="363" y="0"/>
      <point x="436" y="32"/>
      <point x="480" y="72" type="curve"/>
      <point x="483" y="75"/>
      <point x="486" y="79"/>
      <point x="487" y="83" type="curve"/>
    </contour>
    <contour>
      <point x="456" y="465"/>
      <point x="495" y="432"/>
      <point x="506" y="373" type="curve"/>
      <point x="130" y="188" type="line"/>
      <point x="130" y="216"/>
      <point x="132" y="225"/>
      <point x="135" y="237" type="curve"/>
      <point x="162" y="364"/>
      <point x="262" y="465"/>
      <point x="374" y="465" type="curve" smooth="yes"/>
    </contour>
    <contour>
      <point x="456" y="748"/>
      <point x="451" y="746"/>
      <point x="446" y="743" type="curve"/>
      <point x="287" y="630" type="line" smooth="yes"/>
      <point x="283" y="627"/>
      <point x="279" y="622"/>
      <point x="278" y="617" type="curve" smooth="yes"/>
      <point x="276" y="608"/>
      <point x="282" y="599"/>
      <point x="292" y="599" type="curve" smooth="yes"/>
      <point x="296" y="599"/>
      <point x="300" y="601"/>
      <point x="304" y="603" type="curve"/>
      <point x="448" y="699" type="line"/>
      <point x="533" y="604" type="line"/>
      <point x="536" y="601"/>
      <point x="540" y="599"/>
      <point x="545" y="599" type="curve" smooth="yes"/>
      <point x="554" y="599"/>
      <point x="564" y="608"/>
      <point x="566" y="617" type="curve" smooth="yes"/>
      <point x="567" y="622"/>
      <point x="565" y="625"/>
      <point x="562" y="629" type="curve" smooth="yes"/>
      <point x="474" y="742" type="line" smooth="yes"/>
      <point x="471" y="746"/>
      <point x="465" y="748"/>
      <point x="460" y="748" type="curve" smooth="yes"/>
    </contour>
  </outline>
</glyph>
<glyph name="edieresis" format="1">
  <advance width="511"/>
  <unicode hex="00EB"/>
  <outline>
    <contour>
      <point x="489" y="93"/>
      <point x="484" y="100"/>
      <point x="474" y="100" type="curve" smooth="yes"/>
      <point x="470" y="100"/>
      <point x="466" y="98"/>
      <point x="463" y="95" type="curve" smooth="yes"/>
      <point x="426" y="60"/>
      <point x="356" y="33"/>
      <point x="308" y="33" type="curve" smooth="yes"/>
      <point x="220" y="33"/>
      <point x="161" y="74"/>
      <point x="134" y="155" type="curve"/>
      <point x="517" y="350" type="line" smooth="yes"/>
      <point x="530" y="357"/>
      <point x="538" y="365"/>
      <point x="539" y="371" type="curve"/>
      <point x="548" y="413"/>
      <point x="509" y="499"/>
      <point x="382" y="499" type="curve" smooth="yes"/>
      <point x="247" y="499"/>
      <point x="132" y="376"/>
      <point x="103" y="238" type="curve" smooth="yes"/>
      <point x="77" y="114"/>
      <point x="149" y="0"/>
      <point x="302" y="0" type="curve" smooth="yes"/>
      <point x="363" y="0"/>
      <point x="436" y="32"/>
      <point x="480" y="72" type="curve"/>
      <point x="483" y="75"/>
      <point x="486" y="79"/>
      <point x="487" y="83" type="curve"/>
    </contour>
    <contour>
      <point x="456" y="465"/>
      <point x="495" y="432"/>
      <point x="506" y="373" type="curve"/>
      <point x="130" y="188" type="line"/>
      <point x="130" y="216"/>
      <point x="132" y="225"/>
      <point x="135" y="237" type="curve"/>
      <point x="162" y="364"/>
      <point x="262" y="465"/>
      <point x="374" y="465" type="curve" smooth="yes"/>
    </contour>
    <contour>
      <point x="387" y="652"/>
      <point x="372" y="666"/>
      <point x="354" y="666" type="curve" smooth="yes"/>
      <point x="330" y="666"/>
      <point x="307" y="649"/>
      <point x="303" y="630" type="curve" smooth="yes"/>
      <point x="300" y="613"/>
      <point x="313" y="600"/>
      <point x="333" y="600" type="curve" smooth="yes"/>
      <point x="357" y="600"/>
      <point x="379" y="616"/>
      <point x="384" y="636" type="curve"/>
    </contour>
    <contour>
      <point x="553" y="652"/>
      <point x="538" y="666"/>
      <point x="519" y="666" type="curve" smooth="yes"/>
      <point x="495" y="666"/>
      <point x="472" y="649"/>
      <point x="468" y="630" type="curve" smooth="yes"/>
      <point x="465" y="613"/>
      <point x="479" y="600"/>
      <point x="499" y="600" type="curve" smooth="yes"/>
      <point x="523" y="600"/>
      <point x="545" y="616"/>
      <point x="550" y="636" type="curve"/>
    </contour>
  </outline>
</glyph>
<glyph name="idieresis" format="1">
  <advance width="248"/>
  <unicode hex="00EF"/>
  <outline>
    <contour>
      <point x="247" y="476" type="line"/>
      <point x="249" y="487"/>
      <point x="242" y="496"/>
      <point x="232" y="496" type="curve" smooth="yes"/>
      <point x="221" y="496"/>
      <point x="210" y="487"/>
      <point x="208" y="476" type="curve"/>
      <point x="105" y="20" type="line"/>
      <point x="102" y="9"/>
      <point x="110" y="0"/>
      <point x="120" y="0" type="curve" smooth="yes"/>
      <point x="131" y="0"/>
      <point x="141" y="9"/>
      <point x="144" y="20" type="curve"/>
    </contour>
    <contour>
      <point x="225" y="652"/>
      <point x="210" y="666"/>
      <point x="192" y="666" type="curve" smooth="yes"/>
      <point x="168" y="666"/>
      <point x="145" y="649"/>
      <point x="141" y="630" type="curve" smooth="yes"/>
      <point x="138" y="613"/>
      <point x="152" y="600"/>
      <point x="171" y="600" type="curve" smooth="yes"/>
      <point x="195" y="600"/>
      <point x="217" y="616"/>
      <point x="222" y="636" type="curve"/>
    </contour>
    <contour>
      <point x="391" y="652"/>
      <point x="376" y="666"/>
      <point x="357" y="666" type="curve" smooth="yes"/>
      <point x="333" y="666"/>
      <point x="311" y="649"/>
      <point x="307" y="630" type="curve" smooth="yes"/>
      <point x="304" y="613"/>
      <point x="317" y="600"/>
      <point x="337" y="600" type="curve" smooth="yes"/>
      <point x="361" y="600"/>
      <point x="383" y="616"/>
      <point x="388" y="636" type="curve"/>
    </contour>
  </outline>
</glyph>
<glyph name="ntilde" format="1">
  <advance width="525"/>
  <unicode hex="00F1"/>
  <outline>
    <contour>
      <point x="207" y="482" type="line" smooth="yes"/>
      <point x="209" y="492"/>
      <point x="203" y="500"/>
      <point x="192" y="500" type="curve" smooth="yes"/>
      <point x="182" y="500"/>
      <point x="172" y="492"/>
      <point x="170" y="482" type="curve" smooth="yes"/>
      <point x="71" y="17" type="line" smooth="yes"/>
      <point x="69" y="7"/>
      <point x="76" y="0"/>
      <point x="86" y="0" type="curve" smooth="yes"/>
      <point x="98" y="0"/>
      <point x="105" y="9"/>
      <point x="108" y="21" type="curve" smooth="yes"/>
      <point x="127" y="105" type="line" smooth="yes"/>
      <point x="144" y="179"/>
      <point x="184" y="269"/>
      <point x="232" y="334" type="curve" smooth="yes"/>
      <point x="312" y="438"/>
      <point x="378" y="464"/>
      <point x="426" y="464" type="curve" smooth="yes"/>
      <point x="528" y="464"/>
      <point x="506" y="357"/>
      <point x="462" y="145" type="curve" smooth="yes"/>
      <point x="454" y="106"/>
      <point x="445" y="65"/>
      <point x="437" y="19" type="curve"/>
      <point x="434" y="8"/>
      <point x="442" y="0"/>
      <point x="451" y="0" type="curve" smooth="yes"/>
      <point x="461" y="0"/>
      <point x="469" y="9"/>
      <point x="472" y="20" type="curve" smooth="yes"/>
      <point x="483" y="66"/>
      <point x="491" y="108"/>
      <point x="500" y="148" type="curve" smooth="yes"/>
      <point x="551" y="388"/>
      <point x="559" y="499"/>
      <point x="439" y="499" type="curve" smooth="yes"/>
      <point x="335" y="499"/>
      <point x="205" y="380"/>
      <point x="161" y="265" type="curve"/>
    </contour>
    <contour>
      <point x="560" y="658"/>
      <point x="529" y="607"/>
      <point x="491" y="607" type="curve" smooth="yes"/>
      <point x="470" y="607"/>
      <point x="454" y="632"/>
      <point x="442" y="657" type="curve" smooth="yes"/>
      <point x="429" y="685"/>
      <point x="414" y="715"/>
      <point x="373" y="715" type="curve" smooth="yes"/>
      <point x="326" y="715"/>
      <point x="261" y="662"/>
      <point x="252" y="620" type="curve"/>
      <point x="251" y="612"/>
      <point x="252" y="604"/>
      <point x="262" y="604" type="curve" smooth="yes"/>
      <point x="269" y="604"/>
      <point x="275" y="608"/>
      <point x="280" y="617" type="curve"/>
      <point x="309" y="675"/>
      <point x="352" y="688"/>
      <point x="368" y="688" type="curve" smooth="yes"/>
      <point x="388" y="688"/>
      <point x="396" y="675"/>
      <point x="414" y="638" type="curve"/>
      <point x="428" y="612"/>
      <point x="442" y="581"/>
      <point x="483" y="581" type="curve" smooth="yes"/>
      <point x="537" y="581"/>
      <point x="600" y="649"/>
      <point x="609" y="687" type="curve"/>
      <point x="610" y="695"/>
      <point x="607" y="701"/>
      <point x="598" y="701" type="curve" smooth="yes"/>
      <point x="589" y="701"/>
      <point x="582" y="696"/>
      <point x="579" y="690" type="curve"/>
    </contour>
  </outline>
</glyph>
<glyph name="ocircumflex" format="1">
  <advance width="525"/>
  <unicode hex="00F4"/>
  <outline>
    <contour>
      <point x="378" y="0"/>
      <point x="510" y="123"/>
      <point x="541" y="271" type="curve" smooth="yes"/>
      <point x="567" y="395"/>
      <point x="503" y="500"/>
      <point x="390" y="500" type="curve" smooth="yes"/>
      <point x="264" y="500"/>
      <point x="131" y="376"/>
      <point x="100" y="229" type="curve" smooth="yes"/>
      <point x="73" y="103"/>
      <point x="138" y="0"/>
      <point x="252" y="0" type="curve" smooth="yes"/>
    </contour>
    <contour>
      <point x="472" y="471"/>
      <point x="524" y="375"/>
      <point x="501" y="266" type="curve" smooth="yes"/>
      <point x="474" y="140"/>
      <point x="358" y="29"/>
      <point x="258" y="29" type="curve" smooth="yes"/>
      <point x="161" y="29"/>
      <point x="116" y="123"/>
      <point x="139" y="231" type="curve" smooth="yes"/>
      <point x="166" y="358"/>
      <point x="277" y="471"/>
      <point x="379" y="471" type="curve" smooth="yes"/>
    </contour>
    <contour>
      <point x="472" y="748"/>
      <point x="467" y="746"/>
      <point x="462" y="743" type="curve"/>
      <point x="303" y="630" type="line" smooth="yes"/>
      <point x="299" y="627"/>
      <point x="295" y="622"/>
      <point x="294" y="617" type="curve" smooth="yes"/>
      <point x="292" y="608"/>
      <point x="298" y="599"/>
      <point x="308" y="599" type="curve" smooth="yes"/>
      <point x="312" y="599"/>
      <point x="316" y="601"/>
      <point x="320" y="603" type="curve"/>
      <point x="464" y="699" type="line"/>
      <point x="549" y="604" type="line"/>
      <point x="552" y="601"/>
      <point x="556" y="599"/>
      <point x="561" y="599" type="curve" smooth="yes"/>
      <point x="570" y="599"/>
      <point x="580" y="608"/>
      <point x="582" y="617" type="curve" smooth="yes"/>
      <point x="583" y="622"/>
      <point x="581" y="625"/>
      <point x="578" y="629" type="curve" smooth="yes"/>
      <point x="490" y="742" type="line" smooth="yes"/>
      <point x="487" y="746"/>
      <point x="481" y="748"/>
      <point x="476" y="748" type="curve" smooth="yes"/>
    </contour>
  </outline>
</glyph>
<glyph name="otilde" format="1">
  <advance width="525"/>
  <unicode hex="00F5"/>
  <outline>
    <contour>
      <point x="378" y="0"/>
      <point x="510" y="123"/>
      <point x="541" y="271" type="curve" smooth="yes"/>
      <point x="567" y="395"/>
      <point x="503" y="500"/>
      <point x="390" y="500" type="curve" smooth="yes"/>
      <point x="264" y="500"/>
      <point x="131" y="376"/>
      <point x="100" y="229" type="curve" smooth="yes"/>
      <point x="73" y="103"/>
      <point x="138" y="0"/>
      <point x="252" y="0" type="curve" smooth="yes"/>
    </contour>
    <contour>
      <point x="472" y="471"/>
      <point x="524" y="375"/>
      <point x="501" y="266" type="curve" smooth="yes"/>
      <point x="474" y="140"/>
      <point x="358" y="29"/>
      <point x="258" y="29" type="curve" smooth="yes"/>
      <point x="161" y="29"/>
      <point x="116" y="123"/>
      <point x="139" y="231" type="curve" smooth="yes"/>
      <point x="166" y="358"/>
      <point x="277" y="471"/>
      <point x="379" y="471" type="curve" smooth="yes"/>
    </contour>
    <contour>
      <point x="576" y="658"/>
      <point x="545" y="607"/>
      <point x="507" y="607" type="curve" smooth="yes"/>
      <point x="486" y="607"/>
      <point x="470" y="632"/>
      <point x="458" y="657" type="curve" smooth="yes"/>
      <point x="445" y="685"/>
      <point x="430" y="715"/>
      <point x="389" y="715" type="curve" smooth="yes"/>
      <point x="342" y="715"/>
      <point x="277" y="662"/>
      <point x="268" y="620" type="curve"/>
      <point x="267" y="612"/>
      <point x="268" y="604"/>
      <point x="278" y="604" type="curve" smooth="yes"/>
      <point x="285" y="604"/>
      <point x="291" y="608"/>
      <point x="296" y="617" type="curve"/>
      <point x="325" y="675"/>
      <point x="368" y="688"/>
      <point x="384" y="688" type="curve" smooth="yes"/>
      <point x="404" y="688"/>
      <point x="412" y="675"/>
      <point x="430" y="638" type="curve"/>
      <point x="444" y="612"/>
      <point x="458" y="581"/>
      <point x="499" y="581" type="curve" smooth="yes"/>
      <point x="553" y="581"/>
      <point x="616" y="649"/>
      <point x="625" y="687" type="curve"/>
      <point x="626" y="695"/>
      <point x="623" y="701"/>
      <point x="614" y="701" type="curve" smooth="yes"/>
      <point x="605" y="701"/>
      <point x="598" y="696"/>
      <point x="595" y="690" type="curve"/>
    </contour>
  </outline>
</glyph>
<glyph name="divide" format="1">
  <advance width="423"/>
  <unicode hex="00F7"/>
  <outline>
    <contour>
      <point x="398" y="226" type="line" smooth="yes"/>
      <point x="407" y="226"/>
      <point x="417" y="233"/>
      <point x="419" y="243" type="curve" smooth="yes"/>
      <point x="421" y="252"/>
      <point x="414" y="259"/>
      <point x="405" y="259" type="curve" smooth="yes"/>
      <point x="137" y="259" type="line" smooth="yes"/>
      <point x="128" y="259"/>
      <point x="117" y="252"/>
      <point x="115" y="243" type="curve" smooth="yes"/>
      <point x="113" y="233"/>
      <point x="121" y="226"/>
      <point x="130" y="226" type="curve" smooth="yes"/>
    </contour>
    <contour>
      <point x="300" y="313"/>
      <point x="314" y="327"/>
      <point x="318" y="345" type="curve" smooth="yes"/>
      <point x="320" y="355"/>
      <point x="314" y="365"/>
      <point x="305" y="365" type="curve" smooth="yes"/>
      <point x="291" y="365"/>
      <point x="277" y="350"/>
      <point x="274" y="336" type="curve" smooth="yes"/>
      <point x="271" y="323"/>
      <point x="276" y="313"/>
      <point x="287" y="313" type="curve" smooth="yes"/>
    </contour>
    <contour>
      <point x="243" y="121"/>
      <point x="256" y="135"/>
      <point x="260" y="153" type="curve"/>
      <point x="262" y="164"/>
      <point x="257" y="173"/>
      <point x="247" y="173" type="curve" smooth="yes"/>
      <point x="234" y="173"/>
      <point x="219" y="158"/>
      <point x="216" y="144" type="curve" smooth="yes"/>
      <point x="213" y="131"/>
      <point x="219" y="121"/>
      <point x="229" y="121" type="curve" smooth="yes"/>
    </contour>
  </outline>
</glyph>
<glyph name="oslash" format="1">
  <advance width="525"/>
  <unicode hex="00F8"/>
  <outline>
    <contour>
      <point x="156" y="30" type="line"/>
      <point x="185" y="11"/>
      <point x="219" y="0"/>
      <point x="252" y="0" type="curve" smooth="yes"/>
      <point x="378" y="0"/>
      <point x="510" y="123"/>
      <point x="541" y="271" type="curve" smooth="yes"/>
      <point x="556" y="343"/>
      <point x="539" y="411"/>
      <point x="498" y="457" type="curve"/>
      <point x="548" y="522" type="line"/>
      <point x="554" y="529"/>
      <point x="555" y="540"/>
      <point x="548" y="544" type="curve"/>
      <point x="542" y="548"/>
      <point x="531" y="547"/>
      <point x="525" y="539" type="curve" smooth="yes"/>
      <point x="474" y="475" type="line"/>
      <point x="447" y="492"/>
      <point x="417" y="500"/>
      <point x="390" y="500" type="curve" smooth="yes"/>
      <point x="264" y="500"/>
      <point x="131" y="376"/>
      <point x="100" y="229" type="curve" smooth="yes"/>
      <point x="86" y="160"/>
      <point x="100" y="96"/>
      <point x="136" y="49" type="curve"/>
      <point x="86" y="-11" type="line"/>
      <point x="83" y="-15"/>
      <point x="82" y="-17"/>
      <point x="81" y="-21" type="curve" smooth="yes"/>
      <point x="79" y="-29"/>
      <point x="87" y="-36"/>
      <point x="95" y="-36" type="curve" smooth="yes"/>
      <point x="101" y="-36"/>
      <point x="106" y="-34"/>
      <point x="111" y="-28" type="curve" smooth="yes"/>
    </contour>
    <contour>
      <point x="230" y="29"/>
      <point x="203" y="40"/>
      <point x="179" y="57" type="curve"/>
      <point x="472" y="427" type="line"/>
      <point x="501" y="382"/>
      <point x="513" y="324"/>
      <point x="501" y="266" type="curve" smooth="yes"/>
      <point x="474" y="140"/>
      <point x="358" y="29"/>
      <point x="258" y="29" type="curve" smooth="yes"/>
    </contour>
    <contour>
      <point x="405" y="471"/>
      <point x="430" y="463"/>
      <point x="452" y="447" type="curve"/>
      <point x="159" y="79" type="line"/>
      <point x="135" y="125"/>
      <point x="127" y="178"/>
      <point x="139" y="231" type="curve" smooth="yes"/>
      <point x="166" y="358"/>
      <point x="277" y="471"/>
      <point x="379" y="471" type="curve" smooth="yes"/>
    </contour>
  </outline>
</glyph>
<glyph name="ugrave" format="1">
  <advance width="502"/>
  <unicode hex="00F9"/>
  <outline>
    <contour>
      <point x="386" y="89"/>
      <point x="318" y="27"/>
      <point x="221" y="27" type="curve" smooth="yes"/>
      <point x="107" y="27"/>
      <point x="137" y="162"/>
      <point x="165" y="294" type="curve" smooth="yes"/>
      <point x="181" y="370"/>
      <point x="202" y="427"/>
      <point x="214" y="462" type="curve" smooth="yes"/>
      <point x="217" y="471"/>
      <point x="219" y="479"/>
      <point x="220" y="483" type="curve"/>
      <point x="223" y="493"/>
      <point x="216" y="500"/>
      <point x="206" y="500" type="curve" smooth="yes"/>
      <point x="197" y="500"/>
      <point x="189" y="496"/>
      <point x="181" y="474" type="curve" smooth="yes"/>
      <point x="168" y="435"/>
      <point x="146" y="372"/>
      <point x="130" y="293" type="curve" smooth="yes"/>
      <point x="99" y="144"/>
      <point x="67" y="-3"/>
      <point x="215" y="-3" type="curve" smooth="yes"/>
      <point x="292" y="-3"/>
      <point x="376" y="34"/>
      <point x="419" y="82" type="curve"/>
      <point x="407" y="24" type="line" smooth="yes"/>
      <point x="404" y="10"/>
      <point x="411" y="0"/>
      <point x="424" y="0" type="curve" smooth="yes"/>
      <point x="436" y="0"/>
      <point x="446" y="8"/>
      <point x="449" y="19" type="curve"/>
      <point x="547" y="483" type="line" smooth="yes"/>
      <point x="549" y="492"/>
      <point x="542" y="500"/>
      <point x="532" y="500" type="curve" smooth="yes"/>
      <point x="523" y="500"/>
      <point x="512" y="492"/>
      <point x="510" y="483" type="curve" smooth="yes"/>
      <point x="441" y="167" type="line" smooth="yes"/>
      <point x="436" y="143"/>
      <point x="428" y="127"/>
      <point x="415" y="115" type="curve" smooth="yes"/>
    </contour>
    <contour>
      <point x="389" y="747" type="line"/>
      <point x="385" y="755"/>
      <point x="379" y="758"/>
      <point x="371" y="758" type="curve" smooth="yes"/>
      <point x="357" y="758"/>
      <point x="341" y="747"/>
      <point x="338" y="733" type="curve"/>
      <point x="337" y="726"/>
      <point x="339" y="720"/>
      <point x="342" y="714" type="curve"/>
      <point x="438" y="588" type="line"/>
      <point x="442" y="584"/>
      <point x="446" y="582"/>
      <point x="450" y="582" type="curve" smooth="yes"/>
      <point x="459" y="582"/>
      <point x="470" y="588"/>
      <point x="473" y="598" type="curve"/>
      <point x="473" y="602"/>
      <point x="472" y="606"/>
      <point x="469" y="611" type="curve" smooth="yes"/>
    </contour>
  </outline>
</glyph>
<glyph name="ucircumflex" format="1">
  <advance width="502"/>
  <unicode hex="00FB"/>
  <outline>
    <contour>
      <point x="451" y="748"/>
      <point x="446" y="746"/>
      <point x="441" y="743" type="curve"/>
      <point x="282" y="630" type="line" smooth="yes"/>
      <point x="278" y="627"/>
      <point x="274" y="622"/>
      <point x="273" y="617" type="curve" smooth="yes"/>
      <point x="271" y="608"/>
      <point x="277" y="599"/>
      <point x="287" y="599" type="curve" smooth="yes"/>
      <point x="291" y="599"/>
      <point x="295" y="601"/>
      <point x="299" y="603" type="curve"/>
      <point x="443" y="699" type="line"/>
      <point x="528" y="604" type="line"/>
      <point x="531" y="601"/>
      <point x="535" y="599"/>
      <point x="540" y="599" type="curve" smooth="yes"/>
      <point x="549" y="599"/>
      <point x="559" y="608"/>
      <point x="561" y="617" type="curve" smooth="yes"/>
      <point x="562" y="622"/>
      <point x="560" y="625"/>
      <point x="557" y="629" type="curve" smooth="yes"/>
      <point x="469" y="742" type="line" smooth="yes"/>
      <point x="466" y="746"/>
      <point x="460" y="748"/>
      <point x="455" y="748" type="curve" smooth="yes"/>
    </contour>
    <contour>
      <point x="386" y="89"/>
      <point x="318" y="27"/>
      <point x="221" y="27" type="curve" smooth="yes"/>
      <point x="107" y="27"/>
      <point x="137" y="162"/>
      <point x="165" y="294" type="curve" smooth="yes"/>
      <point x="181" y="370"/>
      <point x="202" y="427"/>
      <point x="214" y="462" type="curve" smooth="yes"/>
      <point x="217" y="471"/>
      <point x="219" y="479"/>
      <point x="220" y="483" type="curve"/>
      <point x="223" y="493"/>
      <point x="216" y="500"/>
      <point x="206" y="500" type="curve" smooth="yes"/>
      <point x="197" y="500"/>
      <point x="189" y="496"/>
      <point x="181" y="474" type="curve" smooth="yes"/>
      <point x="168" y="435"/>
      <point x="146" y="372"/>
      <point x="130" y="293" type="curve" smooth="yes"/>
      <point x="99" y="144"/>
      <point x="67" y="-3"/>
      <point x="215" y="-3" type="curve" smooth="yes"/>
      <point x="292" y="-3"/>
      <point x="376" y="34"/>
      <point x="419" y="82" type="curve"/>
      <point x="407" y="24" type="line" smooth="yes"/>
      <point x="404" y="10"/>
      <point x="411" y="0"/>
      <point x="424" y="0" type="curve" smooth="yes"/>
      <point x="436" y="0"/>
      <point x="446" y="8"/>
      <point x="449" y="19" type="curve"/>
      <point x="547" y="483" type="line" smooth="yes"/>
      <point x="549" y="492"/>
      <point x="542" y="500"/>
      <point x="532" y="500" type="curve" smooth="yes"/>
      <point x="523" y="500"/>
      <point x="512" y="492"/>
      <point x="510" y="483" type="curve" smooth="yes"/>
      <point x="441" y="167" type="line" smooth="yes"/>
      <point x="436" y="143"/>
      <point x="428" y="127"/>
      <point x="415" y="115" type="curve" smooth="yes"/>
    </contour>
  </outline>
</glyph>
<glyph name="udieresis" format="1">
  <advance width="502"/>
  <unicode hex="00FC"/>
  <outline>
    <contour>
      <point x="368" y="652"/>
      <point x="354" y="666"/>
      <point x="335" y="666" type="curve" smooth="yes"/>
      <point x="311" y="666"/>
      <point x="288" y="649"/>
      <point x="284" y="630" type="curve" smooth="yes"/>
      <point x="281" y="613"/>
      <point x="295" y="600"/>
      <point x="315" y="600" type="curve" smooth="yes"/>
      <point x="339" y="600"/>
      <point x="360" y="616"/>
      <point x="365" y="636" type="curve"/>
    </contour>
    <contour>
      <point x="534" y="652"/>
      <point x="519" y="666"/>
      <point x="501" y="666" type="curve" smooth="yes"/>
      <point x="477" y="666"/>
      <point x="454" y="649"/>
      <point x="450" y="630" type="curve" smooth="yes"/>
      <point x="447" y="613"/>
      <point x="460" y="600"/>
      <point x="480" y="600" type="curve" smooth="yes"/>
      <point x="504" y="600"/>
      <point x="526" y="616"/>
      <point x="531" y="636" type="curve"/>
    </contour>
    <contour>
      <point x="386" y="89"/>
      <point x="318" y="27"/>
      <point x="221" y="27" type="curve" smooth="yes"/>
      <point x="107" y="27"/>
      <point x="137" y="162"/>
      <point x="165" y="294" type="curve" smooth="yes"/>
      <point x="181" y="370"/>
      <point x="202" y="427"/>
      <point x="214" y="462" type="curve" smooth="yes"/>
      <point x="217" y="471"/>
      <point x="219" y="479"/>
      <point x="220" y="483" type="curve"/>
      <point x="223" y="493"/>
      <point x="216" y="500"/>
      <point x="206" y="500" type="curve" smooth="yes"/>
      <point x="197" y="500"/>
      <point x="189" y="496"/>
      <point x="181" y="474" type="curve" smooth="yes"/>
      <point x="168" y="435"/>
      <point x="146" y="372"/>
      <point x="130" y="293" type="curve" smooth="yes"/>
      <point x="99" y="144"/>
      <point x="67" y="-3"/>
      <point x="215" y="-3" type="curve" smooth="yes"/>
      <point x="292" y="-3"/>
      <point x="376" y="34"/>
      <point x="419" y="82" type="curve"/>
      <point x="407" y="24" type="line" smooth="yes"/>
      <point x="404" y="10"/>
      <point x="411" y="0"/>
      <point x="424" y="0" type="curve" smooth="yes"/>
      <point x="436" y="0"/>
      <point x="446" y="8"/>
      <point x="449" y="19" type="curve"/>
      <point x="547" y="483" type="line" smooth="yes"/>
      <point x="549" y="492"/>
      <point x="542" y="500"/>
      <point x="532" y="500" type="curve" smooth="yes"/>
      <point x="523" y="500"/>
      <point x="512" y="492"/>
      <point x="510" y="483" type="curve" smooth="yes"/>
      <point x="441" y="167" type="line" smooth="yes"/>
      <point x="436" y="143"/>
      <point x="428" y="127"/>
      <point x="415" y="115" type="curve" smooth="yes"/>
    </contour>
  </outline>
</glyph>
<glyph name="ydieresis" format="1">
  <advance width="479"/>
  <unicode hex="00FF"/>
  <outline>
    <contour>
      <point x="346" y="652"/>
      <point x="331" y="666"/>
      <point x="312" y="666" type="curve" smooth="yes"/>
      <point x="288" y="666"/>
      <point x="265" y="649"/>
      <point x="261" y="630" type="curve" smooth="yes"/>
      <point x="258" y="613"/>
      <point x="272" y="600"/>
      <point x="292" y="600" type="curve" smooth="yes"/>
      <point x="316" y="600"/>
      <point x="338" y="616"/>
      <point x="343" y="636" type="curve"/>
    </contour>
    <contour>
      <point x="511" y="652"/>
      <point x="497" y="666"/>
      <point x="478" y="666" type="curve" smooth="yes"/>
      <point x="454" y="666"/>
      <point x="431" y="649"/>
      <point x="427" y="630" type="curve" smooth="yes"/>
      <point x="424" y="613"/>
      <point x="438" y="600"/>
      <point x="458" y="600" type="curve" smooth="yes"/>
      <point x="482" y="600"/>
      <point x="503" y="616"/>
      <point x="508" y="636" type="curve"/>
    </contour>
    <contour>
      <point x="564" y="470" type="line"/>
      <point x="567" y="474"/>
      <point x="569" y="479"/>
      <point x="570" y="482" type="curve"/>
      <point x="572" y="493"/>
      <point x="566" y="501"/>
      <point x="555" y="501" type="curve" smooth="yes"/>
      <point x="547" y="501"/>
      <point x="539" y="496"/>
      <point x="534" y="489" type="curve" smooth="yes"/>
      <point x="271" y="98" type="line"/>
      <point x="162" y="487" type="line"/>
      <point x="159" y="496"/>
      <point x="153" y="500"/>
      <point x="146" y="500" type="curve" smooth="yes"/>
      <point x="135" y="500"/>
      <point x="125" y="491"/>
      <point x="123" y="480" type="curve"/>
      <point x="122" y="476"/>
      <point x="122" y="473"/>
      <point x="123" y="469" type="curve" smooth="yes"/>
      <point x="242" y="53" type="line"/>
      <point x="90" y="-173" type="line"/>
      <point x="87" y="-178"/>
      <point x="84" y="-183"/>
      <point x="83" y="-187" type="curve"/>
      <point x="81" y="-197"/>
      <point x="89" y="-205"/>
      <point x="99" y="-205" type="curve" smooth="yes"/>
      <point x="107" y="-205"/>
      <point x="114" y="-201"/>
      <point x="119" y="-193" type="curve" smooth="yes"/>
    </contour>
  </outline>
</glyph>
<glyph name="Cacute" format="1">
  <advance width="622"/>
  <unicode hex="0106"/>
  <outline>
    <contour>
      <point x="584" y="145"/>
      <point x="579" y="142"/>
      <point x="574" y="138" type="curve"/>
      <point x="503" y="68"/>
      <point x="421" y="36"/>
      <point x="345" y="36" type="curve" smooth="yes"/>
      <point x="249" y="36"/>
      <point x="113" y="110"/>
      <point x="152" y="295" type="curve" smooth="yes"/>
      <point x="189" y="469"/>
      <point x="363" y="646"/>
      <point x="484" y="646" type="curve" smooth="yes"/>
      <point x="575" y="646"/>
      <point x="610" y="607"/>
      <point x="626" y="583" type="curve"/>
      <point x="625" y="574" type="line"/>
      <point x="622" y="564"/>
      <point x="629" y="554"/>
      <point x="639" y="554" type="curve" smooth="yes"/>
      <point x="649" y="554"/>
      <point x="660" y="564"/>
      <point x="663" y="574" type="curve"/>
      <point x="677" y="640" type="line" smooth="yes"/>
      <point x="679" y="650"/>
      <point x="672" y="658"/>
      <point x="662" y="658" type="curve" smooth="yes"/>
      <point x="654" y="658"/>
      <point x="644" y="650"/>
      <point x="636" y="639" type="curve"/>
      <point x="606" y="661"/>
      <point x="561" y="684"/>
      <point x="492" y="684" type="curve" smooth="yes"/>
      <point x="355" y="684"/>
      <point x="158" y="500"/>
      <point x="114" y="295" type="curve" smooth="yes"/>
      <point x="78" y="126"/>
      <point x="181" y="-2"/>
      <point x="337" y="-2" type="curve" smooth="yes"/>
      <point x="433" y="-2"/>
      <point x="527" y="40"/>
      <point x="599" y="115" type="curve" smooth="yes"/>
      <point x="602" y="118"/>
      <point x="605" y="123"/>
      <point x="605" y="127" type="curve"/>
      <point x="608" y="139"/>
      <point x="599" y="145"/>
      <point x="589" y="145" type="curve" smooth="yes"/>
    </contour>
    <contour>
      <point x="614" y="857" type="line" smooth="yes"/>
      <point x="622" y="862"/>
      <point x="624" y="866"/>
      <point x="625" y="873" type="curve"/>
      <point x="628" y="887"/>
      <point x="618" y="900"/>
      <point x="607" y="900" type="curve" smooth="yes"/>
      <point x="597" y="900"/>
      <point x="588" y="893"/>
      <point x="578" y="886" type="curve" smooth="yes"/>
      <point x="428" y="782" type="line" smooth="yes"/>
      <point x="421" y="777"/>
      <point x="420" y="772"/>
      <point x="419" y="769" type="curve"/>
      <point x="417" y="760"/>
      <point x="423" y="752"/>
      <point x="432" y="752" type="curve" smooth="yes"/>
      <point x="436" y="752"/>
      <point x="442" y="754"/>
      <point x="450" y="759" type="curve" smooth="yes"/>
    </contour>
  </outline>
</glyph>
<glyph name="cacute" format="1">
  <advance width="499"/>
  <unicode hex="0107"/>
  <outline>
    <contour>
      <point x="482" y="117"/>
      <point x="475" y="124"/>
      <point x="466" y="124" type="curve" smooth="yes"/>
      <point x="457" y="124"/>
      <point x="449" y="117"/>
      <point x="444" y="111" type="curve"/>
      <point x="406" y="71"/>
      <point x="349" y="33"/>
      <point x="270" y="33" type="curve" smooth="yes"/>
      <point x="221" y="33"/>
      <point x="102" y="75"/>
      <point x="133" y="217" type="curve" smooth="yes"/>
      <point x="139" y="246"/>
      <point x="151" y="281"/>
      <point x="176" y="323" type="curve" smooth="yes"/>
      <point x="215" y="386"/>
      <point x="300" y="467"/>
      <point x="374" y="467" type="curve" smooth="yes"/>
      <point x="431" y="467"/>
      <point x="459" y="441"/>
      <point x="482" y="405" type="curve" smooth="yes"/>
      <point x="484" y="402"/>
      <point x="489" y="400"/>
      <point x="494" y="400" type="curve" smooth="yes"/>
      <point x="503" y="400"/>
      <point x="512" y="408"/>
      <point x="514" y="418" type="curve"/>
      <point x="515" y="422"/>
      <point x="514" y="427"/>
      <point x="512" y="430" type="curve" smooth="yes"/>
      <point x="483" y="474"/>
      <point x="451" y="500"/>
      <point x="379" y="500" type="curve" smooth="yes"/>
      <point x="286" y="500"/>
      <point x="189" y="401"/>
      <point x="146" y="334" type="curve"/>
      <point x="131" y="308"/>
      <point x="107" y="263"/>
      <point x="97" y="215" type="curve" smooth="yes"/>
      <point x="70" y="89"/>
      <point x="159" y="-6"/>
      <point x="277" y="0" type="curve" smooth="yes"/>
      <point x="351" y="3"/>
      <point x="426" y="43"/>
      <point x="470" y="93" type="curve"/>
      <point x="474" y="97"/>
      <point x="479" y="103"/>
      <point x="480" y="108" type="curve" smooth="yes"/>
    </contour>
    <contour>
      <point x="536" y="692" type="line" smooth="yes"/>
      <point x="544" y="697"/>
      <point x="546" y="701"/>
      <point x="547" y="708" type="curve"/>
      <point x="550" y="722"/>
      <point x="540" y="735"/>
      <point x="529" y="735" type="curve" smooth="yes"/>
      <point x="519" y="735"/>
      <point x="510" y="728"/>
      <point x="500" y="721" type="curve" smooth="yes"/>
      <point x="350" y="617" type="line" smooth="yes"/>
      <point x="343" y="612"/>
      <point x="342" y="607"/>
      <point x="341" y="604" type="curve"/>
      <point x="339" y="595"/>
      <point x="345" y="587"/>
      <point x="354" y="587" type="curve" smooth="yes"/>
      <point x="358" y="587"/>
      <point x="364" y="589"/>
      <point x="372" y="594" type="curve" smooth="yes"/>
    </contour>
  </outline>
</glyph>
<glyph name="ccaron" format="1">
  <advance width="499"/>
  <unicode hex="010D"/>
  <outline>
    <contour>
      <point x="401" y="589"/>
      <point x="406" y="591"/>
      <point x="411" y="594" type="curve"/>
      <point x="570" y="707" type="line" smooth="yes"/>
      <point x="574" y="710"/>
      <point x="578" y="715"/>
      <point x="580" y="720" type="curve"/>
      <point x="581" y="729"/>
      <point x="575" y="738"/>
      <point x="565" y="738" type="curve" smooth="yes"/>
      <point x="561" y="738"/>
      <point x="557" y="736"/>
      <point x="554" y="734" type="curve" smooth="yes"/>
      <point x="409" y="638" type="line"/>
      <point x="324" y="733" type="line"/>
      <point x="321" y="736"/>
      <point x="317" y="738"/>
      <point x="312" y="738" type="curve" smooth="yes"/>
      <point x="303" y="738"/>
      <point x="293" y="729"/>
      <point x="292" y="720" type="curve"/>
      <point x="290" y="715"/>
      <point x="292" y="712"/>
      <point x="295" y="708" type="curve" smooth="yes"/>
      <point x="383" y="595" type="line" smooth="yes"/>
      <point x="386" y="591"/>
      <point x="392" y="589"/>
      <point x="397" y="589" type="curve" smooth="yes"/>
    </contour>
    <contour>
      <point x="482" y="117"/>
      <point x="475" y="124"/>
      <point x="466" y="124" type="curve" smooth="yes"/>
      <point x="457" y="124"/>
      <point x="449" y="117"/>
      <point x="444" y="111" type="curve"/>
      <point x="406" y="71"/>
      <point x="349" y="33"/>
      <point x="270" y="33" type="curve" smooth="yes"/>
      <point x="221" y="33"/>
      <point x="102" y="75"/>
      <point x="133" y="217" type="curve" smooth="yes"/>
      <point x="139" y="246"/>
      <point x="151" y="281"/>
      <point x="176" y="323" type="curve" smooth="yes"/>
      <point x="215" y="386"/>
      <point x="300" y="467"/>
      <point x="374" y="467" type="curve" smooth="yes"/>
      <point x="431" y="467"/>
      <point x="459" y="441"/>
      <point x="482" y="405" type="curve" smooth="yes"/>
      <point x="484" y="402"/>
      <point x="489" y="400"/>
      <point x="494" y="400" type="curve" smooth="yes"/>
      <point x="503" y="400"/>
      <point x="512" y="408"/>
      <point x="514" y="418" type="curve"/>
      <point x="515" y="422"/>
      <point x="514" y="427"/>
      <point x="512" y="430" type="curve" smooth="yes"/>
      <point x="483" y="474"/>
      <point x="451" y="500"/>
      <point x="379" y="500" type="curve" smooth="yes"/>
      <point x="286" y="500"/>
      <point x="189" y="401"/>
      <point x="146" y="334" type="curve"/>
      <point x="131" y="308"/>
      <point x="107" y="263"/>
      <point x="97" y="215" type="curve" smooth="yes"/>
      <point x="70" y="89"/>
      <point x="159" y="-6"/>
      <point x="277" y="0" type="curve" smooth="yes"/>
      <point x="351" y="3"/>
      <point x="426" y="43"/>
      <point x="470" y="93" type="curve"/>
      <point x="474" y="97"/>
      <point x="479" y="103"/>
      <point x="480" y="108" type="curve" smooth="yes"/>
    </contour>
  </outline>
</glyph>
<glyph name="dcaron" format="1">
  <advance width="535"/>
  <unicode hex="010F"/>
  <outline>
    <contour>
      <point x="642" y="563" type="line" smooth="yes"/>
      <point x="639" y="558"/>
      <point x="639" y="556"/>
      <point x="638" y="553" type="curve"/>
      <point x="637" y="548"/>
      <point x="642" y="543"/>
      <point x="649" y="543" type="curve" smooth="yes"/>
      <point x="660" y="543"/>
      <point x="677" y="572"/>
      <point x="702" y="612" type="curve" smooth="yes"/>
      <point x="725" y="650"/>
      <point x="729" y="657"/>
      <point x="733" y="675" type="curve"/>
      <point x="735" y="686"/>
      <point x="728" y="698"/>
      <point x="715" y="698" type="curve" smooth="yes"/>
      <point x="699" y="698"/>
      <point x="680" y="682"/>
      <point x="676" y="662" type="curve" smooth="yes"/>
      <point x="674" y="653"/>
      <point x="677" y="642"/>
      <point x="684" y="634" type="curve"/>
    </contour>
    <contour>
      <point x="609" y="685" type="line"/>
      <point x="611" y="695"/>
      <point x="605" y="705"/>
      <point x="594" y="705" type="curve" smooth="yes"/>
      <point x="584" y="705"/>
      <point x="572" y="696"/>
      <point x="570" y="686" type="curve" smooth="yes"/>
      <point x="517" y="461" type="line"/>
      <point x="481" y="478"/>
      <point x="428" y="498"/>
      <point x="371" y="498" type="curve" smooth="yes"/>
      <point x="216" y="498"/>
      <point x="131" y="368"/>
      <point x="100" y="225" type="curve" smooth="yes"/>
      <point x="77" y="116"/>
      <point x="106" y="4"/>
      <point x="222" y="4" type="curve" smooth="yes"/>
      <point x="300" y="4"/>
      <point x="379" y="55"/>
      <point x="432" y="96" type="curve"/>
      <point x="414" y="22" type="line" smooth="yes"/>
      <point x="411" y="9"/>
      <point x="416" y="0"/>
      <point x="428" y="0" type="curve" smooth="yes"/>
      <point x="439" y="0"/>
      <point x="449" y="7"/>
      <point x="451" y="18" type="curve"/>
    </contour>
    <contour>
      <point x="158" y="323"/>
      <point x="216" y="463"/>
      <point x="366" y="463" type="curve" smooth="yes"/>
      <point x="429" y="463"/>
      <point x="488" y="430"/>
      <point x="508" y="419" type="curve"/>
      <point x="447" y="157" type="line" smooth="yes"/>
      <point x="438" y="122"/>
      <point x="343" y="34"/>
      <point x="229" y="34" type="curve" smooth="yes"/>
      <point x="125" y="34"/>
      <point x="121" y="148"/>
      <point x="138" y="228" type="curve" smooth="yes"/>
    </contour>
  </outline>
</glyph>
